<?xml version="1.0" standalone="no"?>
<!DOCTYPE svg PUBLIC "-//W3C//DTD SVG 1.1//EN" "http://www.w3.org/Graphics/SVG/1.1/DTD/svg11.dtd" >
<svg>
<metadata>
Created by FontForge 20120731 at Mon Aug 12 12:58:00 2019
 By www-data
Copyright \(c\) 2016 by Octavio Pardo Virto. All rights reserved.
</metadata>
<defs>
<font id="NeulandGroteskCondensedRegular" horiz-adv-x="0" >
  <font-face 
    font-family="Neuland Grotesk Condensed"
    font-weight="400"
    font-stretch="condensed"
    units-per-em="1000"
    panose-1="2 0 6 6 2 0 0 2 0 4"
    ascent="800"
    descent="-200"
    x-height="511"
    cap-height="706"
    bbox="-155 -174 941 906"
    underline-thickness="45"
    underline-position="-17"
    unicode-range="U+0020-FB02"
  />
<missing-glyph horiz-adv-x="427" 
d="M350 706v-853h-271v853h271zM284 649h-141v-28h56v-32h-57v-28h142v28h-56v32h56v28zM228 539h-86v-89h142v29h-56v60zM199 510v-31h-28v31h28zM284 427h-142v-28h57v-32h-57v-28h86v60h56v28zM284 376h-28v-56h-114v-29h142v85zM284 272h-85v-48h29v20h28v-40h-85v68
h-29v-97h142v97zM284 124h-142v-96h142v96zM256 96v-40h-85v40h85zM284 8h-142v-28h60l-60 -40v-28h142v28h-87l60 40h27v28z" />
    <glyph glyph-name="f_f" unicode="ff" horiz-adv-x="448" 
d="M415 646c-39 0 -58 -18 -58 -73v-62h80v-58h-80v-453h-79v453h-55v-3h-80v-450h-79v450h-59v61h59v56c0 84 47 128 130 128c13 0 30 -2 40 -4v-68c-11 2 -25 3 -33 3c-39 0 -58 -19 -58 -73v-42h135v76c0 85 47 129 130 129c11 0 30 -3 40 -5v-68c-11 2 -25 3 -33 3z" />
    <glyph glyph-name="f_f_i" unicode="ffi" horiz-adv-x="600" 
d="M553 511v-511h-80v450h-121v-450h-79v450h-130v-450h-79v450h-59v61h59v56c0 84 47 128 130 128c13 0 30 -2 40 -4v-68c-11 2 -25 3 -33 3c-39 0 -58 -19 -58 -73v-42h130v48c0 109 60 157 157 157c22 0 47 -3 73 -9v-67c-23 4 -44 6 -61 6c-61 0 -90 -24 -90 -91v-44
h201z" />
    <glyph glyph-name="f_f_l" unicode="ffl" horiz-adv-x="612" 
d="M484 706h80v-706h-80v450h-128v-450h-79v450h-134v-450h-79v450h-59v61h59v56c0 84 47 128 130 128c13 0 30 -2 40 -4v-68c-11 2 -25 3 -33 3c-39 0 -58 -19 -58 -73v-42h134v76c0 85 47 129 130 129c11 0 30 -3 40 -5v-68c-11 2 -25 3 -33 3c-39 0 -58 -18 -58 -73v-62
h128v195z" />
    <glyph glyph-name="fi" unicode="fi" horiz-adv-x="391" 
d="M344 511v-511h-80v450h-121v-450h-79v450h-59v61h59v48c0 109 60 157 157 157c22 0 47 -3 73 -9v-67c-23 4 -44 6 -61 6c-61 0 -90 -24 -90 -91v-44h201z" />
    <glyph glyph-name="fl" unicode="fl" horiz-adv-x="398" 
d="M271 706h80v-706h-80v450h-128v-450h-79v450h-59v61h59v76c0 85 47 129 130 129c11 0 30 -3 40 -5v-68c-11 2 -25 3 -33 3c-39 0 -58 -18 -58 -73v-62h128v195z" />
    <glyph glyph-name=".notdef" horiz-adv-x="427" 
d="M350 706v-853h-271v853h271zM284 649h-141v-28h56v-32h-57v-28h142v28h-56v32h56v28zM228 539h-86v-89h142v29h-56v60zM199 510v-31h-28v31h28zM284 427h-142v-28h57v-32h-57v-28h86v60h56v28zM284 376h-28v-56h-114v-29h142v85zM284 272h-85v-48h29v20h28v-40h-85v68
h-29v-97h142v97zM284 124h-142v-96h142v96zM256 96v-40h-85v40h85zM284 8h-142v-28h60l-60 -40v-28h142v28h-87l60 40h27v28z" />
    <glyph glyph-name="A" unicode="A" horiz-adv-x="400" 
d="M295 0l-27 171h-139l-26 -171h-88l131 706h106l133 -706h-90zM141 248h115l-28 180l-27 227l-32 -227z" />
    <glyph glyph-name="Aacute" unicode="&#xc1;" horiz-adv-x="400" 
d="M305 852l-90 -100h-68l63 100h95zM295 0l-27 171h-139l-26 -171h-88l131 706h106l133 -706h-90zM141 248h115l-28 180l-27 227l-32 -227z" />
    <glyph glyph-name="Abreve" unicode="&#x102;" horiz-adv-x="400" 
d="M199 747c-79 0 -102 39 -114 105l50 9c9 -37 18 -59 64 -59s55 22 64 59l50 -9c-12 -66 -35 -105 -114 -105zM295 0l-27 171h-139l-26 -171h-88l131 706h106l133 -706h-90zM141 248h115l-28 180l-27 227l-32 -227z" />
    <glyph glyph-name="Acircumflex" unicode="&#xc2;" horiz-adv-x="400" 
d="M199 800l-58 -50h-66l97 102h55l96 -102h-66zM295 0l-27 171h-139l-26 -171h-88l131 706h106l133 -706h-90zM141 248h115l-28 180l-27 227l-32 -227z" />
    <glyph glyph-name="Adieresis" unicode="&#xc4;" horiz-adv-x="400" 
d="M160 840v-91h-73v91h73zM311 840v-91h-73v91h73zM295 0l-27 171h-139l-26 -171h-88l131 706h106l133 -706h-90zM141 248h115l-28 180l-27 227l-32 -227z" />
    <glyph glyph-name="Agrave" unicode="&#xc0;" horiz-adv-x="400" 
d="M257 752h-68l-90 100h95zM295 0l-27 171h-139l-26 -171h-88l131 706h106l133 -706h-90zM141 248h115l-28 180l-27 227l-32 -227z" />
    <glyph glyph-name="Amacron" unicode="&#x100;" horiz-adv-x="400" 
d="M307 823v-63h-216v63h216zM295 0l-27 171h-139l-26 -171h-88l131 706h106l133 -706h-90zM141 248h115l-28 180l-27 227l-32 -227z" />
    <glyph glyph-name="Aogonek" unicode="&#x104;" horiz-adv-x="400" 
d="M377 -96h18v-63h-45c-50 0 -80 22 -80 66v6c0 38 23 64 45 87h-20l-27 171h-139l-26 -171h-88l131 706h106l133 -706h-12c-22 -25 -33 -48 -33 -64v-4c0 -21 11 -28 37 -28zM141 248h115l-28 180l-27 227l-32 -227z" />
    <glyph glyph-name="Aring" unicode="&#xc5;" horiz-adv-x="400" 
d="M199 741c-46 0 -80 32 -80 75c0 40 34 72 80 72c45 0 79 -32 79 -72c0 -43 -34 -75 -79 -75zM199 856c-25 0 -44 -17 -44 -40c0 -25 19 -43 44 -43c24 0 42 18 42 43c0 23 -18 40 -42 40zM295 0l-27 171h-139l-26 -171h-88l131 706h106l133 -706h-90zM141 248h115
l-28 180l-27 227l-32 -227z" />
    <glyph glyph-name="Aringacute" unicode="&#x1fa;" horiz-adv-x="400" 
d="M295 0l-27 171h-139l-26 -171h-88l131 706h16c-24 13 -39 36 -39 65c0 18 7 34 18 47l56 88h95l-61 -68c30 -10 51 -36 51 -67c0 -29 -15 -52 -38 -65h8l133 -706h-90zM181 806c-13 -7 -22 -19 -22 -35c0 -25 19 -43 44 -43c24 0 42 18 42 43c0 22 -16 38 -39 40l-4 -5
h-21zM141 248h115l-28 180l-27 227l-32 -227z" />
    <glyph glyph-name="Atilde" unicode="&#xc3;" horiz-adv-x="400" 
d="M143 785c-22 0 -29 -20 -30 -38h-46c0 61 18 103 71 103c22 0 45 -10 65 -19c21 -9 40 -19 55 -19c22 0 28 19 29 38h45c-1 -64 -22 -103 -66 -103c-20 0 -46 11 -71 21c-21 9 -40 17 -52 17zM295 0l-27 171h-139l-26 -171h-88l131 706h106l133 -706h-90zM141 248h115
l-28 180l-27 227l-32 -227z" />
    <glyph glyph-name="AE" unicode="&#xc6;" horiz-adv-x="570" 
d="M338 80h212v-80h-298v276h-96l-52 -276h-89l155 706h375v-80h-207v-258h184v-79h-184v-209zM171 353h81v273h-30z" />
    <glyph glyph-name="AEacute" unicode="&#x1fc;" horiz-adv-x="570" 
d="M455 852l-90 -100h-68l63 100h95zM338 80h212v-80h-298v276h-96l-52 -276h-89l155 706h375v-80h-207v-258h184v-79h-184v-209zM171 353h81v273h-30z" />
    <glyph glyph-name="B" unicode="B" horiz-adv-x="415" 
d="M53 0v706h169c99 0 149 -45 149 -136v-66c0 -76 -33 -120 -99 -130v-2c73 -9 105 -48 105 -126v-91c0 -112 -44 -155 -161 -155h-163zM139 405h66c57 0 79 26 79 88v68c0 47 -25 72 -73 72h-72v-228zM139 73h66c63 0 87 26 87 91v82c0 62 -29 87 -100 87h-53v-260z" />
    <glyph glyph-name="C" unicode="C" horiz-adv-x="415" 
d="M212 -10c-113 0 -166 53 -166 165v389c0 114 55 172 165 172c108 0 162 -58 162 -172v-105h-86v106c0 65 -26 98 -76 98c-51 0 -78 -34 -78 -100v-379c0 -70 24 -101 78 -101c52 0 76 31 76 99v103h86v-110c0 -111 -53 -165 -161 -165z" />
    <glyph glyph-name="Cacute" unicode="&#x106;" horiz-adv-x="415" 
d="M159 752l63 100h95l-90 -100h-68zM212 -10c-113 0 -166 53 -166 165v389c0 114 55 172 165 172c108 0 162 -58 162 -172v-105h-86v106c0 65 -26 98 -76 98c-51 0 -78 -34 -78 -100v-379c0 -70 24 -101 78 -101c52 0 76 31 76 99v103h86v-110c0 -111 -53 -165 -161 -165z
" />
    <glyph glyph-name="Ccaron" unicode="&#x10c;" horiz-adv-x="415" 
d="M239 751h-55l-97 102h66l58 -50l58 50h66zM373 439h-86v106c0 65 -26 98 -76 98c-51 0 -78 -34 -78 -100v-379c0 -70 24 -101 78 -101c52 0 76 31 76 99v103h86v-110c0 -111 -53 -165 -161 -165c-113 0 -166 53 -166 165v389c0 114 55 172 165 172
c108 0 162 -58 162 -172v-105z" />
    <glyph glyph-name="Ccedilla" unicode="&#xc7;" horiz-adv-x="415" 
d="M373 439h-86v106c0 65 -26 98 -76 98c-51 0 -78 -34 -78 -100v-379c0 -70 24 -101 78 -101c52 0 76 31 76 99v103h86v-110c0 -108 -50 -162 -153 -165v-20c43 -3 72 -25 72 -64c0 -42 -36 -65 -96 -65c-16 0 -33 2 -54 7v38c14 -4 26 -5 37 -5c26 0 39 10 39 27
c0 21 -16 28 -42 30v54c-88 11 -130 64 -130 163v389c0 114 55 172 165 172c108 0 162 -58 162 -172v-105z" />
    <glyph glyph-name="Cdotaccent" unicode="&#x10a;" horiz-adv-x="415" 
d="M171 747v99h80v-99h-80zM212 -10c-113 0 -166 53 -166 165v389c0 114 55 172 165 172c108 0 162 -58 162 -172v-105h-86v106c0 65 -26 98 -76 98c-51 0 -78 -34 -78 -100v-379c0 -70 24 -101 78 -101c52 0 76 31 76 99v103h86v-110c0 -111 -53 -165 -161 -165z" />
    <glyph glyph-name="D" unicode="D" horiz-adv-x="431" 
d="M53 0v706h130c142 0 202 -65 202 -223v-263c0 -156 -58 -220 -201 -220h-131zM139 72h46c82 0 113 43 113 151v259c0 110 -31 152 -115 152h-44v-562z" />
    <glyph glyph-name="Eth" unicode="&#xd0;" horiz-adv-x="442" 
d="M194 706c142 0 202 -65 202 -223v-263c0 -156 -58 -220 -201 -220h-131v330h-58v65h58v311h130zM309 223v259c0 110 -31 152 -115 152h-44v-239h62v-65h-62v-258h46c82 0 113 43 113 151z" />
    <glyph glyph-name="Dcaron" unicode="&#x10e;" horiz-adv-x="431" 
d="M223 751h-55l-97 102h66l58 -50l58 50h66zM183 706c142 0 202 -65 202 -223v-263c0 -156 -58 -220 -201 -220h-131v706h130zM298 223v259c0 110 -31 152 -115 152h-44v-562h46c82 0 113 43 113 151z" />
    <glyph glyph-name="Dcroat" unicode="&#x110;" horiz-adv-x="442" 
d="M194 706c142 0 202 -65 202 -223v-263c0 -156 -58 -220 -201 -220h-131v330h-58v65h58v311h130zM309 223v259c0 110 -31 152 -115 152h-44v-239h62v-65h-62v-258h46c82 0 113 43 113 151z" />
    <glyph glyph-name="E" unicode="E" horiz-adv-x="371" 
d="M53 0v706h293v-80h-207v-222h184v-80h-184v-244h212v-80h-298z" />
    <glyph glyph-name="Eacute" unicode="&#xc9;" horiz-adv-x="371" 
d="M151 752l63 100h95l-90 -100h-68zM53 0v706h293v-80h-207v-222h184v-80h-184v-244h212v-80h-298z" />
    <glyph glyph-name="Ecaron" unicode="&#x11a;" horiz-adv-x="371" 
d="M231 751h-55l-97 102h66l58 -50l58 50h66zM139 80h212v-80h-298v706h293v-80h-207v-222h184v-80h-184v-244z" />
    <glyph glyph-name="Ecircumflex" unicode="&#xca;" horiz-adv-x="371" 
d="M203 800l-58 -50h-66l97 102h55l96 -102h-66zM139 80h212v-80h-298v706h293v-80h-207v-222h184v-80h-184v-244z" />
    <glyph glyph-name="Edieresis" unicode="&#xcb;" horiz-adv-x="371" 
d="M91 749v91h73v-91h-73zM242 749v91h73v-91h-73zM53 0v706h293v-80h-207v-222h184v-80h-184v-244h212v-80h-298z" />
    <glyph glyph-name="Edotaccent" unicode="&#x116;" horiz-adv-x="371" 
d="M163 747v99h80v-99h-80zM53 0v706h293v-80h-207v-222h184v-80h-184v-244h212v-80h-298z" />
    <glyph glyph-name="Egrave" unicode="&#xc8;" horiz-adv-x="371" 
d="M261 752h-68l-90 100h95zM53 0v706h293v-80h-207v-222h184v-80h-184v-244h212v-80h-298z" />
    <glyph glyph-name="Emacron" unicode="&#x112;" horiz-adv-x="371" 
d="M95 760v63h216v-63h-216zM53 0v706h293v-80h-207v-222h184v-80h-184v-244h212v-80h-298z" />
    <glyph glyph-name="Eogonek" unicode="&#x118;" horiz-adv-x="371" 
d="M347 -96h18v-63h-45c-50 0 -80 22 -80 66v6c0 38 23 64 45 87h-232v706h293v-80h-207v-222h184v-80h-184v-244h212v-80h-8c-22 -25 -33 -48 -33 -64v-4c0 -21 11 -28 37 -28z" />
    <glyph glyph-name="F" unicode="F" horiz-adv-x="352" 
d="M53 0v706h285v-80h-199v-222h176v-80h-176v-324h-86z" />
    <glyph glyph-name="G" unicode="G" horiz-adv-x="431" 
d="M203 370h179v-373h-74v95c-14 -68 -55 -100 -125 -100c-92 0 -137 52 -137 164v388c0 114 57 172 168 172c110 0 166 -58 166 -172v-84h-86v85c0 65 -28 98 -80 98c-53 0 -81 -34 -81 -100v-379c0 -71 24 -101 81 -101s83 32 83 99v134h-94v74z" />
    <glyph glyph-name="Gbreve" unicode="&#x11e;" horiz-adv-x="431" 
d="M215 747c-79 0 -102 39 -114 105l50 9c9 -37 18 -59 64 -59s55 22 64 59l50 -9c-12 -66 -35 -105 -114 -105zM203 370h179v-373h-74v95c-14 -68 -55 -100 -125 -100c-92 0 -137 52 -137 164v388c0 114 57 172 168 172c110 0 166 -58 166 -172v-84h-86v85
c0 65 -28 98 -80 98c-53 0 -81 -34 -81 -100v-379c0 -71 24 -101 81 -101s83 32 83 99v134h-94v74z" />
    <glyph glyph-name="Gcommaaccent" unicode="&#x122;" horiz-adv-x="431" 
d="M203 370h179v-373h-74v95c-14 -68 -55 -100 -125 -100c-92 0 -137 52 -137 164v388c0 114 57 172 168 172c110 0 166 -58 166 -172v-84h-86v85c0 65 -28 98 -80 98c-53 0 -81 -34 -81 -100v-379c0 -71 24 -101 81 -101s83 32 83 99v134h-94v74zM164 -104v68h93v-54
c0 -40 -16 -63 -45 -84l-28 27c12 12 17 23 17 35v8h-37z" />
    <glyph glyph-name="Gdotaccent" unicode="&#x120;" horiz-adv-x="431" 
d="M255 846v-99h-80v99h80zM203 370h179v-373h-74v95c-14 -68 -55 -100 -125 -100c-92 0 -137 52 -137 164v388c0 114 57 172 168 172c110 0 166 -58 166 -172v-84h-86v85c0 65 -28 98 -80 98c-53 0 -81 -34 -81 -100v-379c0 -71 24 -101 81 -101s83 32 83 99v134h-94v74z
" />
    <glyph glyph-name="H" unicode="H" horiz-adv-x="431" 
d="M53 0v706h86v-299h153v299h87v-706h-87v327h-153v-327h-86z" />
    <glyph glyph-name="Hbar" unicode="&#x126;" horiz-adv-x="449" 
d="M440 589v-65h-52v-524h-87v327h-153v-327h-86v524h-53v65h53v117h86v-117h153v117h87v-117h52zM301 407v117h-153v-117h153z" />
    <glyph glyph-name="Hcircumflex" unicode="&#x124;" horiz-adv-x="431" 
d="M211 800l-58 -50h-66l97 102h55l96 -102h-66zM292 706h87v-706h-87v327h-153v-327h-86v706h86v-299h153v299z" />
    <glyph glyph-name="I" unicode="I" horiz-adv-x="192" 
d="M53 0v706h86v-706h-86z" />
    <glyph glyph-name="Iacute" unicode="&#xcd;" horiz-adv-x="192" 
d="M43 752l63 100h95l-90 -100h-68zM53 0v706h86v-706h-86z" />
    <glyph glyph-name="Icircumflex" unicode="&#xce;" horiz-adv-x="192" 
d="M123 852l96 -102h-66l-58 50l-58 -50h-66l97 102h55zM53 0v706h86v-706h-86z" />
    <glyph glyph-name="Idieresis" unicode="&#xcf;" horiz-adv-x="192" 
d="M-17 749v91h73v-91h-73zM134 749v91h73v-91h-73zM53 0v706h86v-706h-86z" />
    <glyph glyph-name="Idotaccent" unicode="&#x130;" horiz-adv-x="192" 
d="M55 747v99h80v-99h-80zM53 0v706h86v-706h-86z" />
    <glyph glyph-name="Igrave" unicode="&#xcc;" horiz-adv-x="192" 
d="M153 752h-68l-90 100h95zM53 0v706h86v-706h-86z" />
    <glyph glyph-name="Imacron" unicode="&#x12a;" horiz-adv-x="192" 
d="M-13 760v63h216v-63h-216zM53 0v706h86v-706h-86z" />
    <glyph glyph-name="Iogonek" unicode="&#x12e;" horiz-adv-x="192" 
d="M131 -96h18v-63h-45c-50 0 -80 22 -80 66v6c0 38 23 64 45 87h-16v706h86v-706h-12c-22 -25 -33 -48 -33 -64v-4c0 -21 11 -28 37 -28z" />
    <glyph glyph-name="J" unicode="J" horiz-adv-x="364" 
d="M166 -10c-98 0 -144 49 -144 157c0 24 1 48 3 72l84 10c-2 -25 -3 -49 -3 -73c0 -66 17 -93 61 -93c43 0 61 27 61 95v548h87v-552c0 -113 -46 -164 -149 -164z" />
    <glyph glyph-name="Jcircumflex" unicode="&#x134;" horiz-adv-x="364" 
d="M299 852l96 -102h-66l-58 50l-58 -50h-66l97 102h55zM228 158v548h87v-552c0 -113 -46 -164 -149 -164c-98 0 -144 49 -144 157c0 24 1 48 3 72l84 10c-2 -25 -3 -49 -3 -73c0 -66 17 -93 61 -93c43 0 61 27 61 95z" />
    <glyph glyph-name="K" unicode="K" horiz-adv-x="403" 
d="M300 0l-117 352l-44 -83v-269h-86v706h86v-323l159 323h93l-153 -276l154 -430h-92z" />
    <glyph glyph-name="Kcommaaccent" unicode="&#x136;" horiz-adv-x="403" 
d="M238 430l154 -430h-92l-117 352l-44 -83v-269h-86v706h86v-323l159 323h93zM161 -104v68h93v-54c0 -40 -16 -63 -45 -84l-28 27c12 12 17 23 17 35v8h-37z" />
    <glyph glyph-name="L" unicode="L" horiz-adv-x="341" 
d="M53 0v706h86v-626h188v-80h-274z" />
    <glyph glyph-name="Lacute" unicode="&#x139;" horiz-adv-x="341" 
d="M45 752l63 100h95l-90 -100h-68zM53 0v706h86v-626h188v-80h-274z" />
    <glyph glyph-name="Lcaron" unicode="&#x13d;" horiz-adv-x="341" 
d="M53 0v706h86v-626h188v-80h-274zM203 563v143h94l-29 -143h-65z" />
    <glyph glyph-name="Lcommaaccent" unicode="&#x13b;" horiz-adv-x="341" 
d="M53 0v706h86v-626h188v-80h-274zM192 -174l-28 27c12 12 17 23 17 35v8h-37v68h93v-54c0 -40 -16 -63 -45 -84z" />
    <glyph glyph-name="Lslash" unicode="&#x141;" horiz-adv-x="344" 
d="M142 80h188v-80h-274v304l-44 -30v74l44 30v328h86v-279l87 59v-73l-87 -60v-273z" />
    <glyph glyph-name="M" unicode="M" horiz-adv-x="578" 
d="M394 706h131v-706h-82l2 131l8 544l-1 -9l-130 -666h-72l-127 675l-1 -2l13 -538v-135h-82v706h134l102 -561z" />
    <glyph glyph-name="N" unicode="N" horiz-adv-x="439" 
d="M310 706h76v-706h-107l-160 618l11 -618h-77v706h110l159 -603z" />
    <glyph glyph-name="Nacute" unicode="&#x143;" horiz-adv-x="439" 
d="M326 852l-90 -100h-68l63 100h95zM310 706h76v-706h-107l-160 618l11 -618h-77v706h110l159 -603z" />
    <glyph glyph-name="Ncaron" unicode="&#x147;" horiz-adv-x="439" 
d="M248 751h-55l-97 102h66l58 -50l58 50h66zM310 706h76v-706h-107l-160 618l11 -618h-77v706h110l159 -603z" />
    <glyph glyph-name="Ncommaaccent" unicode="&#x145;" horiz-adv-x="439" 
d="M310 706h76v-706h-107l-160 618l11 -618h-77v706h110l159 -603zM167 -104v68h93v-54c0 -40 -16 -63 -45 -84l-28 27c12 12 17 23 17 35v8h-37z" />
    <glyph glyph-name="Eng" unicode="&#x14a;" horiz-adv-x="439" 
d="M310 706h76v-744c0 -82 -33 -121 -105 -121c-12 0 -26 1 -37 3v68c7 0 12 -1 15 -1c39 0 50 19 50 69v27l-189 599l10 -606h-77v706h103l164 -526z" />
    <glyph glyph-name="Ntilde" unicode="&#xd1;" horiz-adv-x="439" 
d="M164 785c-22 0 -29 -20 -30 -38h-46c0 61 18 103 71 103c22 0 45 -10 65 -19c21 -9 40 -19 55 -19c22 0 28 19 29 38h45c-1 -64 -22 -103 -66 -103c-20 0 -46 11 -71 21c-21 9 -40 17 -52 17zM310 706h76v-706h-107l-160 618l11 -618h-77v706h110l159 -603z" />
    <glyph glyph-name="O" unicode="O" horiz-adv-x="427" 
d="M216 -10c-114 0 -170 55 -170 167v387c0 112 59 172 169 172c109 0 166 -59 166 -172v-387c0 -113 -54 -167 -165 -167zM215 63c55 0 80 31 80 99v383c0 66 -27 98 -80 98c-54 0 -82 -34 -82 -100v-379c0 -70 25 -101 82 -101z" />
    <glyph glyph-name="Oacute" unicode="&#xd3;" horiz-adv-x="427" 
d="M163 752l63 100h95l-90 -100h-68zM216 -10c-114 0 -170 55 -170 167v387c0 112 59 172 169 172c109 0 166 -59 166 -172v-387c0 -113 -54 -167 -165 -167zM215 63c55 0 80 31 80 99v383c0 66 -27 98 -80 98c-54 0 -82 -34 -82 -100v-379c0 -70 25 -101 82 -101z" />
    <glyph glyph-name="Ocircumflex" unicode="&#xd4;" horiz-adv-x="427" 
d="M215 800l-58 -50h-66l97 102h55l96 -102h-66zM215 716c109 0 166 -59 166 -172v-387c0 -113 -54 -167 -165 -167c-114 0 -170 55 -170 167v387c0 112 59 172 169 172zM295 162v383c0 66 -27 98 -80 98c-54 0 -82 -34 -82 -100v-379c0 -70 25 -101 82 -101
c55 0 80 31 80 99z" />
    <glyph glyph-name="Odieresis" unicode="&#xd6;" horiz-adv-x="427" 
d="M103 749v91h73v-91h-73zM254 749v91h73v-91h-73zM216 -10c-114 0 -170 55 -170 167v387c0 112 59 172 169 172c109 0 166 -59 166 -172v-387c0 -113 -54 -167 -165 -167zM215 63c55 0 80 31 80 99v383c0 66 -27 98 -80 98c-54 0 -82 -34 -82 -100v-379
c0 -70 25 -101 82 -101z" />
    <glyph glyph-name="Ograve" unicode="&#xd2;" horiz-adv-x="427" 
d="M273 752h-68l-90 100h95zM216 -10c-114 0 -170 55 -170 167v387c0 112 59 172 169 172c109 0 166 -59 166 -172v-387c0 -113 -54 -167 -165 -167zM215 63c55 0 80 31 80 99v383c0 66 -27 98 -80 98c-54 0 -82 -34 -82 -100v-379c0 -70 25 -101 82 -101z" />
    <glyph glyph-name="Ohungarumlaut" unicode="&#x150;" horiz-adv-x="427" 
d="M112 752l63 100h95l-90 -100h-68zM247 752l63 100h95l-90 -100h-68zM216 -10c-114 0 -170 55 -170 167v387c0 112 59 172 169 172c109 0 166 -59 166 -172v-387c0 -113 -54 -167 -165 -167zM215 63c55 0 80 31 80 99v383c0 66 -27 98 -80 98c-54 0 -82 -34 -82 -100v-379
c0 -70 25 -101 82 -101z" />
    <glyph glyph-name="Omacron" unicode="&#x14c;" horiz-adv-x="427" 
d="M107 760v63h216v-63h-216zM216 -10c-114 0 -170 55 -170 167v387c0 112 59 172 169 172c109 0 166 -59 166 -172v-387c0 -113 -54 -167 -165 -167zM215 63c55 0 80 31 80 99v383c0 66 -27 98 -80 98c-54 0 -82 -34 -82 -100v-379c0 -70 25 -101 82 -101z" />
    <glyph glyph-name="Oslash" unicode="&#xd8;" horiz-adv-x="428" 
d="M324 686c38 -28 58 -76 58 -142v-387c0 -113 -54 -167 -166 -167c-28 0 -52 3 -73 10l-27 -97l-50 13l30 109c-33 27 -49 71 -49 132v387c0 112 58 172 168 172c23 0 44 -3 62 -8l26 92l48 -11zM130 545v-384c0 -11 1 -21 2 -30l124 509c-11 5 -25 8 -41 8
c-56 0 -85 -34 -85 -103zM298 160v388c0 14 -1 27 -4 38l-125 -517c12 -7 27 -10 46 -10c58 0 83 30 83 101z" />
    <glyph glyph-name="Oslashacute" unicode="&#x1fe;" horiz-adv-x="428" 
d="M321 852l-90 -100h-68l63 100h95zM324 686c38 -28 58 -76 58 -142v-387c0 -113 -54 -167 -166 -167c-28 0 -52 3 -73 10l-27 -97l-50 13l30 109c-33 27 -49 71 -49 132v387c0 112 58 172 168 172c23 0 44 -3 62 -8l26 92l48 -11zM130 545v-384c0 -11 1 -21 2 -30l124 509
c-11 5 -25 8 -41 8c-56 0 -85 -34 -85 -103zM298 160v388c0 14 -1 27 -4 38l-125 -517c12 -7 27 -10 46 -10c58 0 83 30 83 101z" />
    <glyph glyph-name="Otilde" unicode="&#xd5;" horiz-adv-x="427" 
d="M83 747c0 61 18 103 71 103c22 0 45 -10 65 -19c21 -9 40 -19 55 -19c22 0 28 19 29 38h45c-1 -64 -22 -103 -66 -103c-20 0 -46 11 -71 21c-21 9 -40 17 -52 17c-22 0 -29 -20 -30 -38h-46zM216 -10c-114 0 -170 55 -170 167v387c0 112 59 172 169 172
c109 0 166 -59 166 -172v-387c0 -113 -54 -167 -165 -167zM215 63c55 0 80 31 80 99v383c0 66 -27 98 -80 98c-54 0 -82 -34 -82 -100v-379c0 -70 25 -101 82 -101z" />
    <glyph glyph-name="OE" unicode="&#x152;" horiz-adv-x="613" 
d="M381 80h212v-80h-283v67c-18 -53 -58 -77 -123 -77c-96 0 -141 53 -141 165v389c0 114 48 172 140 172c65 0 105 -27 124 -83v73h278v-80h-207v-222h184v-80h-184v-244zM295 162v383c0 66 -27 98 -80 98c-54 0 -82 -34 -82 -100v-379c0 -70 25 -101 82 -101
c55 0 80 31 80 99z" />
    <glyph glyph-name="P" unicode="P" horiz-adv-x="405" 
d="M53 0v706h170c103 0 152 -47 152 -146v-105c0 -109 -57 -167 -164 -167h-72v-288h-86zM139 361h66c57 0 84 30 84 92v104c0 50 -27 76 -77 76h-73v-272z" />
    <glyph glyph-name="Thorn" unicode="&#xde;" horiz-adv-x="405" 
d="M53 0v706h86v-135h84c103 0 152 -46 152 -145v-103c0 -109 -57 -166 -164 -166h-72v-157h-86zM139 229h66c57 0 84 30 84 92v102c0 49 -27 76 -77 76h-73v-270z" />
    <glyph glyph-name="Q" unicode="Q" horiz-adv-x="427" 
d="M420 -37l-56 -62l-105 92c-13 -2 -28 -3 -43 -3c-114 0 -170 55 -170 167v387c0 112 59 172 169 172c109 0 166 -59 166 -172v-387c0 -57 -14 -100 -42 -127zM215 63c55 0 80 31 80 99v383c0 66 -27 98 -80 98c-54 0 -82 -34 -82 -100v-379c0 -70 25 -101 82 -101z" />
    <glyph glyph-name="R" unicode="R" horiz-adv-x="402" 
d="M381 0h-93l-96 307h-53v-307h-86v706h166c100 0 148 -46 148 -142v-100c0 -79 -32 -130 -94 -149zM139 633v-258h63c53 0 79 29 79 88v98c0 47 -25 72 -73 72h-69z" />
    <glyph glyph-name="Racute" unicode="&#x154;" horiz-adv-x="402" 
d="M296 852l-90 -100h-68l63 100h95zM381 0h-93l-96 307h-53v-307h-86v706h166c100 0 148 -46 148 -142v-100c0 -79 -32 -130 -94 -149zM139 633v-258h63c53 0 79 29 79 88v98c0 47 -25 72 -73 72h-69z" />
    <glyph glyph-name="Rcaron" unicode="&#x158;" horiz-adv-x="402" 
d="M218 751h-55l-97 102h66l58 -50l58 50h66zM381 0h-93l-96 307h-53v-307h-86v706h166c100 0 148 -46 148 -142v-100c0 -79 -32 -130 -94 -149zM139 633v-258h63c53 0 79 29 79 88v98c0 47 -25 72 -73 72h-69z" />
    <glyph glyph-name="Rcommaaccent" unicode="&#x156;" horiz-adv-x="402" 
d="M273 315l108 -315h-93l-96 307h-53v-307h-86v706h166c100 0 148 -46 148 -142v-100c0 -79 -32 -130 -94 -149zM139 633v-258h63c53 0 79 29 79 88v98c0 47 -25 72 -73 72h-69zM160 -104v68h93v-54c0 -40 -16 -63 -45 -84l-28 27c12 12 17 23 17 35v8h-37z" />
    <glyph glyph-name="S" unicode="S" horiz-adv-x="403" 
d="M205 -10c-106 0 -167 50 -167 161v89h85v-77c0 -73 22 -102 83 -102c54 0 77 32 77 106c0 36 -5 58 -18 77c-14 24 -40 48 -101 99c-93 81 -115 121 -115 201c0 120 58 172 160 172c104 0 150 -58 150 -156v-62h-85v57c0 63 -20 90 -68 90s-72 -26 -72 -87
c0 -34 3 -55 14 -75c14 -25 40 -47 108 -105c87 -80 111 -118 111 -212c0 -116 -43 -176 -162 -176z" />
    <glyph glyph-name="Sacute" unicode="&#x15a;" horiz-adv-x="403" 
d="M157 752l63 100h95l-90 -100h-68zM205 -10c-106 0 -167 50 -167 161v89h85v-77c0 -73 22 -102 83 -102c54 0 77 32 77 106c0 36 -5 58 -18 77c-14 24 -40 48 -101 99c-93 81 -115 121 -115 201c0 120 58 172 160 172c104 0 150 -58 150 -156v-62h-85v57
c0 63 -20 90 -68 90s-72 -26 -72 -87c0 -34 3 -55 14 -75c14 -25 40 -47 108 -105c87 -80 111 -118 111 -212c0 -116 -43 -176 -162 -176z" />
    <glyph glyph-name="Scaron" unicode="&#x160;" horiz-adv-x="403" 
d="M237 751h-55l-97 102h66l58 -50l58 50h66zM256 378c87 -80 111 -118 111 -212c0 -116 -43 -176 -162 -176c-106 0 -167 50 -167 161v89h85v-77c0 -73 22 -102 83 -102c54 0 77 32 77 106c0 36 -5 58 -18 77c-14 24 -40 48 -101 99c-93 81 -115 121 -115 201
c0 120 58 172 160 172c104 0 150 -58 150 -156v-62h-85v57c0 63 -20 90 -68 90s-72 -26 -72 -87c0 -34 3 -55 14 -75c14 -25 40 -47 108 -105z" />
    <glyph glyph-name="Scedilla" unicode="&#x15e;" horiz-adv-x="403" 
d="M367 166c0 -110 -39 -170 -145 -176v-20c43 -3 72 -25 72 -64c0 -42 -36 -65 -96 -65c-16 0 -33 2 -54 7v38c14 -4 26 -5 37 -5c26 0 39 10 39 27c0 21 -16 28 -42 30v53c-89 8 -140 59 -140 160v89h85v-77c0 -73 22 -102 83 -102c54 0 77 32 77 106c0 36 -5 58 -18 77
c-14 24 -40 48 -101 99c-93 81 -115 121 -115 201c0 120 58 172 160 172c104 0 150 -58 150 -156v-62h-85v57c0 63 -20 90 -68 90s-72 -26 -72 -87c0 -34 3 -55 14 -75c14 -25 40 -47 108 -105c87 -80 111 -118 111 -212z" />
    <glyph glyph-name="Scommaaccent" unicode="&#x218;" horiz-adv-x="403" 
d="M205 -10c-106 0 -167 50 -167 161v89h85v-77c0 -73 22 -102 83 -102c54 0 77 32 77 106c0 36 -5 58 -18 77c-14 24 -40 48 -101 99c-93 81 -115 121 -115 201c0 120 58 172 160 172c104 0 150 -58 150 -156v-62h-85v57c0 63 -20 90 -68 90s-72 -26 -72 -87
c0 -34 3 -55 14 -75c14 -25 40 -47 108 -105c87 -80 111 -118 111 -212c0 -116 -43 -176 -162 -176zM208 -174l-28 27c12 12 17 23 17 35v8h-37v68h93v-54c0 -40 -16 -63 -45 -84z" />
    <glyph glyph-name="T" unicode="T" horiz-adv-x="340" 
d="M127 0v626h-121v80h328v-80h-121v-626h-86z" />
    <glyph glyph-name="Tbar" unicode="&#x166;" horiz-adv-x="360" 
d="M344 626h-121v-238h88v-64h-88v-324h-86v324h-87v64h87v238h-121v80h328v-80z" />
    <glyph glyph-name="Tcaron" unicode="&#x164;" horiz-adv-x="340" 
d="M199 751h-55l-97 102h66l58 -50l58 50h66zM6 706h328v-80h-121v-626h-86v626h-121v80z" />
    <glyph glyph-name="uni0162" unicode="&#x162;" horiz-adv-x="340" 
d="M213 0h-23v-30c43 -3 72 -25 72 -64c0 -42 -36 -65 -96 -65c-16 0 -33 2 -54 7v38c14 -4 26 -5 37 -5c26 0 39 10 39 27c0 21 -16 28 -42 30v62h-19v626h-121v80h328v-80h-121v-626z" />
    <glyph glyph-name="uni021A" unicode="&#x21a;" horiz-adv-x="340" 
d="M127 0v626h-121v80h328v-80h-121v-626h-86zM170 -174l-28 27c12 12 17 23 17 35v8h-37v68h93v-54c0 -40 -16 -63 -45 -84z" />
    <glyph glyph-name="U" unicode="U" horiz-adv-x="427" 
d="M212 -8c-105 0 -162 57 -162 164v550h86v-531c0 -77 22 -106 79 -106c56 0 78 28 78 103v534h84v-552c0 -106 -57 -162 -165 -162z" />
    <glyph glyph-name="Uacute" unicode="&#xda;" horiz-adv-x="427" 
d="M158 752l63 100h95l-90 -100h-68zM212 -8c-105 0 -162 57 -162 164v550h86v-531c0 -77 22 -106 79 -106c56 0 78 28 78 103v534h84v-552c0 -106 -57 -162 -165 -162z" />
    <glyph glyph-name="Ucircumflex" unicode="&#xdb;" horiz-adv-x="427" 
d="M210 800l-58 -50h-66l97 102h55l96 -102h-66zM293 706h84v-552c0 -106 -57 -162 -165 -162c-105 0 -162 57 -162 164v550h86v-531c0 -77 22 -106 79 -106c56 0 78 28 78 103v534z" />
    <glyph glyph-name="Udieresis" unicode="&#xdc;" horiz-adv-x="427" 
d="M98 749v91h73v-91h-73zM249 749v91h73v-91h-73zM212 -8c-105 0 -162 57 -162 164v550h86v-531c0 -77 22 -106 79 -106c56 0 78 28 78 103v534h84v-552c0 -106 -57 -162 -165 -162z" />
    <glyph glyph-name="Ugrave" unicode="&#xd9;" horiz-adv-x="427" 
d="M268 752h-68l-90 100h95zM212 -8c-105 0 -162 57 -162 164v550h86v-531c0 -77 22 -106 79 -106c56 0 78 28 78 103v534h84v-552c0 -106 -57 -162 -165 -162z" />
    <glyph glyph-name="Uhungarumlaut" unicode="&#x170;" horiz-adv-x="427" 
d="M107 752l63 100h95l-90 -100h-68zM242 752l63 100h95l-90 -100h-68zM212 -8c-105 0 -162 57 -162 164v550h86v-531c0 -77 22 -106 79 -106c56 0 78 28 78 103v534h84v-552c0 -106 -57 -162 -165 -162z" />
    <glyph glyph-name="Umacron" unicode="&#x16a;" horiz-adv-x="427" 
d="M102 760v63h216v-63h-216zM212 -8c-105 0 -162 57 -162 164v550h86v-531c0 -77 22 -106 79 -106c56 0 78 28 78 103v534h84v-552c0 -106 -57 -162 -165 -162z" />
    <glyph glyph-name="Uogonek" unicode="&#x172;" horiz-adv-x="427" 
d="M277 -159c-51 0 -81 22 -81 66v6c0 34 20 60 40 80c-7 -1 -16 -1 -24 -1c-105 0 -162 57 -162 164v550h86v-531c0 -77 22 -106 79 -106c56 0 78 28 78 103v534h84v-552c0 -62 -18 -97 -50 -129c-29 -29 -61 -49 -61 -89v-4c0 -21 11 -28 37 -28h18v-63h-44z" />
    <glyph glyph-name="Uring" unicode="&#x16e;" horiz-adv-x="427" 
d="M210 741c-46 0 -80 32 -80 75c0 40 34 72 80 72c45 0 79 -32 79 -72c0 -43 -34 -75 -79 -75zM210 773c24 0 42 18 42 43c0 23 -18 40 -42 40c-25 0 -44 -17 -44 -40c0 -25 19 -43 44 -43zM212 -8c-105 0 -162 57 -162 164v550h86v-531c0 -77 22 -106 79 -106
c56 0 78 28 78 103v534h84v-552c0 -106 -57 -162 -165 -162z" />
    <glyph glyph-name="V" unicode="V" horiz-adv-x="362" 
d="M266 706h90l-134 -706h-85l-131 706h92l57 -377l26 -226l26 226z" />
    <glyph glyph-name="W" unicode="W" horiz-adv-x="617" 
d="M520 706h87l-121 -706h-91l-64 414l-21 164l-22 -163l-65 -415h-91l-123 706h90l58 -414l24 -188l26 188l61 414h87l65 -420l21 -158l20 157z" />
    <glyph glyph-name="Wacute" unicode="&#x1e82;" horiz-adv-x="617" 
d="M416 852l-90 -100h-68l63 100h95zM520 706h87l-121 -706h-91l-64 414l-21 164l-22 -163l-65 -415h-91l-123 706h90l58 -414l24 -188l26 188l61 414h87l65 -420l21 -158l20 157z" />
    <glyph glyph-name="Wcircumflex" unicode="&#x174;" horiz-adv-x="617" 
d="M310 800l-58 -50h-66l97 102h55l96 -102h-66zM520 706h87l-121 -706h-91l-64 414l-21 164l-22 -163l-65 -415h-91l-123 706h90l58 -414l24 -188l26 188l61 414h87l65 -420l21 -158l20 157z" />
    <glyph glyph-name="Wdieresis" unicode="&#x1e84;" horiz-adv-x="617" 
d="M271 840v-91h-73v91h73zM422 840v-91h-73v91h73zM520 706h87l-121 -706h-91l-64 414l-21 164l-22 -163l-65 -415h-91l-123 706h90l58 -414l24 -188l26 188l61 414h87l65 -420l21 -158l20 157z" />
    <glyph glyph-name="Wgrave" unicode="&#x1e80;" horiz-adv-x="617" 
d="M368 752h-68l-90 100h95zM520 706h87l-121 -706h-91l-64 414l-21 164l-22 -163l-65 -415h-91l-123 706h90l58 -414l24 -188l26 188l61 414h87l65 -420l21 -158l20 157z" />
    <glyph glyph-name="X" unicode="X" horiz-adv-x="402" 
d="M389 0h-98l-91 286l-93 -286h-94l143 364l-133 342h98l81 -258l80 258h93l-126 -336z" />
    <glyph glyph-name="Y" unicode="Y" horiz-adv-x="383" 
d="M376 706l-142 -443v-263h-87v265l-140 441h93l51 -187l42 -167l41 167l53 187h89z" />
    <glyph glyph-name="Yacute" unicode="&#xdd;" horiz-adv-x="383" 
d="M298 852l-90 -100h-68l63 100h95zM376 706l-142 -443v-263h-87v265l-140 441h93l51 -187l42 -167l41 167l53 187h89z" />
    <glyph glyph-name="Ycircumflex" unicode="&#x176;" horiz-adv-x="383" 
d="M192 800l-58 -50h-66l97 102h55l96 -102h-66zM376 706l-142 -443v-263h-87v265l-140 441h93l51 -187l42 -167l41 167l53 187h89z" />
    <glyph glyph-name="Ydieresis" unicode="&#x178;" horiz-adv-x="383" 
d="M153 840v-91h-73v91h73zM304 840v-91h-73v91h73zM376 706l-142 -443v-263h-87v265l-140 441h93l51 -187l42 -167l41 167l53 187h89z" />
    <glyph glyph-name="Ygrave" unicode="&#x1ef2;" horiz-adv-x="383" 
d="M250 752h-68l-90 100h95zM376 706l-142 -443v-263h-87v265l-140 441h93l51 -187l42 -167l41 167l53 187h89z" />
    <glyph glyph-name="Z" unicode="Z" horiz-adv-x="346" 
d="M114 80h213v-80h-308v60l211 566h-204v80h299v-57z" />
    <glyph glyph-name="Zacute" unicode="&#x179;" horiz-adv-x="346" 
d="M279 852l-90 -100h-68l63 100h95zM114 80h213v-80h-308v60l211 566h-204v80h299v-57z" />
    <glyph glyph-name="Zcaron" unicode="&#x17d;" horiz-adv-x="346" 
d="M201 751h-55l-97 102h66l58 -50l58 50h66zM114 80h213v-80h-308v60l211 566h-204v80h299v-57z" />
    <glyph glyph-name="Zdotaccent" unicode="&#x17b;" horiz-adv-x="346" 
d="M213 846v-99h-80v99h80zM114 80h213v-80h-308v60l211 566h-204v80h299v-57z" />
    <glyph glyph-name="a" unicode="a" horiz-adv-x="345" 
d="M326 60c2 0 5 0 7 1v-64c-6 -1 -11 -2 -18 -2c-51 0 -77 26 -83 78h-2c-10 -47 -49 -81 -95 -81c-70 0 -112 39 -112 122v23c0 72 26 108 114 159c67 38 81 53 81 91v14c0 36 -12 58 -52 58c-45 0 -58 -20 -58 -78v-25h-74v24c0 103 42 139 138 139
c84 0 126 -41 126 -115v-310c0 -22 9 -32 28 -34zM153 56c44 0 65 37 65 94v137c-7 -10 -22 -22 -48 -38c-55 -34 -69 -59 -69 -106v-23c0 -41 16 -64 52 -64z" />
    <glyph glyph-name="aacute" unicode="&#xe1;" horiz-adv-x="345" 
d="M290 702l-100 -124h-69l72 124h97zM326 60c2 0 5 0 7 1v-64c-6 -1 -11 -2 -18 -2c-51 0 -77 26 -83 78h-2c-10 -47 -49 -81 -95 -81c-70 0 -112 39 -112 122v23c0 72 26 108 114 159c67 38 81 53 81 91v14c0 36 -12 58 -52 58c-45 0 -58 -20 -58 -78v-25h-74v24
c0 103 42 139 138 139c84 0 126 -41 126 -115v-310c0 -22 9 -32 28 -34zM153 56c44 0 65 37 65 94v137c-7 -10 -22 -22 -48 -38c-55 -34 -69 -59 -69 -106v-23c0 -41 16 -64 52 -64z" />
    <glyph glyph-name="abreve" unicode="&#x103;" horiz-adv-x="345" 
d="M173 569c-75 0 -100 39 -110 112l51 9c8 -41 16 -63 59 -63s51 22 59 63l51 -9c-10 -73 -35 -112 -110 -112zM326 60c2 0 5 0 7 1v-64c-6 -1 -11 -2 -18 -2c-51 0 -77 26 -83 78h-2c-10 -47 -49 -81 -95 -81c-70 0 -112 39 -112 122v23c0 72 26 108 114 159
c67 38 81 53 81 91v14c0 36 -12 58 -52 58c-45 0 -58 -20 -58 -78v-25h-74v24c0 103 42 139 138 139c84 0 126 -41 126 -115v-310c0 -22 9 -32 28 -34zM153 56c44 0 65 37 65 94v137c-7 -10 -22 -22 -48 -38c-55 -34 -69 -59 -69 -106v-23c0 -41 16 -64 52 -64z" />
    <glyph glyph-name="acircumflex" unicode="&#xe2;" horiz-adv-x="345" 
d="M173 636l-49 -60h-66l87 123h57l86 -123h-66zM326 60c2 0 5 0 7 1v-64c-6 -1 -11 -2 -18 -2c-51 0 -77 26 -83 78h-2c-10 -47 -49 -81 -95 -81c-70 0 -112 39 -112 122v23c0 72 26 108 114 159c67 38 81 53 81 91v14c0 36 -12 58 -52 58c-45 0 -58 -20 -58 -78v-25h-74
v24c0 103 42 139 138 139c84 0 126 -41 126 -115v-310c0 -22 9 -32 28 -34zM153 56c44 0 65 37 65 94v137c-7 -10 -22 -22 -48 -38c-55 -34 -69 -59 -69 -106v-23c0 -41 16 -64 52 -64z" />
    <glyph glyph-name="adieresis" unicode="&#xe4;" horiz-adv-x="345" 
d="M134 688v-91h-73v91h73zM285 688v-91h-73v91h73zM326 60c2 0 5 0 7 1v-64c-6 -1 -11 -2 -18 -2c-51 0 -77 26 -83 78h-2c-10 -47 -49 -81 -95 -81c-70 0 -112 39 -112 122v23c0 72 26 108 114 159c67 38 81 53 81 91v14c0 36 -12 58 -52 58c-45 0 -58 -20 -58 -78v-25
h-74v24c0 103 42 139 138 139c84 0 126 -41 126 -115v-310c0 -22 9 -32 28 -34zM153 56c44 0 65 37 65 94v137c-7 -10 -22 -22 -48 -38c-55 -34 -69 -59 -69 -106v-23c0 -41 16 -64 52 -64z" />
    <glyph glyph-name="agrave" unicode="&#xe0;" horiz-adv-x="345" 
d="M228 578h-69l-100 124h97zM326 60c2 0 5 0 7 1v-64c-6 -1 -11 -2 -18 -2c-51 0 -77 26 -83 78h-2c-10 -47 -49 -81 -95 -81c-70 0 -112 39 -112 122v23c0 72 26 108 114 159c67 38 81 53 81 91v14c0 36 -12 58 -52 58c-45 0 -58 -20 -58 -78v-25h-74v24
c0 103 42 139 138 139c84 0 126 -41 126 -115v-310c0 -22 9 -32 28 -34zM153 56c44 0 65 37 65 94v137c-7 -10 -22 -22 -48 -38c-55 -34 -69 -59 -69 -106v-23c0 -41 16 -64 52 -64z" />
    <glyph glyph-name="amacron" unicode="&#x101;" horiz-adv-x="345" 
d="M281 669v-63h-216v63h216zM326 60c2 0 5 0 7 1v-64c-6 -1 -11 -2 -18 -2c-51 0 -77 26 -83 78h-2c-10 -47 -49 -81 -95 -81c-70 0 -112 39 -112 122v23c0 72 26 108 114 159c67 38 81 53 81 91v14c0 36 -12 58 -52 58c-45 0 -58 -20 -58 -78v-25h-74v24
c0 103 42 139 138 139c84 0 126 -41 126 -115v-310c0 -22 9 -32 28 -34zM153 56c44 0 65 37 65 94v137c-7 -10 -22 -22 -48 -38c-55 -34 -69 -59 -69 -106v-23c0 -41 16 -64 52 -64z" />
    <glyph glyph-name="aogonek" unicode="&#x105;" horiz-adv-x="345" 
d="M328 -96h18v-63h-44c-51 0 -81 22 -81 66v6c0 38 24 64 50 91c-22 12 -35 35 -39 69h-2c-10 -47 -49 -81 -95 -81c-70 0 -112 39 -112 122v23c0 72 26 108 114 159c67 38 81 53 81 91v14c0 36 -12 58 -52 58c-45 0 -58 -20 -58 -78v-25h-74v24c0 103 42 139 138 139
c84 0 126 -41 126 -115v-310c0 -22 9 -32 28 -34c2 0 5 0 7 1v-64l-11 -2c-20 -23 -31 -43 -31 -59v-4c0 -21 11 -28 37 -28zM153 56c44 0 65 37 65 94v137c-7 -10 -22 -22 -48 -38c-55 -34 -69 -59 -69 -106v-23c0 -41 16 -64 52 -64z" />
    <glyph glyph-name="aring" unicode="&#xe5;" horiz-adv-x="345" 
d="M173 554c-49 0 -85 36 -85 85c0 48 36 84 85 84c48 0 84 -36 84 -84c0 -49 -36 -85 -84 -85zM173 691c-29 0 -51 -22 -51 -52c0 -31 22 -53 51 -53c28 0 50 22 50 53c0 30 -22 52 -50 52zM326 60c2 0 5 0 7 1v-64c-6 -1 -11 -2 -18 -2c-51 0 -77 26 -83 78h-2
c-10 -47 -49 -81 -95 -81c-70 0 -112 39 -112 122v23c0 72 26 108 114 159c67 38 81 53 81 91v14c0 36 -12 58 -52 58c-45 0 -58 -20 -58 -78v-25h-74v24c0 103 42 139 138 139c84 0 126 -41 126 -115v-310c0 -22 9 -32 28 -34zM153 56c44 0 65 37 65 94v137
c-7 -10 -22 -22 -48 -38c-55 -34 -69 -59 -69 -106v-23c0 -41 16 -64 52 -64z" />
    <glyph glyph-name="aringacute" unicode="&#x1fb;" horiz-adv-x="345" 
d="M173 554c-49 0 -85 36 -85 85c0 18 8 38 16 53l63 108h98l-69 -82c36 -8 61 -40 61 -79c0 -49 -36 -85 -84 -85zM173 691c-29 0 -51 -22 -51 -52c0 -31 22 -53 51 -53c28 0 50 22 50 53c0 30 -22 52 -50 52zM326 60c2 0 5 0 7 1v-64c-6 -1 -11 -2 -18 -2
c-51 0 -77 26 -83 78h-2c-10 -47 -49 -81 -95 -81c-70 0 -112 39 -112 122v23c0 72 26 108 114 159c67 38 81 53 81 91v14c0 36 -12 58 -52 58c-45 0 -58 -20 -58 -78v-25h-74v24c0 103 42 139 138 139c84 0 126 -41 126 -115v-310c0 -22 9 -32 28 -34zM153 56
c44 0 65 37 65 94v137c-7 -10 -22 -22 -48 -38c-55 -34 -69 -59 -69 -106v-23c0 -41 16 -64 52 -64z" />
    <glyph glyph-name="atilde" unicode="&#xe3;" horiz-adv-x="345" 
d="M117 612c-22 0 -29 -20 -30 -38h-46c0 61 18 103 71 103c22 0 45 -10 65 -19c21 -9 40 -19 55 -19c22 0 28 19 29 38h45c-1 -64 -22 -103 -66 -103c-20 0 -46 11 -71 21c-21 9 -40 17 -52 17zM326 60c2 0 5 0 7 1v-64c-6 -1 -11 -2 -18 -2c-51 0 -77 26 -83 78h-2
c-10 -47 -49 -81 -95 -81c-70 0 -112 39 -112 122v23c0 72 26 108 114 159c67 38 81 53 81 91v14c0 36 -12 58 -52 58c-45 0 -58 -20 -58 -78v-25h-74v24c0 103 42 139 138 139c84 0 126 -41 126 -115v-310c0 -22 9 -32 28 -34zM153 56c44 0 65 37 65 94v137
c-7 -10 -22 -22 -48 -38c-55 -34 -69 -59 -69 -106v-23c0 -41 16 -64 52 -64z" />
    <glyph glyph-name="ae" unicode="&#xe6;" horiz-adv-x="528" 
d="M492 238h-194v-109c0 -48 20 -73 59 -73c42 0 57 22 57 81v33h78v-35c0 -98 -39 -143 -123 -143c-73 0 -118 34 -127 93h-7c-9 -56 -50 -93 -100 -93c-73 0 -112 42 -112 122v23c0 72 26 108 114 159c68 39 81 54 81 91v14c0 40 -16 58 -52 58c-44 0 -58 -19 -58 -78v-25
h-74v24c0 102 34 139 128 139c50 0 85 -17 103 -50c20 34 55 50 105 50c84 0 122 -42 122 -136v-145zM358 460c-40 0 -60 -25 -60 -73v-92h117v92c0 50 -19 73 -57 73zM153 56c42 0 65 34 65 94v137c-8 -11 -24 -24 -48 -38c-54 -34 -70 -58 -70 -106v-23
c0 -42 18 -64 53 -64z" />
    <glyph glyph-name="aeacute" unicode="&#x1fd;" horiz-adv-x="528" 
d="M384 702l-100 -124h-69l72 124h97zM492 238h-194v-109c0 -48 20 -73 59 -73c42 0 57 22 57 81v33h78v-35c0 -98 -39 -143 -123 -143c-73 0 -118 34 -127 93h-7c-9 -56 -50 -93 -100 -93c-73 0 -112 42 -112 122v23c0 72 26 108 114 159c68 39 81 54 81 91v14
c0 40 -16 58 -52 58c-44 0 -58 -19 -58 -78v-25h-74v24c0 102 34 139 128 139c50 0 85 -17 103 -50c20 34 55 50 105 50c84 0 122 -42 122 -136v-145zM358 460c-40 0 -60 -25 -60 -73v-92h117v92c0 50 -19 73 -57 73zM153 56c42 0 65 34 65 94v137c-8 -11 -24 -24 -48 -38
c-54 -34 -70 -58 -70 -106v-23c0 -42 18 -64 53 -64z" />
    <glyph glyph-name="b" unicode="b" horiz-adv-x="370" 
d="M226 -8c-46 0 -84 27 -99 70h-1v-62h-79v706h80v-250h1c22 41 56 63 99 63c68 0 104 -46 104 -130v-263c0 -87 -37 -134 -105 -134zM193 53c38 0 59 26 59 72v261c0 47 -21 72 -59 72c-43 0 -66 -34 -66 -94v-209c0 -66 22 -102 66 -102z" />
    <glyph glyph-name="c" unicode="c" horiz-adv-x="341" 
d="M173 -8c-88 0 -134 47 -134 135v256c0 88 48 136 137 136c87 0 129 -45 129 -139v-80h-77v85c0 50 -18 73 -54 73c-37 0 -56 -26 -56 -75v-252c0 -48 20 -73 56 -73c40 0 54 20 54 74v80h77v-81c0 -93 -44 -139 -132 -139z" />
    <glyph glyph-name="cacute" unicode="&#x107;" horiz-adv-x="341" 
d="M125 578l72 124h97l-100 -124h-69zM173 -8c-88 0 -134 47 -134 135v256c0 88 48 136 137 136c87 0 129 -45 129 -139v-80h-77v85c0 50 -18 73 -54 73c-37 0 -56 -26 -56 -75v-252c0 -48 20 -73 56 -73c40 0 54 20 54 74v80h77v-81c0 -93 -44 -139 -132 -139z" />
    <glyph glyph-name="ccaron" unicode="&#x10d;" horiz-adv-x="341" 
d="M206 574h-57l-87 123h66l49 -60l49 60h66zM305 300h-77v85c0 50 -18 73 -54 73c-37 0 -56 -26 -56 -75v-252c0 -48 20 -73 56 -73c40 0 54 20 54 74v80h77v-81c0 -93 -44 -139 -132 -139s-134 47 -134 135v256c0 88 48 136 137 136c87 0 129 -45 129 -139v-80z" />
    <glyph glyph-name="ccedilla" unicode="&#xe7;" horiz-adv-x="341" 
d="M305 300h-77v85c0 50 -18 73 -54 73c-37 0 -56 -26 -56 -75v-252c0 -48 20 -73 56 -73c40 0 54 20 54 74v80h77v-81c0 -88 -40 -134 -119 -139v-22c43 -3 72 -25 72 -64c0 -42 -36 -65 -96 -65c-16 0 -33 2 -54 7v38c14 -4 26 -5 37 -5c26 0 39 10 39 27
c0 21 -16 28 -42 30v56c-68 10 -103 56 -103 133v256c0 88 48 136 137 136c87 0 129 -45 129 -139v-80z" />
    <glyph glyph-name="cdotaccent" unicode="&#x10b;" horiz-adv-x="341" 
d="M137 593v99h80v-99h-80zM173 -8c-88 0 -134 47 -134 135v256c0 88 48 136 137 136c87 0 129 -45 129 -139v-80h-77v85c0 50 -18 73 -54 73c-37 0 -56 -26 -56 -75v-252c0 -48 20 -73 56 -73c40 0 54 20 54 74v80h77v-81c0 -93 -44 -139 -132 -139z" />
    <glyph glyph-name="d" unicode="d" horiz-adv-x="370" 
d="M144 -8c-68 0 -105 47 -105 134v263c0 84 36 130 104 130c43 0 77 -22 99 -63h1v250h80v-706h-79v62h-1c-15 -43 -53 -70 -99 -70zM177 53c44 0 66 36 66 102v209c0 60 -23 94 -66 94c-38 0 -59 -25 -59 -72v-261c0 -46 21 -72 59 -72z" />
    <glyph glyph-name="eth" unicode="&#xf0;" horiz-adv-x="359" 
d="M326 651l-62 -33c39 -66 52 -141 52 -249v-238c0 -91 -47 -139 -137 -139c-92 0 -140 48 -140 140v236c0 78 44 124 118 124c31 0 59 -13 77 -36c-4 50 -16 90 -37 126l-75 -40l-22 38l70 39c-14 16 -30 31 -49 47l59 52c22 -21 41 -41 57 -62l65 36zM237 132v219
c0 54 -18 78 -58 78c-43 0 -62 -23 -62 -79v-218c0 -55 19 -79 62 -79c40 0 58 25 58 79z" />
    <glyph glyph-name="dcaron" unicode="&#x10f;" horiz-adv-x="391" 
d="M144 -8c-68 0 -105 47 -105 134v263c0 84 36 130 104 130c43 0 77 -22 99 -63h1v250h80v-706h-79v62h-1c-15 -43 -53 -70 -99 -70zM367 563v143h94l-29 -143h-65zM177 53c44 0 66 36 66 102v209c0 60 -23 94 -66 94c-38 0 -59 -25 -59 -72v-261c0 -46 21 -72 59 -72z" />
    <glyph glyph-name="dcroat" unicode="&#x111;" horiz-adv-x="370" 
d="M370 635v-56h-47v-579h-79v62h-1c-15 -43 -53 -70 -99 -70c-68 0 -105 47 -105 134v247c0 84 36 131 104 131c43 0 77 -22 99 -64h1v139h-85v56h85v71h80v-71h47zM243 155v193c0 61 -23 95 -66 95c-38 0 -59 -25 -59 -72v-246c0 -46 21 -72 59 -72c44 0 66 36 66 102z
" />
    <glyph glyph-name="e" unicode="e" horiz-adv-x="348" 
d="M311 238h-193v-109c0 -48 20 -73 59 -73c42 0 57 22 57 81v33h77v-35c0 -95 -45 -143 -135 -143c-89 0 -137 47 -137 135v253c0 91 48 139 138 139s134 -44 134 -136v-145zM177 460c-39 0 -59 -25 -59 -73v-92h116v92c0 50 -18 73 -57 73z" />
    <glyph glyph-name="eacute" unicode="&#xe9;" horiz-adv-x="348" 
d="M298 702l-100 -124h-69l72 124h97zM311 238h-193v-109c0 -48 20 -73 59 -73c42 0 57 22 57 81v33h77v-35c0 -95 -45 -143 -135 -143c-89 0 -137 47 -137 135v253c0 91 48 139 138 139s134 -44 134 -136v-145zM177 460c-39 0 -59 -25 -59 -73v-92h116v92
c0 50 -18 73 -57 73z" />
    <glyph glyph-name="ecaron" unicode="&#x11b;" horiz-adv-x="348" 
d="M210 574h-57l-87 123h66l49 -60l49 60h66zM311 238h-193v-109c0 -48 20 -73 59 -73c42 0 57 22 57 81v33h77v-35c0 -95 -45 -143 -135 -143c-89 0 -137 47 -137 135v253c0 91 48 139 138 139s134 -44 134 -136v-145zM177 460c-39 0 -59 -25 -59 -73v-92h116v92
c0 50 -18 73 -57 73z" />
    <glyph glyph-name="ecircumflex" unicode="&#xea;" horiz-adv-x="348" 
d="M181 636l-49 -60h-66l87 123h57l86 -123h-66zM311 238h-193v-109c0 -48 20 -73 59 -73c42 0 57 22 57 81v33h77v-35c0 -95 -45 -143 -135 -143c-89 0 -137 47 -137 135v253c0 91 48 139 138 139s134 -44 134 -136v-145zM177 460c-39 0 -59 -25 -59 -73v-92h116v92
c0 50 -18 73 -57 73z" />
    <glyph glyph-name="edieresis" unicode="&#xeb;" horiz-adv-x="348" 
d="M142 688v-91h-73v91h73zM293 688v-91h-73v91h73zM311 238h-193v-109c0 -48 20 -73 59 -73c42 0 57 22 57 81v33h77v-35c0 -95 -45 -143 -135 -143c-89 0 -137 47 -137 135v253c0 91 48 139 138 139s134 -44 134 -136v-145zM177 460c-39 0 -59 -25 -59 -73v-92h116v92
c0 50 -18 73 -57 73z" />
    <glyph glyph-name="edotaccent" unicode="&#x117;" horiz-adv-x="348" 
d="M221 692v-99h-80v99h80zM311 238h-193v-109c0 -48 20 -73 59 -73c42 0 57 22 57 81v33h77v-35c0 -95 -45 -143 -135 -143c-89 0 -137 47 -137 135v253c0 91 48 139 138 139s134 -44 134 -136v-145zM177 460c-39 0 -59 -25 -59 -73v-92h116v92c0 50 -18 73 -57 73z" />
    <glyph glyph-name="egrave" unicode="&#xe8;" horiz-adv-x="348" 
d="M236 578h-69l-100 124h97zM311 238h-193v-109c0 -48 20 -73 59 -73c42 0 57 22 57 81v33h77v-35c0 -95 -45 -143 -135 -143c-89 0 -137 47 -137 135v253c0 91 48 139 138 139s134 -44 134 -136v-145zM177 460c-39 0 -59 -25 -59 -73v-92h116v92c0 50 -18 73 -57 73z" />
    <glyph glyph-name="emacron" unicode="&#x113;" horiz-adv-x="348" 
d="M289 669v-63h-216v63h216zM311 238h-193v-109c0 -48 20 -73 59 -73c42 0 57 22 57 81v33h77v-35c0 -95 -45 -143 -135 -143c-89 0 -137 47 -137 135v253c0 91 48 139 138 139s134 -44 134 -136v-145zM177 460c-39 0 -59 -25 -59 -73v-92h116v92c0 50 -18 73 -57 73z" />
    <glyph glyph-name="eogonek" unicode="&#x119;" horiz-adv-x="348" 
d="M224 -159c-50 0 -81 22 -81 66v6c0 34 19 58 38 79h-5c-89 0 -137 47 -137 135v253c0 91 48 139 138 139s134 -44 134 -136v-145h-193v-109c0 -48 20 -73 59 -73c42 0 57 22 57 81v33h77v-35c0 -63 -23 -95 -47 -118c-27 -25 -51 -46 -51 -81v-4c0 -21 12 -28 37 -28h19
v-63h-45zM118 295h116v92c0 50 -18 73 -57 73s-59 -25 -59 -73v-92z" />
    <glyph glyph-name="f" unicode="f" horiz-adv-x="234" 
d="M201 646c-39 0 -58 -18 -58 -73v-62h80v-58h-80v-453h-79v453h-59v58h59v76c0 85 47 129 130 129c11 0 30 -3 40 -5v-68c-11 2 -25 3 -33 3z" />
    <glyph glyph-name="g" unicode="g" horiz-adv-x="370" 
d="M183 -159c-93 0 -137 43 -137 131v12h76v-9c0 -48 19 -70 61 -70c40 0 60 24 60 67v129h-1c-22 -42 -56 -64 -99 -64c-68 0 -104 47 -104 131v217c0 87 37 134 105 134c46 0 84 -27 99 -69h1v61h79v-535c0 -86 -51 -135 -140 -135zM177 98c43 0 66 34 66 95v164
c0 66 -22 101 -66 101c-38 0 -59 -25 -59 -72v-216c0 -47 21 -72 59 -72z" />
    <glyph glyph-name="gbreve" unicode="&#x11f;" horiz-adv-x="370" 
d="M190 569c-75 0 -100 39 -110 112l51 9c8 -41 16 -63 59 -63s51 22 59 63l51 -9c-10 -73 -35 -112 -110 -112zM183 -159c-93 0 -137 43 -137 131v12h76v-9c0 -48 19 -70 61 -70c40 0 60 24 60 67v129h-1c-22 -42 -56 -64 -99 -64c-68 0 -104 47 -104 131v217
c0 87 37 134 105 134c46 0 84 -27 99 -69h1v61h79v-535c0 -86 -51 -135 -140 -135zM177 98c43 0 66 34 66 95v164c0 66 -22 101 -66 101c-38 0 -59 -25 -59 -72v-216c0 -47 21 -72 59 -72z" />
    <glyph glyph-name="gcommaaccent" unicode="&#x123;" horiz-adv-x="370" 
d="M150 575v59c0 58 15 83 42 109l28 -26c-18 -17 -25 -31 -25 -51v-13h36v-78h-81zM183 -159c-93 0 -137 43 -137 131v12h76v-9c0 -48 19 -70 61 -70c40 0 60 24 60 67v129h-1c-22 -42 -56 -64 -99 -64c-68 0 -104 47 -104 131v217c0 87 37 134 105 134c46 0 84 -27 99 -69
h1v61h79v-535c0 -86 -51 -135 -140 -135zM177 98c43 0 66 34 66 95v164c0 66 -22 101 -66 101c-38 0 -59 -25 -59 -72v-216c0 -47 21 -72 59 -72z" />
    <glyph glyph-name="gdotaccent" unicode="&#x121;" horiz-adv-x="370" 
d="M150 593v99h80v-99h-80zM183 -159c-93 0 -137 43 -137 131v12h76v-9c0 -48 19 -70 61 -70c40 0 60 24 60 67v129h-1c-22 -42 -56 -64 -99 -64c-68 0 -104 47 -104 131v217c0 87 37 134 105 134c46 0 84 -27 99 -69h1v61h79v-535c0 -86 -51 -135 -140 -135zM177 98
c43 0 66 34 66 95v164c0 66 -22 101 -66 101c-38 0 -59 -25 -59 -72v-216c0 -47 21 -72 59 -72z" />
    <glyph glyph-name="h" unicode="h" horiz-adv-x="371" 
d="M47 0v706h80v-250h1c21 41 55 63 97 63c63 0 102 -40 102 -107v-412h-79v399c0 38 -19 59 -53 59c-43 0 -68 -30 -68 -84v-374h-80z" />
    <glyph glyph-name="hbar" unicode="&#x127;" horiz-adv-x="371" 
d="M225 482c58 0 102 -35 102 -107v-375h-79v362c0 35 -18 59 -53 59c-40 0 -68 -27 -68 -85v-336h-80v579h-47v56h47v71h80v-71h85v-56h-85v-161h1c23 44 58 64 97 64z" />
    <glyph glyph-name="hcircumflex" unicode="&#x125;" horiz-adv-x="371" 
d="M144 750l-58 50l-58 -50h-66l97 102h55l96 -102h-66zM225 519c63 0 102 -40 102 -107v-412h-79v399c0 38 -19 59 -53 59c-43 0 -68 -30 -68 -84v-374h-80v706h80v-250h1c21 41 55 63 97 63z" />
    <glyph glyph-name="i" unicode="i" horiz-adv-x="174" 
d="M47 593v99h80v-99h-80zM47 0v511h80v-511h-80z" />
    <glyph glyph-name="dotlessi" unicode="&#x131;" horiz-adv-x="174" 
d="M47 0v511h80v-511h-80z" />
    <glyph glyph-name="iacute" unicode="&#xed;" horiz-adv-x="174" 
d="M35 578l72 124h97l-100 -124h-69zM47 0v511h80v-511h-80z" />
    <glyph glyph-name="icircumflex" unicode="&#xee;" horiz-adv-x="174" 
d="M116 699l86 -123h-66l-49 60l-49 -60h-66l87 123h57zM47 0v511h80v-511h-80z" />
    <glyph glyph-name="idieresis" unicode="&#xef;" horiz-adv-x="174" 
d="M-25 597v91h73v-91h-73zM126 597v91h73v-91h-73zM47 0v511h80v-511h-80z" />
    <glyph glyph-name="i.loclTRK" horiz-adv-x="174" 
d="M47 593v99h80v-99h-80zM47 0v511h80v-511h-80z" />
    <glyph glyph-name="igrave" unicode="&#xec;" horiz-adv-x="174" 
d="M142 578h-69l-100 124h97zM47 0v511h80v-511h-80z" />
    <glyph glyph-name="imacron" unicode="&#x12b;" horiz-adv-x="174" 
d="M7 606v63h160v-63h-160zM47 0v511h80v-511h-80z" />
    <glyph glyph-name="iogonek" unicode="&#x12f;" horiz-adv-x="174" 
d="M127 692v-99h-80v99h80zM124 -96h18v-63h-45c-50 0 -80 22 -80 66v6c0 38 23 64 45 87h-15v511h80v-511h-7c-22 -25 -33 -48 -33 -64v-4c0 -21 11 -28 37 -28z" />
    <glyph glyph-name="j" unicode="j" horiz-adv-x="174" 
d="M48 593v99h80v-99h-80zM19 -159c-11 0 -25 1 -36 3v68c5 0 10 -1 15 -1c38 0 50 19 50 69v531h79v-549c0 -83 -36 -121 -108 -121z" />
    <glyph glyph-name="uni0237" unicode="&#x237;" horiz-adv-x="174" 
d="M19 -159c-11 0 -25 1 -36 3v68c5 0 10 -1 15 -1c38 0 50 19 50 69v531h79v-549c0 -83 -36 -121 -108 -121z" />
    <glyph glyph-name="jcircumflex" unicode="&#x135;" horiz-adv-x="174" 
d="M117 699l86 -123h-66l-49 60l-49 -60h-66l87 123h57zM48 -20v531h79v-549c0 -83 -36 -121 -108 -121c-11 0 -25 1 -36 3v68c5 0 10 -1 15 -1c38 0 50 19 50 69z" />
    <glyph glyph-name="k" unicode="k" horiz-adv-x="356" 
d="M265 0l-97 259l-43 -67v-192h-78v706h78v-420l129 225h86l-122 -188l133 -323h-86z" />
    <glyph glyph-name="kcommaaccent" unicode="&#x137;" horiz-adv-x="356" 
d="M218 323l133 -323h-86l-97 259l-43 -67v-192h-78v706h78v-420l129 225h86zM138 -104v68h93v-54c0 -40 -16 -63 -45 -84l-28 27c12 12 17 23 17 35v8h-37z" />
    <glyph glyph-name="l" unicode="l" horiz-adv-x="174" 
d="M47 0v706h80v-706h-80z" />
    <glyph glyph-name="lacute" unicode="&#x13a;" horiz-adv-x="174" 
d="M28 752l63 100h95l-90 -100h-68zM47 0v706h80v-706h-80z" />
    <glyph glyph-name="lcaron" unicode="&#x13e;" horiz-adv-x="192" 
d="M47 0v706h80v-706h-80zM163 563v143h94l-29 -143h-65z" />
    <glyph glyph-name="lcommaaccent" unicode="&#x13c;" horiz-adv-x="174" 
d="M47 0v706h80v-706h-80zM88 -174l-28 27c12 12 17 23 17 35v8h-37v68h93v-54c0 -40 -16 -63 -45 -84z" />
    <glyph glyph-name="lslash" unicode="&#x142;" horiz-adv-x="185" 
d="M181 436v-68l-49 -32v-336h-80v288l-48 -31v68l48 32v349h80v-302z" />
    <glyph glyph-name="m" unicode="m" horiz-adv-x="555" 
d="M413 519c61 0 98 -40 98 -107v-412h-79v399c0 38 -18 59 -50 59c-39 0 -63 -31 -63 -84v-374h-80v399c0 38 -17 59 -49 59c-40 0 -63 -31 -63 -84v-374h-80v511h79v-57h2c19 42 53 65 93 65c49 0 83 -26 94 -71h2c20 46 54 71 96 71z" />
    <glyph glyph-name="n" unicode="n" horiz-adv-x="371" 
d="M47 0v511h79v-57h2c19 41 54 65 97 65c63 0 102 -40 102 -107v-412h-79v399c0 38 -19 59 -53 59c-43 0 -68 -31 -68 -84v-374h-80z" />
    <glyph glyph-name="nacute" unicode="&#x144;" horiz-adv-x="371" 
d="M136 578l72 124h97l-100 -124h-69zM47 0v511h79v-57h2c19 41 54 65 97 65c63 0 102 -40 102 -107v-412h-79v399c0 38 -19 59 -53 59c-43 0 -68 -31 -68 -84v-374h-80z" />
    <glyph glyph-name="ncaron" unicode="&#x148;" horiz-adv-x="371" 
d="M217 574h-57l-87 123h66l49 -60l49 60h66zM225 519c63 0 102 -40 102 -107v-412h-79v399c0 38 -19 59 -53 59c-43 0 -68 -31 -68 -84v-374h-80v511h79v-57h2c19 41 54 65 97 65z" />
    <glyph glyph-name="ncommaaccent" unicode="&#x146;" horiz-adv-x="371" 
d="M47 0v511h79v-57h2c19 41 54 65 97 65c63 0 102 -40 102 -107v-412h-79v399c0 38 -19 59 -53 59c-43 0 -68 -31 -68 -84v-374h-80zM189 -174l-28 27c12 12 17 23 17 35v8h-37v68h93v-54c0 -40 -16 -63 -45 -84z" />
    <glyph glyph-name="eng" unicode="&#x14b;" horiz-adv-x="371" 
d="M219 -159c-11 0 -25 1 -36 3v68c19 -2 12 -1 15 -1c39 0 50 20 50 69v419c0 37 -18 59 -53 59c-40 0 -68 -27 -68 -84v-374h-80v511h79v-57h2c21 44 57 65 97 65c58 0 102 -34 102 -107v-450c0 -82 -36 -121 -108 -121z" />
    <glyph glyph-name="ntilde" unicode="&#xf1;" horiz-adv-x="371" 
d="M56 574c0 61 18 103 71 103c22 0 45 -10 65 -19c21 -9 40 -19 55 -19c22 0 28 19 29 38h45c-1 -64 -22 -103 -66 -103c-20 0 -46 11 -71 21c-21 9 -40 17 -52 17c-22 0 -29 -20 -30 -38h-46zM47 0v511h79v-57h2c19 41 54 65 97 65c63 0 102 -40 102 -107v-412h-79v399
c0 38 -19 59 -53 59c-43 0 -68 -31 -68 -84v-374h-80z" />
    <glyph glyph-name="o" unicode="o" horiz-adv-x="359" 
d="M181 -8c-93 0 -142 48 -142 140v249c0 90 49 138 142 138c91 0 140 -48 140 -135v-255c0 -89 -49 -137 -140 -137zM181 54c42 0 60 25 60 80v244c0 55 -18 80 -60 80c-44 0 -63 -24 -63 -81v-242c0 -57 19 -81 63 -81z" />
    <glyph glyph-name="oacute" unicode="&#xf3;" horiz-adv-x="359" 
d="M129 578l72 124h97l-100 -124h-69zM181 -8c-93 0 -142 48 -142 140v249c0 90 49 138 142 138c91 0 140 -48 140 -135v-255c0 -89 -49 -137 -140 -137zM181 54c42 0 60 25 60 80v244c0 55 -18 80 -60 80c-44 0 -63 -24 -63 -81v-242c0 -57 19 -81 63 -81z" />
    <glyph glyph-name="ocircumflex" unicode="&#xf4;" horiz-adv-x="359" 
d="M181 636l-49 -60h-66l87 123h57l86 -123h-66zM181 519c91 0 140 -48 140 -135v-255c0 -89 -49 -137 -140 -137c-93 0 -142 48 -142 140v249c0 90 49 138 142 138zM241 134v244c0 55 -18 80 -60 80c-44 0 -63 -24 -63 -81v-242c0 -57 19 -81 63 -81c42 0 60 25 60 80z" />
    <glyph glyph-name="odieresis" unicode="&#xf6;" horiz-adv-x="359" 
d="M69 597v91h73v-91h-73zM220 597v91h73v-91h-73zM181 -8c-93 0 -142 48 -142 140v249c0 90 49 138 142 138c91 0 140 -48 140 -135v-255c0 -89 -49 -137 -140 -137zM181 54c42 0 60 25 60 80v244c0 55 -18 80 -60 80c-44 0 -63 -24 -63 -81v-242c0 -57 19 -81 63 -81z" />
    <glyph glyph-name="ograve" unicode="&#xf2;" horiz-adv-x="359" 
d="M236 578h-69l-100 124h97zM181 -8c-93 0 -142 48 -142 140v249c0 90 49 138 142 138c91 0 140 -48 140 -135v-255c0 -89 -49 -137 -140 -137zM181 54c42 0 60 25 60 80v244c0 55 -18 80 -60 80c-44 0 -63 -24 -63 -81v-242c0 -57 19 -81 63 -81z" />
    <glyph glyph-name="ohungarumlaut" unicode="&#x151;" horiz-adv-x="359" 
d="M71 578l72 124h97l-100 -124h-69zM214 578l72 124h97l-100 -124h-69zM181 -8c-93 0 -142 48 -142 140v249c0 90 49 138 142 138c91 0 140 -48 140 -135v-255c0 -89 -49 -137 -140 -137zM181 54c42 0 60 25 60 80v244c0 55 -18 80 -60 80c-44 0 -63 -24 -63 -81v-242
c0 -57 19 -81 63 -81z" />
    <glyph glyph-name="omacron" unicode="&#x14d;" horiz-adv-x="359" 
d="M73 606v63h216v-63h-216zM181 -8c-93 0 -142 48 -142 140v249c0 90 49 138 142 138c91 0 140 -48 140 -135v-255c0 -89 -49 -137 -140 -137zM181 54c42 0 60 25 60 80v244c0 55 -18 80 -60 80c-44 0 -63 -24 -63 -81v-242c0 -57 19 -81 63 -81z" />
    <glyph glyph-name="oslash" unicode="&#xf8;" horiz-adv-x="359" 
d="M271 495c33 -22 50 -60 50 -111v-255c0 -89 -49 -137 -140 -137c-20 0 -38 2 -54 7l-23 -73l-38 13l24 76c-34 23 -51 62 -51 117v249c0 90 49 138 142 138c20 0 38 -2 54 -7l21 66l37 -11zM115 377v-242c0 -13 1 -25 3 -34l94 351c-8 4 -19 6 -31 6
c-46 0 -66 -24 -66 -81zM244 134v244c0 12 -1 23 -3 32l-92 -350c9 -4 19 -6 32 -6c44 0 63 25 63 80z" />
    <glyph glyph-name="oslashacute" unicode="&#x1ff;" horiz-adv-x="359" 
d="M296 702l-100 -124h-69l72 124h97zM271 495c33 -22 50 -60 50 -111v-255c0 -89 -49 -137 -140 -137c-20 0 -38 2 -54 7l-23 -73l-38 13l24 76c-34 23 -51 62 -51 117v249c0 90 49 138 142 138c20 0 38 -2 54 -7l21 66l37 -11zM115 377v-242c0 -13 1 -25 3 -34l94 351
c-8 4 -19 6 -31 6c-46 0 -66 -24 -66 -81zM244 134v244c0 12 -1 23 -3 32l-92 -350c9 -4 19 -6 32 -6c44 0 63 25 63 80z" />
    <glyph glyph-name="otilde" unicode="&#xf5;" horiz-adv-x="359" 
d="M49 574c0 61 18 103 71 103c22 0 45 -10 65 -19c21 -9 40 -19 55 -19c22 0 28 19 29 38h45c-1 -64 -22 -103 -66 -103c-20 0 -46 11 -71 21c-21 9 -40 17 -52 17c-22 0 -29 -20 -30 -38h-46zM181 -8c-93 0 -142 48 -142 140v249c0 90 49 138 142 138
c91 0 140 -48 140 -135v-255c0 -89 -49 -137 -140 -137zM181 54c42 0 60 25 60 80v244c0 55 -18 80 -60 80c-44 0 -63 -24 -63 -81v-242c0 -57 19 -81 63 -81z" />
    <glyph glyph-name="oe" unicode="&#x153;" horiz-adv-x="551" 
d="M515 238h-194v-109c0 -48 20 -73 59 -73c42 0 58 24 58 81v33h77v-35c0 -101 -35 -143 -120 -143c-64 0 -100 24 -114 76c-17 -49 -56 -76 -116 -76c-82 0 -126 48 -126 137v253c0 90 46 137 130 137c60 0 97 -23 112 -73c14 51 49 73 111 73c86 0 123 -41 123 -136v-145
zM381 460c-40 0 -60 -25 -60 -73v-92h117v92c0 50 -18 73 -57 73zM241 134v244c0 55 -19 80 -61 80c-43 0 -63 -24 -63 -81v-242c0 -57 20 -81 63 -81c42 0 61 25 61 80z" />
    <glyph glyph-name="p" unicode="p" horiz-adv-x="370" 
d="M47 -147v658h79v-61h1c15 42 53 69 100 69c67 0 105 -47 105 -134v-262c0 -84 -37 -131 -104 -131c-43 0 -78 22 -100 64h-1v-203h-80zM193 53c38 0 59 26 59 72v261c0 47 -21 72 -59 72c-43 0 -66 -35 -66 -101v-209c0 -61 23 -95 66 -95z" />
    <glyph glyph-name="thorn" unicode="&#xfe;" horiz-adv-x="370" 
d="M47 -147v853h79v-256h1c15 42 53 69 100 69c67 0 105 -47 105 -134v-262c0 -84 -37 -131 -104 -131c-43 0 -78 22 -100 64h-1v-203h-80zM193 53c38 0 59 26 59 72v261c0 47 -21 72 -59 72c-43 0 -66 -35 -66 -101v-209c0 -61 23 -95 66 -95z" />
    <glyph glyph-name="q" unicode="q" horiz-adv-x="370" 
d="M323 -147h-80v203h-1c-22 -42 -57 -64 -100 -64c-67 0 -104 47 -104 131v262c0 87 38 134 105 134c47 0 85 -27 100 -69h1v61h79v-658zM177 53c43 0 66 34 66 95v209c0 66 -23 101 -66 101c-38 0 -59 -25 -59 -72v-261c0 -46 21 -72 59 -72z" />
    <glyph glyph-name="r" unicode="r" horiz-adv-x="245" 
d="M47 0v511h79v-76h2c13 51 55 83 110 83v-84c-80 0 -111 -23 -111 -94v-340h-80z" />
    <glyph glyph-name="racute" unicode="&#x155;" horiz-adv-x="245" 
d="M84 578l72 124h97l-100 -124h-69zM47 0v511h79v-76h2c13 51 55 83 110 83v-84c-80 0 -111 -23 -111 -94v-340h-80z" />
    <glyph glyph-name="rcaron" unicode="&#x159;" horiz-adv-x="245" 
d="M165 574h-57l-87 123h66l49 -60l49 60h66zM128 435c13 51 55 83 110 83v-84c-80 0 -111 -23 -111 -94v-340h-80v511h79v-76h2z" />
    <glyph glyph-name="rcommaaccent" unicode="&#x157;" horiz-adv-x="245" 
d="M47 0v511h79v-76h2c13 51 55 83 110 83v-84c-80 0 -111 -23 -111 -94v-340h-80zM120 -174l-28 27c12 12 17 23 17 35v8h-37v68h93v-54c0 -40 -16 -63 -45 -84z" />
    <glyph glyph-name="s" unicode="s" horiz-adv-x="328" 
d="M164 -6c-98 0 -136 46 -136 140v46h75v-40c0 -59 20 -84 63 -84c41 0 59 21 59 67c0 42 -14 61 -79 115c-86 69 -108 100 -108 158c0 84 50 123 133 123c86 0 123 -45 123 -120v-46h-71v30c0 50 -14 75 -54 75c-36 0 -55 -20 -55 -56c-1 -36 15 -56 83 -112
c85 -69 103 -98 103 -161c0 -86 -47 -135 -136 -135z" />
    <glyph glyph-name="sacute" unicode="&#x15b;" horiz-adv-x="328" 
d="M118 578l72 124h97l-100 -124h-69zM164 -6c-98 0 -136 46 -136 140v46h75v-40c0 -59 20 -84 63 -84c41 0 59 21 59 67c0 42 -14 61 -79 115c-86 69 -108 100 -108 158c0 84 50 123 133 123c86 0 123 -45 123 -120v-46h-71v30c0 50 -14 75 -54 75c-36 0 -55 -20 -55 -56
c-1 -36 15 -56 83 -112c85 -69 103 -98 103 -161c0 -86 -47 -135 -136 -135z" />
    <glyph glyph-name="scaron" unicode="&#x161;" horiz-adv-x="328" 
d="M199 574h-57l-87 123h66l49 -60l49 60h66zM197 290c85 -69 103 -98 103 -161c0 -86 -47 -135 -136 -135c-98 0 -136 46 -136 140v46h75v-40c0 -59 20 -84 63 -84c41 0 59 21 59 67c0 42 -14 61 -79 115c-86 69 -108 100 -108 158c0 84 50 123 133 123
c86 0 123 -45 123 -120v-46h-71v30c0 50 -14 75 -54 75c-36 0 -55 -20 -55 -56c-1 -36 15 -56 83 -112z" />
    <glyph glyph-name="scedilla" unicode="&#x15f;" horiz-adv-x="328" 
d="M300 129c0 -78 -39 -126 -113 -134v-25c43 -3 72 -25 72 -64c0 -42 -36 -65 -96 -65c-16 0 -33 2 -54 7v38c14 -4 26 -5 37 -5c26 0 39 10 39 27c0 21 -16 28 -42 30v57c-82 6 -115 52 -115 139v46h75v-40c0 -59 20 -84 63 -84c41 0 59 21 59 67c0 42 -14 61 -79 115
c-86 69 -108 100 -108 158c0 84 50 123 133 123c86 0 123 -45 123 -120v-46h-71v30c0 50 -14 75 -54 75c-36 0 -55 -20 -55 -56c-1 -36 15 -56 83 -112c85 -69 103 -98 103 -161z" />
    <glyph glyph-name="scommaaccent" unicode="&#x219;" horiz-adv-x="328" 
d="M164 -6c-98 0 -136 46 -136 140v46h75v-40c0 -59 20 -84 63 -84c41 0 59 21 59 67c0 42 -14 61 -79 115c-86 69 -108 100 -108 158c0 84 50 123 133 123c86 0 123 -45 123 -120v-46h-71v30c0 50 -14 75 -54 75c-36 0 -55 -20 -55 -56c-1 -36 15 -56 83 -112
c85 -69 103 -98 103 -161c0 -86 -47 -135 -136 -135zM170 -174l-28 27c12 12 17 23 17 35v8h-37v68h93v-54c0 -40 -16 -63 -45 -84z" />
    <glyph glyph-name="germandbls" unicode="&#xdf;" horiz-adv-x="383" 
d="M254 -8c-53 0 -88 33 -88 81v31h54v-22c0 -18 11 -31 28 -31s27 11 27 32v157c0 77 -24 105 -100 110v68c61 3 83 25 83 102v38c0 64 -19 88 -64 88c-50 0 -70 -24 -70 -87v-559h-80v559c0 104 51 157 151 157c90 0 139 -50 139 -153v-48c0 -81 -28 -117 -80 -126v-2
c68 -11 100 -56 100 -140v-143c0 -77 -32 -112 -100 -112z" />
    <glyph glyph-name="t" unicode="t" horiz-adv-x="243" 
d="M188 65c11 0 26 1 46 4v-68c-24 -4 -43 -6 -61 -6c-70 0 -109 37 -109 103v355h-59v58h59v171h80v-171h85v-58h-85l-1 -336c0 -37 14 -52 45 -52z" />
    <glyph glyph-name="tbar" unicode="&#x167;" horiz-adv-x="254" 
d="M195 65c11 0 26 1 46 4v-68c-24 -4 -43 -6 -61 -6c-70 0 -109 37 -109 103v159h-59v62h59v134h-59v58h59v171h80v-171h85v-58h-85l-1 -134h86v-62h-86v-140c0 -37 14 -52 45 -52z" />
    <glyph glyph-name="tcaron" unicode="&#x165;" horiz-adv-x="255" 
d="M192 711h94l-29 -143h-65v143zM143 117c0 -37 14 -52 45 -52c11 0 26 1 46 4v-68c-24 -4 -43 -6 -61 -6c-70 0 -109 37 -109 103v355h-59v58h59v171h80v-171h85v-58h-85z" />
    <glyph glyph-name="uni0163" unicode="&#x163;" horiz-adv-x="243" 
d="M166 -30c43 -3 72 -25 72 -64c0 -42 -36 -65 -96 -65c-16 0 -33 2 -54 7v38c14 -4 26 -5 37 -5c26 0 39 10 39 27c0 21 -16 28 -42 30v65h1c-38 14 -59 47 -59 95v355h-59v58h59v171h80v-171h85v-58h-85l-1 -336c0 -37 14 -52 45 -52c11 0 26 1 46 4v-68
c-24 -4 -43 -6 -61 -6h-7v-25z" />
    <glyph glyph-name="uni021B" unicode="&#x21b;" horiz-adv-x="243" 
d="M188 65c11 0 26 1 46 4v-68c-24 -4 -43 -6 -61 -6c-70 0 -109 37 -109 103v355h-59v58h59v171h80v-171h85v-58h-85l-1 -336c0 -37 14 -52 45 -52zM99 -104v68h93v-54c0 -40 -16 -63 -45 -84l-28 27c12 12 17 23 17 35v8h-37z" />
    <glyph glyph-name="u" unicode="u" horiz-adv-x="365" 
d="M143 -8c-61 0 -99 40 -99 107v412h79v-399c0 -38 17 -59 50 -59c41 0 65 31 65 85v373h79v-511h-78v58h-2c-20 -42 -53 -66 -94 -66z" />
    <glyph glyph-name="uacute" unicode="&#xfa;" horiz-adv-x="365" 
d="M127 578l72 124h97l-100 -124h-69zM143 -8c-61 0 -99 40 -99 107v412h79v-399c0 -38 17 -59 50 -59c41 0 65 31 65 85v373h79v-511h-78v58h-2c-20 -42 -53 -66 -94 -66z" />
    <glyph glyph-name="ucircumflex" unicode="&#xfb;" horiz-adv-x="365" 
d="M179 636l-49 -60h-66l87 123h57l86 -123h-66zM238 511h79v-511h-78v58h-2c-20 -42 -53 -66 -94 -66c-61 0 -99 40 -99 107v412h79v-399c0 -38 17 -59 50 -59c41 0 65 31 65 85v373z" />
    <glyph glyph-name="udieresis" unicode="&#xfc;" horiz-adv-x="365" 
d="M67 597v91h73v-91h-73zM218 597v91h73v-91h-73zM143 -8c-61 0 -99 40 -99 107v412h79v-399c0 -38 17 -59 50 -59c41 0 65 31 65 85v373h79v-511h-78v58h-2c-20 -42 -53 -66 -94 -66z" />
    <glyph glyph-name="ugrave" unicode="&#xf9;" horiz-adv-x="365" 
d="M234 578h-69l-100 124h97zM143 -8c-61 0 -99 40 -99 107v412h79v-399c0 -38 17 -59 50 -59c41 0 65 31 65 85v373h79v-511h-78v58h-2c-20 -42 -53 -66 -94 -66z" />
    <glyph glyph-name="uhungarumlaut" unicode="&#x171;" horiz-adv-x="365" 
d="M69 578l72 124h97l-100 -124h-69zM212 578l72 124h97l-100 -124h-69zM143 -8c-61 0 -99 40 -99 107v412h79v-399c0 -38 17 -59 50 -59c41 0 65 31 65 85v373h79v-511h-78v58h-2c-20 -42 -53 -66 -94 -66z" />
    <glyph glyph-name="umacron" unicode="&#x16b;" horiz-adv-x="365" 
d="M71 606v63h216v-63h-216zM143 -8c-61 0 -99 40 -99 107v412h79v-399c0 -38 17 -59 50 -59c41 0 65 31 65 85v373h79v-511h-78v58h-2c-20 -42 -53 -66 -94 -66z" />
    <glyph glyph-name="uogonek" unicode="&#x173;" horiz-adv-x="365" 
d="M314 -96h18v-63h-45c-50 0 -80 22 -80 66v6c0 38 23 64 45 87h-13v58h-2c-20 -42 -53 -66 -94 -66c-61 0 -99 40 -99 107v412h79v-399c0 -38 17 -59 50 -59c41 0 65 31 65 85v373h79v-511h-7c-22 -25 -33 -48 -33 -64v-4c0 -21 11 -28 37 -28z" />
    <glyph glyph-name="uring" unicode="&#x16f;" horiz-adv-x="365" 
d="M179 554c-49 0 -85 36 -85 85c0 48 36 84 85 84c48 0 84 -36 84 -84c0 -49 -36 -85 -84 -85zM179 586c28 0 50 22 50 53c0 30 -22 52 -50 52c-29 0 -51 -22 -51 -52c0 -31 22 -53 51 -53zM143 -8c-61 0 -99 40 -99 107v412h79v-399c0 -38 17 -59 50 -59c41 0 65 31 65 85
v373h79v-511h-78v58h-2c-20 -42 -53 -66 -94 -66z" />
    <glyph glyph-name="v" unicode="v" horiz-adv-x="308" 
d="M216 511h86l-101 -511h-96l-99 511h88l38 -253l23 -201l23 200z" />
    <glyph glyph-name="w" unicode="w" horiz-adv-x="511" 
d="M426 511h78l-108 -511h-78l-64 368l-67 -368h-77l-103 511h80l68 -411l68 411h65l69 -410z" />
    <glyph glyph-name="wacute" unicode="&#x1e83;" horiz-adv-x="511" 
d="M373 702l-100 -124h-69l72 124h97zM426 511h78l-108 -511h-78l-64 368l-67 -368h-77l-103 511h80l68 -411l68 411h65l69 -410z" />
    <glyph glyph-name="wcircumflex" unicode="&#x175;" horiz-adv-x="511" 
d="M256 636l-49 -60h-66l87 123h57l86 -123h-66zM426 511h78l-108 -511h-78l-64 368l-67 -368h-77l-103 511h80l68 -411l68 411h65l69 -410z" />
    <glyph glyph-name="wdieresis" unicode="&#x1e85;" horiz-adv-x="511" 
d="M217 688v-91h-73v91h73zM368 688v-91h-73v91h73zM426 511h78l-108 -511h-78l-64 368l-67 -368h-77l-103 511h80l68 -411l68 411h65l69 -410z" />
    <glyph glyph-name="wgrave" unicode="&#x1e81;" horiz-adv-x="511" 
d="M311 578h-69l-100 124h97zM426 511h78l-108 -511h-78l-64 368l-67 -368h-77l-103 511h80l68 -411l68 411h65l69 -410z" />
    <glyph glyph-name="x" unicode="x" horiz-adv-x="332" 
d="M316 0h-86l-67 191l-67 -191h-80l103 260l-99 251h87l62 -184l60 184h81l-97 -249z" />
    <glyph glyph-name="y" unicode="y" horiz-adv-x="311" 
d="M225 511h81l-115 -537c-22 -104 -58 -133 -137 -133c-16 0 -37 2 -49 5l8 67c10 -3 25 -4 35 -4c39 0 63 24 72 76l3 19l-119 507h85l49 -265l21 -122l20 122z" />
    <glyph glyph-name="yacute" unicode="&#xfd;" horiz-adv-x="311" 
d="M274 702l-100 -124h-69l72 124h97zM225 511h81l-115 -537c-22 -104 -58 -133 -137 -133c-16 0 -37 2 -49 5l8 67c10 -3 25 -4 35 -4c39 0 63 24 72 76l3 19l-119 507h85l49 -265l21 -122l20 122z" />
    <glyph glyph-name="ycircumflex" unicode="&#x177;" horiz-adv-x="311" 
d="M157 636l-49 -60h-66l87 123h57l86 -123h-66zM225 511h81l-115 -537c-22 -104 -58 -133 -137 -133c-16 0 -37 2 -49 5l8 67c10 -3 25 -4 35 -4c39 0 63 24 72 76l3 19l-119 507h85l49 -265l21 -122l20 122z" />
    <glyph glyph-name="ydieresis" unicode="&#xff;" horiz-adv-x="311" 
d="M118 688v-91h-73v91h73zM269 688v-91h-73v91h73zM225 511h81l-115 -537c-22 -104 -58 -133 -137 -133c-16 0 -37 2 -49 5l8 67c10 -3 25 -4 35 -4c39 0 63 24 72 76l3 19l-119 507h85l49 -265l21 -122l20 122z" />
    <glyph glyph-name="ygrave" unicode="&#x1ef3;" horiz-adv-x="311" 
d="M212 578h-69l-100 124h97zM225 511h81l-115 -537c-22 -104 -58 -133 -137 -133c-16 0 -37 2 -49 5l8 67c10 -3 25 -4 35 -4c39 0 63 24 72 76l3 19l-119 507h85l49 -265l21 -122l20 122z" />
    <glyph glyph-name="z" unicode="z" horiz-adv-x="305" 
d="M277 511v-66l-171 -376h171v-69h-254v69l169 374h-163v68h248z" />
    <glyph glyph-name="zacute" unicode="&#x17a;" horiz-adv-x="305" 
d="M276 702l-100 -124h-69l72 124h97zM277 511v-66l-171 -376h171v-69h-254v69l169 374h-163v68h248z" />
    <glyph glyph-name="zcaron" unicode="&#x17e;" horiz-adv-x="305" 
d="M188 574h-57l-87 123h66l49 -60l49 60h66zM277 511v-66l-171 -376h171v-69h-254v69l169 374h-163v68h248z" />
    <glyph glyph-name="zdotaccent" unicode="&#x17c;" horiz-adv-x="305" 
d="M199 692v-99h-80v99h80zM277 511v-66l-171 -376h171v-69h-254v69l169 374h-163v68h248z" />
    <glyph glyph-name="g.alt" horiz-adv-x="334" 
d="M325 546h7v-76h-8c-23 0 -40 -8 -54 -25c4 -14 6 -30 6 -48v-111c0 -83 -41 -124 -124 -124c-14 0 -28 1 -40 4c-5 -7 -8 -17 -8 -27c0 -22 13 -36 31 -36h79c68 -1 108 -42 108 -112c0 -89 -60 -150 -161 -150c-105 0 -150 39 -150 109c0 46 24 81 67 91
c-21 15 -33 40 -33 73c0 27 10 51 26 68c-30 19 -45 55 -45 106v106c0 85 41 125 126 125c42 0 74 -10 94 -31c16 35 45 58 79 58zM199 282v118c-1 44 -15 62 -47 62c-35 0 -49 -18 -49 -62v-118c0 -44 14 -62 49 -63c32 1 46 19 47 63zM208 27h-72c-47 0 -61 -21 -61 -58
c0 -40 29 -63 86 -63c64 0 96 25 96 71c0 32 -17 50 -49 50z" />
    <glyph glyph-name="gbreve.alt" horiz-adv-x="334" 
d="M155 569c-75 0 -100 39 -110 112l51 9c8 -41 16 -63 59 -63s51 22 59 63l51 -9c-10 -73 -35 -112 -110 -112zM325 546h7v-76h-8c-23 0 -40 -8 -54 -25c4 -14 6 -30 6 -48v-111c0 -83 -41 -124 -124 -124c-14 0 -28 1 -40 4c-5 -7 -8 -17 -8 -27c0 -22 13 -36 31 -36h79
c68 -1 108 -42 108 -112c0 -89 -60 -150 -161 -150c-105 0 -150 39 -150 109c0 46 24 81 67 91c-21 15 -33 40 -33 73c0 27 10 51 26 68c-30 19 -45 55 -45 106v106c0 85 41 125 126 125c42 0 74 -10 94 -31c16 35 45 58 79 58zM199 282v118c-1 44 -15 62 -47 62
c-35 0 -49 -18 -49 -62v-118c0 -44 14 -62 49 -63c32 1 46 19 47 63zM208 27h-72c-47 0 -61 -21 -61 -58c0 -40 29 -63 86 -63c64 0 96 25 96 71c0 32 -17 50 -49 50z" />
    <glyph glyph-name="gcommaaccent.alt" horiz-adv-x="334" 
d="M196 653v-78h-81v59c0 58 15 83 42 109l28 -26c-18 -17 -25 -31 -25 -51v-13h36zM325 546h7v-76h-8c-23 0 -40 -8 -54 -25c4 -14 6 -30 6 -48v-111c0 -83 -41 -124 -124 -124c-14 0 -28 1 -40 4c-5 -7 -8 -17 -8 -27c0 -22 13 -36 31 -36h79c68 -1 108 -42 108 -112
c0 -89 -60 -150 -161 -150c-105 0 -150 39 -150 109c0 46 24 81 67 91c-21 15 -33 40 -33 73c0 27 10 51 26 68c-30 19 -45 55 -45 106v106c0 85 41 125 126 125c42 0 74 -10 94 -31c16 35 45 58 79 58zM199 282v118c-1 44 -15 62 -47 62c-35 0 -49 -18 -49 -62v-118
c0 -44 14 -62 49 -63c32 1 46 19 47 63zM208 27h-72c-47 0 -61 -21 -61 -58c0 -40 29 -63 86 -63c64 0 96 25 96 71c0 32 -17 50 -49 50z" />
    <glyph glyph-name="gdotaccent.alt" horiz-adv-x="334" 
d="M195 692v-99h-80v99h80zM325 546h7v-76h-8c-23 0 -40 -8 -54 -25c4 -14 6 -30 6 -48v-111c0 -83 -41 -124 -124 -124c-14 0 -28 1 -40 4c-5 -7 -8 -17 -8 -27c0 -22 13 -36 31 -36h79c68 -1 108 -42 108 -112c0 -89 -60 -150 -161 -150c-105 0 -150 39 -150 109
c0 46 24 81 67 91c-21 15 -33 40 -33 73c0 27 10 51 26 68c-30 19 -45 55 -45 106v106c0 85 41 125 126 125c42 0 74 -10 94 -31c16 35 45 58 79 58zM199 282v118c-1 44 -15 62 -47 62c-35 0 -49 -18 -49 -62v-118c0 -44 14 -62 49 -63c32 1 46 19 47 63zM208 27h-72
c-47 0 -61 -21 -61 -58c0 -40 29 -63 86 -63c64 0 96 25 96 71c0 32 -17 50 -49 50z" />
    <glyph glyph-name="f_f_t" horiz-adv-x="667" 
d="M612 65c11 0 26 1 46 4v-68c-24 -4 -43 -6 -61 -6c-70 0 -109 37 -109 103v355h-131v-453h-79v453h-55v-3h-80v-450h-79v450h-59v61h59v56c0 84 47 128 130 128c13 0 30 -2 40 -4v-68c-11 2 -25 3 -33 3c-39 0 -58 -19 -58 -73v-42h135v76c0 85 47 129 130 129
c11 0 30 -3 40 -5v-68c-11 2 -25 3 -33 3c-39 0 -58 -18 -58 -73v-62h131v171h80v-171h85v-58h-85l-1 -336c0 -37 14 -52 45 -52z" />
    <glyph glyph-name="f_t" horiz-adv-x="456" 
d="M401 65c11 0 26 1 46 4v-68c-24 -4 -43 -6 -61 -6c-70 0 -109 37 -109 103v355h-134v-453h-79v453h-59v58h59v76c0 85 47 129 130 129c11 0 30 -3 40 -5v-68c-11 2 -25 3 -33 3c-39 0 -58 -18 -58 -73v-62h134v171h80v-171h85v-58h-85l-1 -336c0 -37 14 -52 45 -52z" />
    <glyph glyph-name="ordfeminine" unicode="&#xaa;" horiz-adv-x="224" 
d="M204 473c2 0 4 0 5 1v-46c-5 -1 -9 -2 -13 -2c-32 0 -49 16 -52 47h-2c-7 -29 -30 -47 -58 -47c-46 0 -71 27 -71 71v7c0 38 15 59 73 88c38 18 48 29 48 49v8c0 17 -10 28 -30 28c-23 0 -33 -10 -33 -38v-13h-52v12c0 55 31 78 88 78c52 0 80 -25 80 -70v-154
c0 -12 5 -19 17 -19zM98 466c24 0 36 20 36 53v64c-5 -6 -13 -12 -27 -20c-32 -19 -39 -29 -39 -50v-12c0 -22 10 -35 30 -35z" />
    <glyph glyph-name="ordmasculine" unicode="&#xba;" horiz-adv-x="207" 
d="M104 423c-55 0 -86 28 -86 79v135c0 50 31 79 86 79c54 0 85 -29 85 -77v-139c0 -49 -30 -77 -85 -77zM104 463c21 0 31 13 31 40v131c0 28 -10 40 -31 40c-23 0 -32 -11 -32 -40v-131c0 -28 9 -40 32 -40z" />
    <glyph glyph-name="uni0394" unicode="&#x394;" horiz-adv-x="481" 
d="M284 706l181 -706h-450l184 706h85zM240 602l-126 -527h253z" />
    <glyph glyph-name="uni03A9" unicode="&#x3a9;" horiz-adv-x="423" 
d="M35 0v75h97c-63 43 -88 124 -88 279v101c0 195 44 263 169 263c126 0 167 -64 167 -263v-101c0 -156 -23 -226 -89 -279h97v-75h-156v59c44 40 62 118 62 274v121c0 151 -17 192 -81 192c-66 0 -83 -40 -83 -194v-119c0 -157 16 -230 61 -274v-59h-156z" />
    <glyph glyph-name="pi" unicode="&#x3c0;" horiz-adv-x="404" 
d="M70 0v450h-43v61h350v-62h-46v-449h-79v449h-102v-449h-80z" />
    <glyph glyph-name="zero" unicode="0" horiz-adv-x="427" 
d="M216 -10c-115 0 -169 53 -169 165v389c0 114 56 172 168 172c111 0 167 -58 167 -172v-389c0 -113 -53 -165 -166 -165zM215 63c55 0 80 31 80 99v383c0 66 -27 98 -80 98c-54 0 -82 -34 -82 -100v-379c0 -70 25 -101 82 -101z" />
    <glyph glyph-name="one" unicode="1" horiz-adv-x="286" 
d="M139 0v573c-32 -25 -70 -37 -111 -44l-8 76c66 10 120 46 141 99h65v-704h-87z" />
    <glyph glyph-name="two" unicode="2" horiz-adv-x="379" 
d="M124 80h225v-80h-317v50c0 63 18 101 60 158l102 158c40 60 54 93 54 142v59c0 52 -21 78 -62 78c-43 0 -67 -27 -67 -78v-78h-85v68c0 103 54 159 153 159c97 0 147 -49 147 -148v-63c0 -59 -22 -111 -68 -178l-111 -170c-21 -30 -30 -50 -31 -77z" />
    <glyph glyph-name="three" unicode="3" horiz-adv-x="391" 
d="M192 -11c-103 0 -160 58 -160 167v57l85 5v-47c0 -82 21 -113 78 -113c45 0 71 31 71 83v67c0 88 -35 121 -132 121h-11v71h22c73 0 117 42 117 110v57c0 55 -22 80 -69 80s-72 -27 -72 -77v-73h-83v80c0 88 58 139 160 139c96 0 149 -51 149 -141v-67
c0 -75 -42 -127 -111 -139v-2c78 -10 117 -59 117 -146v-72c0 -102 -58 -160 -161 -160z" />
    <glyph glyph-name="four" unicode="4" horiz-adv-x="394" 
d="M322 220h54v-72h-53v-148h-86v148h-222v67c75 216 100 320 100 491h92c0 -165 -34 -300 -112 -486h144v282h83v-282z" />
    <glyph glyph-name="five" unicode="5" horiz-adv-x="390" 
d="M202 -10c-111 0 -158 47 -158 158v66h86v-62c0 -63 20 -91 68 -91c51 0 71 28 71 109v150c0 50 -23 77 -66 77c-42 0 -74 -31 -76 -75v-9h-75l4 393h288v-80h-206l-3 -217h3c22 41 58 61 105 61c73 0 112 -47 112 -135v-161c0 -126 -50 -184 -153 -184z" />
    <glyph glyph-name="six" unicode="6" horiz-adv-x="415" 
d="M211 -10c-110 0 -164 55 -164 164v394c0 110 57 168 168 168c112 0 159 -52 159 -175v-30h-87v34c0 68 -23 99 -73 99c-55 0 -81 -31 -81 -94v-178h3c23 48 64 76 114 76c78 0 124 -48 124 -134v-165c0 -104 -57 -159 -163 -159zM212 62c52 0 78 30 78 88v139
c0 58 -24 87 -74 87c-54 0 -83 -37 -83 -106v-107c0 -67 26 -101 79 -101z" />
    <glyph glyph-name="seven" unicode="7" horiz-adv-x="363" 
d="M23 706h318v-73c-94 -187 -153 -379 -153 -595v-38h-92v27c0 169 60 394 163 601h-236v78z" />
    <glyph glyph-name="eight" unicode="8" horiz-adv-x="408" 
d="M204 -10c-108 0 -166 59 -166 169v62c0 83 36 132 107 145v2c-66 16 -101 61 -101 131v66c0 97 58 151 160 151c101 0 159 -54 159 -151v-66c0 -70 -34 -115 -101 -131v-2c72 -13 108 -62 108 -145v-62c0 -110 -59 -169 -166 -169zM204 394c46 0 74 34 74 91v76
c0 56 -26 86 -74 86c-49 0 -74 -29 -74 -86v-76c0 -58 27 -91 74 -91zM204 59c49 0 79 33 79 87v87c0 66 -28 103 -78 103c-52 0 -81 -37 -81 -103v-87c0 -55 30 -87 80 -87z" />
    <glyph glyph-name="nine" unicode="9" horiz-adv-x="415" 
d="M204 715c110 0 164 -55 164 -164v-394c0 -110 -57 -168 -168 -168c-112 0 -159 52 -159 175v30h87v-34c0 -68 23 -99 73 -99c55 0 81 31 81 94v178h-3c-23 -48 -64 -76 -114 -76c-78 0 -124 48 -124 134v165c0 104 57 159 163 159zM203 643c-52 0 -78 -30 -78 -88v-139
c0 -58 24 -87 74 -87c54 0 83 37 83 106v107c0 67 -26 101 -79 101z" />
    <glyph glyph-name="zero.tf" horiz-adv-x="430" 
d="M217 -10c-115 0 -169 53 -169 165v389c0 114 56 172 168 172c111 0 167 -58 167 -172v-389c0 -113 -53 -165 -166 -165zM216 63c55 0 80 31 80 99v383c0 66 -27 98 -80 98c-54 0 -82 -34 -82 -100v-379c0 -70 25 -101 82 -101z" />
    <glyph glyph-name="one.tf" horiz-adv-x="430" 
d="M272 77h121v-77h-345v77h138v504c-33 -27 -84 -47 -136 -52v76c74 13 138 53 155 99h67v-627z" />
    <glyph glyph-name="two.tf" horiz-adv-x="430" 
d="M150 80h227v-80h-319v50c0 62 18 99 61 158l101 158c42 63 57 96 57 142v59c0 53 -22 78 -63 78c-43 0 -68 -26 -68 -78v-78h-86v68c0 105 57 159 155 159c106 0 149 -59 149 -148v-63c0 -57 -21 -108 -73 -182l-106 -166c-25 -34 -34 -53 -35 -77z" />
    <glyph glyph-name="three.tf" horiz-adv-x="430" 
d="M209 -11c-122 0 -166 80 -166 167v59h86v-39c0 -68 11 -118 83 -118c52 0 77 36 77 90v60c0 95 -45 117 -140 121v71h4c72 0 131 33 131 110v54c0 57 -23 83 -74 83c-50 0 -77 -27 -77 -81v-69h-83v73c0 96 59 146 166 146c104 0 153 -58 153 -141v-67
c0 -82 -49 -128 -114 -139v-2c79 -10 120 -57 120 -146v-72c0 -112 -68 -160 -166 -160z" />
    <glyph glyph-name="four.tf" horiz-adv-x="430" 
d="M398 220v-77h-55l1 -143h-87v143h-224v67c58 127 104 315 104 496h93c0 -167 -49 -343 -113 -486h140v250h87l-1 -250h55z" />
    <glyph glyph-name="five.tf" horiz-adv-x="430" 
d="M223 -10c-111 0 -158 47 -158 158v66h86v-62c0 -63 20 -91 68 -91c51 0 71 28 71 109v150c0 50 -23 77 -66 77c-42 0 -74 -31 -76 -75v-9h-75l4 393h288v-80h-206l-3 -217h3c22 41 58 61 105 61c73 0 112 -47 112 -135v-161c0 -126 -50 -184 -153 -184z" />
    <glyph glyph-name="six.tf" horiz-adv-x="430" 
d="M221 -10c-110 0 -164 55 -164 164v394c0 110 57 168 168 168c112 0 159 -52 159 -175v-30h-87v34c0 68 -23 99 -73 99c-55 0 -81 -31 -81 -94v-178h3c23 48 64 76 114 76c78 0 124 -48 124 -134v-165c0 -104 -57 -159 -163 -159zM222 62c52 0 78 30 78 88v139
c0 58 -24 87 -74 87c-54 0 -83 -37 -83 -106v-107c0 -67 26 -101 79 -101z" />
    <glyph glyph-name="seven.tf" horiz-adv-x="430" 
d="M47 706h343v-73c-96 -184 -160 -379 -160 -595v-38h-92v27c0 169 64 396 170 601h-186l-3 -108h-72v186z" />
    <glyph glyph-name="eight.tf" horiz-adv-x="430" 
d="M218 -10c-108 0 -166 59 -166 169v62c0 83 36 132 107 145v2c-66 16 -101 61 -101 131v66c0 97 58 151 160 151c101 0 159 -54 159 -151v-66c0 -70 -34 -115 -101 -131v-2c72 -13 108 -62 108 -145v-62c0 -110 -59 -169 -166 -169zM218 394c46 0 74 34 74 91v76
c0 56 -26 86 -74 86c-49 0 -74 -29 -74 -86v-76c0 -58 27 -91 74 -91zM218 59c49 0 79 33 79 87v87c0 66 -28 103 -78 103c-52 0 -81 -37 -81 -103v-87c0 -55 30 -87 80 -87z" />
    <glyph glyph-name="nine.tf" horiz-adv-x="430" 
d="M209 715c110 0 164 -55 164 -164v-394c0 -110 -57 -168 -168 -168c-112 0 -159 52 -159 175v30h87v-34c0 -68 23 -99 73 -99c55 0 81 31 81 94v178h-3c-23 -48 -64 -76 -114 -76c-78 0 -124 48 -124 134v165c0 104 57 159 163 159zM208 643c-52 0 -78 -30 -78 -88v-139
c0 -58 24 -87 74 -87c54 0 83 37 83 106v107c0 67 -26 101 -79 101z" />
    <glyph glyph-name="uni2080" unicode="&#x2080;" horiz-adv-x="292" 
d="M147 -165c-76 0 -114 38 -114 109v235c0 75 38 114 113 114c76 0 113 -38 113 -114v-235c0 -72 -38 -109 -112 -109zM147 -114c34 0 51 19 51 62v230c0 45 -17 66 -52 66s-52 -22 -52 -68v-227c0 -43 17 -63 53 -63z" />
    <glyph glyph-name="uni2081" unicode="&#x2081;" horiz-adv-x="228" 
d="M102 -156v351c-17 -14 -42 -23 -75 -28v51c41 10 70 32 89 66h47v-440h-61z" />
    <glyph glyph-name="uni2082" unicode="&#x2082;" horiz-adv-x="271" 
d="M21 -155v45c1 39 10 59 45 98l84 103c22 27 30 47 30 77v20c0 35 -16 54 -47 54s-48 -19 -48 -53v-42h-59v48c0 59 44 98 110 98c67 0 105 -36 105 -99v-35c0 -35 -14 -65 -49 -106l-81 -99c-18 -23 -24 -33 -24 -49v-6h159v-54h-225z" />
    <glyph glyph-name="uni2083" unicode="&#x2083;" horiz-adv-x="281" 
d="M137 -163c-70 0 -112 40 -112 109v35h59v-33c0 -39 20 -62 55 -62c32 0 51 20 51 56v42c0 49 -25 66 -97 69v50h6c57 0 87 22 87 64v28c0 33 -17 49 -49 49c-31 0 -48 -17 -48 -50v-37h-58v37c0 62 40 99 108 99c69 0 107 -34 107 -96v-29c0 -48 -28 -79 -76 -88v-1
c55 -9 81 -37 81 -91v-44c0 -67 -42 -107 -114 -107z" />
    <glyph glyph-name="uni2084" unicode="&#x2084;" horiz-adv-x="293" 
d="M273 -19v-56h-42l1 -80h-62v80h-152v57c43 84 74 174 74 302h71c0 -120 -41 -221 -87 -303h94l1 140h60v-140h42z" />
    <glyph glyph-name="uni2085" unicode="&#x2085;" horiz-adv-x="288" 
d="M149 -161c-79 0 -113 31 -113 104v35h61v-37c0 -36 16 -54 50 -54c38 0 53 20 53 69v74c0 41 -15 58 -49 58c-30 0 -52 -18 -55 -46v-5h-54l2 247h209v-56h-150l-2 -132h2c17 28 43 42 78 42c52 0 80 -32 80 -88v-85c0 -87 -34 -126 -112 -126z" />
    <glyph glyph-name="uni2086" unicode="&#x2086;" horiz-adv-x="285" 
d="M145 -162c-75 0 -112 35 -112 104v242c0 74 37 109 114 109c76 0 108 -33 108 -112v-16h-61v17c0 43 -15 62 -47 62c-35 0 -53 -19 -53 -58v-106h2c15 31 41 48 76 48c52 1 83 -31 83 -86v-100c0 -69 -36 -104 -110 -104zM145 -114c33 0 49 18 49 54v85
c0 36 -16 55 -46 55c-36 0 -54 -22 -54 -65v-66c0 -42 18 -63 51 -63z" />
    <glyph glyph-name="uni2087" unicode="&#x2087;" horiz-adv-x="261" 
d="M18 285h226v-45c-70 -125 -113 -244 -113 -372v-23h-68v17c0 100 42 235 115 366h-160v57z" />
    <glyph glyph-name="uni2088" unicode="&#x2088;" horiz-adv-x="284" 
d="M142 -162c-69 0 -112 39 -112 104v44c0 50 21 77 68 88v1c-41 11 -63 39 -63 80v41c0 63 38 97 107 97c70 0 108 -34 108 -97v-41c0 -41 -23 -69 -64 -80v-1c47 -11 68 -38 68 -88v-44c0 -65 -42 -104 -112 -104zM142 95c31 0 48 19 48 56v39c0 37 -15 54 -48 54
s-48 -17 -48 -54v-39c0 -37 16 -56 48 -56zM142 -113c33 0 51 18 51 53v55c0 37 -19 59 -51 59s-51 -22 -51 -59v-55c0 -34 18 -53 51 -53z" />
    <glyph glyph-name="uni2089" unicode="&#x2089;" horiz-adv-x="285" 
d="M140 295c75 0 112 -35 112 -104v-242c0 -74 -37 -109 -114 -109c-76 0 -108 33 -108 112v16h61v-17c0 -43 15 -62 47 -62c35 0 53 19 53 58v106h-2c-15 -31 -41 -48 -76 -48c-52 -1 -83 31 -83 86v100c0 69 36 104 110 104zM140 247c-33 0 -49 -18 -49 -54v-85
c0 -36 16 -55 46 -55c36 0 54 22 54 65v66c0 42 -18 63 -51 63z" />
    <glyph glyph-name="zero.dnom" horiz-adv-x="292" 
d="M147 -15c-76 0 -114 38 -114 109v235c0 75 38 114 113 114c76 0 113 -38 113 -114v-235c0 -72 -38 -109 -112 -109zM147 36c34 0 51 19 51 62v230c0 45 -17 66 -52 66s-52 -22 -52 -68v-227c0 -43 17 -63 53 -63z" />
    <glyph glyph-name="one.dnom" horiz-adv-x="228" 
d="M102 -4v351c-17 -14 -42 -23 -75 -28v51c41 10 70 32 89 66h47v-440h-61z" />
    <glyph glyph-name="two.dnom" horiz-adv-x="271" 
d="M21 -3v45c1 39 10 59 45 98l84 103c22 27 30 47 30 77v20c0 35 -16 54 -47 54s-48 -19 -48 -53v-42h-59v48c0 59 44 98 110 98c67 0 105 -36 105 -99v-35c0 -35 -14 -65 -49 -106l-81 -99c-18 -23 -24 -33 -24 -49v-6h159v-54h-225z" />
    <glyph glyph-name="three.dnom" horiz-adv-x="281" 
d="M137 -11c-70 0 -112 40 -112 109v35h59v-33c0 -39 20 -62 55 -62c32 0 51 20 51 56v42c0 49 -25 66 -97 69v50h6c57 0 87 22 87 64v28c0 33 -17 49 -49 49c-31 0 -48 -17 -48 -50v-37h-58v37c0 62 40 99 108 99c69 0 107 -34 107 -96v-29c0 -48 -28 -79 -76 -88v-1
c55 -9 81 -37 81 -91v-44c0 -67 -42 -107 -114 -107z" />
    <glyph glyph-name="four.dnom" horiz-adv-x="293" 
d="M273 133v-56h-42l1 -80h-62v80h-152v57c43 84 74 174 74 302h71c0 -120 -41 -221 -87 -303h94l1 140h60v-140h42z" />
    <glyph glyph-name="five.dnom" horiz-adv-x="288" 
d="M149 -9c-79 0 -113 31 -113 104v35h61v-37c0 -36 16 -54 50 -54c38 0 53 20 53 69v74c0 41 -15 58 -49 58c-30 0 -52 -18 -55 -46v-5h-54l2 247h209v-56h-150l-2 -132h2c17 28 43 42 78 42c52 0 80 -32 80 -88v-85c0 -87 -34 -126 -112 -126z" />
    <glyph glyph-name="six.dnom" horiz-adv-x="285" 
d="M145 -10c-75 0 -112 35 -112 104v242c0 74 37 109 114 109c76 0 108 -33 108 -112v-16h-61v17c0 43 -15 62 -47 62c-35 0 -53 -19 -53 -58v-106h2c15 31 41 48 76 48c52 1 83 -31 83 -86v-100c0 -69 -36 -104 -110 -104zM145 38c33 0 49 18 49 54v85c0 36 -16 55 -46 55
c-36 0 -54 -22 -54 -65v-66c0 -42 18 -63 51 -63z" />
    <glyph glyph-name="seven.dnom" horiz-adv-x="261" 
d="M18 437h226v-45c-70 -125 -113 -244 -113 -372v-23h-68v17c0 100 42 235 115 366h-160v57z" />
    <glyph glyph-name="eight.dnom" horiz-adv-x="284" 
d="M142 -10c-69 0 -112 39 -112 104v44c0 50 21 77 68 88v1c-41 11 -63 39 -63 80v41c0 63 38 97 107 97c70 0 108 -34 108 -97v-41c0 -41 -23 -69 -64 -80v-1c47 -11 68 -38 68 -88v-44c0 -65 -42 -104 -112 -104zM142 247c31 0 48 19 48 56v39c0 37 -15 54 -48 54
s-48 -17 -48 -54v-39c0 -37 16 -56 48 -56zM142 39c33 0 51 18 51 53v55c0 37 -19 59 -51 59s-51 -22 -51 -59v-55c0 -34 18 -53 51 -53z" />
    <glyph glyph-name="nine.dnom" horiz-adv-x="285" 
d="M140 447c75 0 112 -35 112 -104v-242c0 -74 -37 -109 -114 -109c-76 0 -108 33 -108 112v16h61v-17c0 -43 15 -62 47 -62c35 0 53 19 53 58v106h-2c-15 -31 -41 -48 -76 -48c-52 -1 -83 31 -83 86v100c0 69 36 104 110 104zM140 399c-33 0 -49 -18 -49 -54v-85
c0 -36 16 -55 46 -55c36 0 54 22 54 65v66c0 42 -18 63 -51 63z" />
    <glyph glyph-name="zero.numr" horiz-adv-x="292" 
d="M147 257c-76 0 -114 38 -114 109v235c0 75 38 114 113 114c76 0 113 -38 113 -114v-235c0 -72 -38 -109 -112 -109zM147 308c34 0 51 19 51 62v230c0 45 -17 66 -52 66s-52 -22 -52 -68v-227c0 -43 17 -63 53 -63z" />
    <glyph glyph-name="one.numr" horiz-adv-x="228" 
d="M102 266v351c-17 -14 -42 -23 -75 -28v51c41 10 70 32 89 66h47v-440h-61z" />
    <glyph glyph-name="two.numr" horiz-adv-x="271" 
d="M21 267v45c1 39 10 59 45 98l84 103c22 27 30 47 30 77v20c0 35 -16 54 -47 54s-48 -19 -48 -53v-42h-59v48c0 59 44 98 110 98c67 0 105 -36 105 -99v-35c0 -35 -14 -65 -49 -106l-81 -99c-18 -23 -24 -33 -24 -49v-6h159v-54h-225z" />
    <glyph glyph-name="three.numr" horiz-adv-x="281" 
d="M137 259c-70 0 -112 40 -112 109v35h59v-33c0 -39 20 -62 55 -62c32 0 51 20 51 56v42c0 49 -25 66 -97 69v50h6c57 0 87 22 87 64v28c0 33 -17 49 -49 49c-31 0 -48 -17 -48 -50v-37h-58v37c0 62 40 99 108 99c69 0 107 -34 107 -96v-29c0 -48 -28 -79 -76 -88v-1
c55 -9 81 -37 81 -91v-44c0 -67 -42 -107 -114 -107z" />
    <glyph glyph-name="four.numr" horiz-adv-x="293" 
d="M273 403v-56h-42l1 -80h-62v80h-152v57c43 84 74 174 74 302h71c0 -120 -41 -221 -87 -303h94l1 140h60v-140h42z" />
    <glyph glyph-name="five.numr" horiz-adv-x="288" 
d="M149 261c-79 0 -113 31 -113 104v35h61v-37c0 -36 16 -54 50 -54c38 0 53 20 53 69v74c0 41 -15 58 -49 58c-30 0 -52 -18 -55 -46v-5h-54l2 247h209v-56h-150l-2 -132h2c17 28 43 42 78 42c52 0 80 -32 80 -88v-85c0 -87 -34 -126 -112 -126z" />
    <glyph glyph-name="six.numr" horiz-adv-x="285" 
d="M145 260c-75 0 -112 35 -112 104v242c0 74 37 109 114 109c76 0 108 -33 108 -112v-16h-61v17c0 43 -15 62 -47 62c-35 0 -53 -19 -53 -58v-106h2c15 31 41 48 76 48c52 1 83 -31 83 -86v-100c0 -69 -36 -104 -110 -104zM145 308c33 0 49 18 49 54v85c0 36 -16 55 -46 55
c-36 0 -54 -22 -54 -65v-66c0 -42 18 -63 51 -63z" />
    <glyph glyph-name="seven.numr" horiz-adv-x="261" 
d="M18 707h226v-45c-70 -125 -113 -244 -113 -372v-23h-68v17c0 100 42 235 115 366h-160v57z" />
    <glyph glyph-name="eight.numr" horiz-adv-x="284" 
d="M142 260c-69 0 -112 39 -112 104v44c0 50 21 77 68 88v1c-41 11 -63 39 -63 80v41c0 63 38 97 107 97c70 0 108 -34 108 -97v-41c0 -41 -23 -69 -64 -80v-1c47 -11 68 -38 68 -88v-44c0 -65 -42 -104 -112 -104zM142 517c31 0 48 19 48 56v39c0 37 -15 54 -48 54
s-48 -17 -48 -54v-39c0 -37 16 -56 48 -56zM142 309c33 0 51 18 51 53v55c0 37 -19 59 -51 59s-51 -22 -51 -59v-55c0 -34 18 -53 51 -53z" />
    <glyph glyph-name="nine.numr" horiz-adv-x="285" 
d="M140 717c75 0 112 -35 112 -104v-242c0 -74 -37 -109 -114 -109c-76 0 -108 33 -108 112v16h61v-17c0 -43 15 -62 47 -62c35 0 53 19 53 58v106h-2c-15 -31 -41 -48 -76 -48c-52 -1 -83 31 -83 86v100c0 69 36 104 110 104zM140 669c-33 0 -49 -18 -49 -54v-85
c0 -36 16 -55 46 -55c36 0 54 22 54 65v66c0 42 -18 63 -51 63z" />
    <glyph glyph-name="uni2070" unicode="&#x2070;" horiz-adv-x="292" 
d="M147 397c-76 0 -114 38 -114 109v235c0 75 38 114 113 114c76 0 113 -38 113 -114v-235c0 -72 -38 -109 -112 -109zM147 448c34 0 51 19 51 62v230c0 45 -17 66 -52 66s-52 -22 -52 -68v-227c0 -43 17 -63 53 -63z" />
    <glyph glyph-name="uni00B9" unicode="&#xb9;" horiz-adv-x="228" 
d="M102 406v351c-17 -14 -42 -23 -75 -28v51c41 10 70 32 89 66h47v-440h-61z" />
    <glyph glyph-name="uni00B2" unicode="&#xb2;" horiz-adv-x="271" 
d="M21 407v45c1 39 10 59 45 98l84 103c22 27 30 47 30 77v20c0 35 -16 54 -47 54s-48 -19 -48 -53v-42h-59v48c0 59 44 98 110 98c67 0 105 -36 105 -99v-35c0 -35 -14 -65 -49 -106l-81 -99c-18 -23 -24 -33 -24 -49v-6h159v-54h-225z" />
    <glyph glyph-name="uni00B3" unicode="&#xb3;" horiz-adv-x="281" 
d="M137 399c-70 0 -112 40 -112 109v35h59v-33c0 -39 20 -62 55 -62c32 0 51 20 51 56v42c0 49 -25 66 -97 69v50h6c57 0 87 22 87 64v28c0 33 -17 49 -49 49c-31 0 -48 -17 -48 -50v-37h-58v37c0 62 40 99 108 99c69 0 107 -34 107 -96v-29c0 -48 -28 -79 -76 -88v-1
c55 -9 81 -37 81 -91v-44c0 -67 -42 -107 -114 -107z" />
    <glyph glyph-name="uni2074" unicode="&#x2074;" horiz-adv-x="293" 
d="M273 543v-56h-42l1 -80h-62v80h-152v57c43 84 74 174 74 302h71c0 -120 -41 -221 -87 -303h94l1 140h60v-140h42z" />
    <glyph glyph-name="uni2075" unicode="&#x2075;" horiz-adv-x="288" 
d="M149 401c-79 0 -113 31 -113 104v35h61v-37c0 -36 16 -54 50 -54c38 0 53 20 53 69v74c0 41 -15 58 -49 58c-30 0 -52 -18 -55 -46v-5h-54l2 247h209v-56h-150l-2 -132h2c17 28 43 42 78 42c52 0 80 -32 80 -88v-85c0 -87 -34 -126 -112 -126z" />
    <glyph glyph-name="uni2076" unicode="&#x2076;" horiz-adv-x="285" 
d="M145 400c-75 0 -112 35 -112 104v242c0 74 37 109 114 109c76 0 108 -33 108 -112v-16h-61v17c0 43 -15 62 -47 62c-35 0 -53 -19 -53 -58v-106h2c15 31 41 48 76 48c52 1 83 -31 83 -86v-100c0 -69 -36 -104 -110 -104zM145 448c33 0 49 18 49 54v85c0 36 -16 55 -46 55
c-36 0 -54 -22 -54 -65v-66c0 -42 18 -63 51 -63z" />
    <glyph glyph-name="uni2077" unicode="&#x2077;" horiz-adv-x="261" 
d="M18 847h226v-45c-70 -125 -113 -244 -113 -372v-23h-68v17c0 100 42 235 115 366h-160v57z" />
    <glyph glyph-name="uni2078" unicode="&#x2078;" horiz-adv-x="284" 
d="M142 400c-69 0 -112 39 -112 104v44c0 50 21 77 68 88v1c-41 11 -63 39 -63 80v41c0 63 38 97 107 97c70 0 108 -34 108 -97v-41c0 -41 -23 -69 -64 -80v-1c47 -11 68 -38 68 -88v-44c0 -65 -42 -104 -112 -104zM142 657c31 0 48 19 48 56v39c0 37 -15 54 -48 54
s-48 -17 -48 -54v-39c0 -37 16 -56 48 -56zM142 449c33 0 51 18 51 53v55c0 37 -19 59 -51 59s-51 -22 -51 -59v-55c0 -34 18 -53 51 -53z" />
    <glyph glyph-name="uni2079" unicode="&#x2079;" horiz-adv-x="285" 
d="M140 857c75 0 112 -35 112 -104v-242c0 -74 -37 -109 -114 -109c-76 0 -108 33 -108 112v16h61v-17c0 -43 15 -62 47 -62c35 0 53 19 53 58v106h-2c-15 -31 -41 -48 -76 -48c-52 -1 -83 31 -83 86v100c0 69 36 104 110 104zM140 809c-33 0 -49 -18 -49 -54v-85
c0 -36 16 -55 46 -55c36 0 54 22 54 65v66c0 42 -18 63 -51 63z" />
    <glyph glyph-name="fraction" unicode="&#x2044;" horiz-adv-x="117" 
d="M-108 -12l-37 20l367 710l40 -21z" />
    <glyph glyph-name="onehalf" unicode="&#xbd;" horiz-adv-x="616" 
d="M120 -12l-37 20l367 710l40 -21zM102 266v351c-17 -14 -42 -23 -75 -28v51c41 10 70 32 89 66h47v-440h-61zM366 -3v45c1 39 10 59 45 98l84 103c22 27 30 47 30 77v20c0 35 -16 54 -47 54s-48 -19 -48 -53v-42h-59v48c0 59 44 98 110 98c67 0 105 -36 105 -99v-35
c0 -35 -14 -65 -49 -106l-81 -99c-18 -23 -24 -33 -24 -49v-6h159v-54h-225z" />
    <glyph glyph-name="onequarter" unicode="&#xbc;" horiz-adv-x="596" 
d="M450 718l40 -21l-370 -709l-37 20zM102 266v351c-17 -14 -42 -23 -75 -28v51c41 10 70 32 89 66h47v-440h-61zM576 133v-56h-42l1 -80h-62v80h-152v57c43 84 74 174 74 302h71c0 -120 -41 -221 -87 -303h94l1 140h60v-140h42z" />
    <glyph glyph-name="threequarters" unicode="&#xbe;" horiz-adv-x="650" 
d="M503 718l40 -21l-370 -709l-37 20zM251 366c0 -67 -42 -107 -114 -107c-70 0 -112 40 -112 109v35h59v-33c0 -39 20 -62 55 -62c32 0 51 20 51 56v42c0 49 -25 66 -97 69v50h6c57 0 87 22 87 64v28c0 33 -17 49 -49 49c-31 0 -48 -17 -48 -50v-37h-58v37
c0 62 40 99 108 99c69 0 107 -34 107 -96v-29c0 -48 -28 -79 -76 -88v-1c55 -9 81 -37 81 -91v-44zM630 133v-56h-42l1 -80h-62v80h-152v57c43 84 74 174 74 302h71c0 -120 -41 -221 -87 -303h94l1 140h60v-140h42z" />
    <glyph glyph-name="oneeighth" unicode="&#x215b;" horiz-adv-x="629" 
d="M120 -12l-37 20l367 710l40 -21zM102 266v351c-17 -14 -42 -23 -75 -28v51c41 10 70 32 89 66h47v-440h-61zM487 -10c-69 0 -112 39 -112 104v44c0 50 21 77 68 88v1c-41 11 -63 39 -63 80v41c0 63 38 97 107 97c70 0 108 -34 108 -97v-41c0 -41 -23 -69 -64 -80v-1
c47 -11 68 -38 68 -88v-44c0 -65 -42 -104 -112 -104zM487 247c31 0 48 19 48 56v39c0 37 -15 54 -48 54s-48 -17 -48 -54v-39c0 -37 16 -56 48 -56zM487 39c33 0 51 18 51 53v55c0 37 -19 59 -51 59s-51 -22 -51 -59v-55c0 -34 18 -53 51 -53z" />
    <glyph glyph-name="threeeighths" unicode="&#x215c;" horiz-adv-x="682" 
d="M173 -12l-37 20l367 710l40 -21zM137 259c-70 0 -112 40 -112 109v35h59v-33c0 -39 20 -62 55 -62c32 0 51 20 51 56v42c0 49 -25 66 -97 69v50h6c57 0 87 22 87 64v28c0 33 -17 49 -49 49c-31 0 -48 -17 -48 -50v-37h-58v37c0 62 40 99 108 99c69 0 107 -34 107 -96v-29
c0 -48 -28 -79 -76 -88v-1c55 -9 81 -37 81 -91v-44c0 -67 -42 -107 -114 -107zM540 -10c-69 0 -112 39 -112 104v44c0 50 21 77 68 88v1c-41 11 -63 39 -63 80v41c0 63 38 97 107 97c70 0 108 -34 108 -97v-41c0 -41 -23 -69 -64 -80v-1c47 -11 68 -38 68 -88v-44
c0 -65 -42 -104 -112 -104zM540 247c31 0 48 19 48 56v39c0 37 -15 54 -48 54s-48 -17 -48 -54v-39c0 -37 16 -56 48 -56zM540 39c33 0 51 18 51 53v55c0 37 -19 59 -51 59s-51 -22 -51 -59v-55c0 -34 18 -53 51 -53z" />
    <glyph glyph-name="fiveeighths" unicode="&#x215d;" horiz-adv-x="689" 
d="M180 -12l-37 20l367 710l40 -21zM149 261c-79 0 -113 31 -113 104v35h61v-37c0 -36 16 -54 50 -54c38 0 53 20 53 69v74c0 41 -15 58 -49 58c-30 0 -52 -18 -55 -46v-5h-54l2 247h209v-56h-150l-2 -132h2c17 28 43 42 78 42c52 0 80 -32 80 -88v-85
c0 -87 -34 -126 -112 -126zM547 -10c-69 0 -112 39 -112 104v44c0 50 21 77 68 88v1c-41 11 -63 39 -63 80v41c0 63 38 97 107 97c70 0 108 -34 108 -97v-41c0 -41 -23 -69 -64 -80v-1c47 -11 68 -38 68 -88v-44c0 -65 -42 -104 -112 -104zM547 247c31 0 48 19 48 56v39
c0 37 -15 54 -48 54s-48 -17 -48 -54v-39c0 -37 16 -56 48 -56zM547 39c33 0 51 18 51 53v55c0 37 -19 59 -51 59s-51 -22 -51 -59v-55c0 -34 18 -53 51 -53z" />
    <glyph glyph-name="seveneighths" unicode="&#x215e;" horiz-adv-x="600" 
d="M424 718l40 -21l-370 -709l-37 20zM63 284c0 100 42 235 115 366h-160v57h226v-45c-70 -125 -113 -244 -113 -372v-23h-68v17zM502 226c47 -11 68 -38 68 -88v-44c0 -65 -42 -104 -112 -104c-69 0 -112 39 -112 104v44c0 50 21 77 68 88v1c-41 11 -63 39 -63 80v41
c0 63 38 97 107 97c70 0 108 -34 108 -97v-41c0 -41 -23 -69 -64 -80v-1zM410 303c0 -37 16 -56 48 -56c31 0 48 19 48 56v39c0 37 -15 54 -48 54s-48 -17 -48 -54v-39zM509 92v55c0 37 -19 59 -51 59s-51 -22 -51 -59v-55c0 -34 18 -53 51 -53s51 18 51 53z" />
    <glyph glyph-name="asterisk" unicode="*" horiz-adv-x="281" 
d="M269 563l-94 -22l64 -73l-48 -35l-48 83l-50 -83l-49 33l65 76l-96 19l17 57l90 -37l-10 99h61l-11 -100l90 40z" />
    <glyph glyph-name="backslash" unicode="\" horiz-adv-x="271" 
d="M261 -147h-60l-191 853h60z" />
    <glyph glyph-name="periodcentered" unicode="&#xb7;" horiz-adv-x="151" 
d="M36 269v100h80v-100h-80z" />
    <glyph glyph-name="bullet" unicode="&#x2022;" horiz-adv-x="310" 
d="M155 210c-65 0 -117 51 -117 117s52 117 117 117s117 -51 117 -117s-52 -117 -117 -117z" />
    <glyph glyph-name="colon" unicode=":" horiz-adv-x="151" 
d="M36 373v100h80v-100h-80zM36 0v100h80v-100h-80z" />
    <glyph glyph-name="comma" unicode="," horiz-adv-x="151" 
d="M70 -125l-29 25c25 27 36 54 36 83v17h-40v100h80v-86c0 -63 -13 -102 -47 -139z" />
    <glyph glyph-name="ellipsis" unicode="&#x2026;" horiz-adv-x="377" 
d="M20 0v100h80v-100h-80zM149 0v100h80v-100h-80zM277 0v100h80v-100h-80z" />
    <glyph glyph-name="exclam" unicode="!" horiz-adv-x="213" 
d="M90 174l-37 532h107l-36 -532h-34zM66 0v98h80v-98h-80z" />
    <glyph glyph-name="exclamdown" unicode="&#xa1;" horiz-adv-x="213" 
d="M66 559h80v-98h-80v98zM90 385h34l36 -532h-107z" />
    <glyph glyph-name="numbersign" unicode="#" horiz-adv-x="510" 
d="M89 0l37 249h-116v56h124l18 122h-116v57h124l33 222h59l-32 -222h100l33 222h58l-32 -222h116v-57h-124l-18 -122h116v-56h-124l-37 -249h-59l37 249h-101l-36 -249h-60zM193 305h101l18 122h-101z" />
    <glyph glyph-name="period" unicode="." horiz-adv-x="151" 
d="M36 0v100h80v-100h-80z" />
    <glyph glyph-name="question" unicode="?" horiz-adv-x="371" 
d="M143 181v63c0 36 7 63 23 89l50 82c20 30 28 62 28 104v51c0 55 -19 79 -63 79c-42 0 -63 -29 -63 -87v-89h-83v79c0 110 49 164 151 164c96 0 144 -48 144 -143v-51c0 -55 -9 -89 -36 -129l-55 -87c-15 -22 -21 -43 -21 -70v-55h-75zM141 0v105h81v-105h-81z" />
    <glyph glyph-name="questiondown" unicode="&#xbf;" horiz-adv-x="371" 
d="M230 557v-105h-81v105h81zM228 376v-63c0 -36 -7 -63 -23 -89l-50 -82c-20 -30 -28 -62 -28 -104v-51c0 -55 19 -79 63 -79c42 0 63 29 63 87v89h83v-79c0 -110 -49 -164 -151 -164c-96 0 -144 48 -144 143v51c0 55 9 89 36 129l55 87c15 22 21 43 21 70v55h75z" />
    <glyph glyph-name="quotedbl" unicode="&#x22;" horiz-adv-x="267" 
d="M56 497l-19 209h77l-19 -209h-39zM172 497l-19 209h77l-19 -209h-39z" />
    <glyph glyph-name="quotesingle" unicode="'" horiz-adv-x="151" 
d="M56 497l-19 209h77l-19 -209h-39z" />
    <glyph glyph-name="semicolon" unicode=";" horiz-adv-x="151" 
d="M36 373v100h80v-100h-80zM70 -125l-29 25c25 27 36 54 36 83v17h-40v100h80v-86c0 -63 -13 -102 -47 -139z" />
    <glyph glyph-name="slash" unicode="/" horiz-adv-x="271" 
d="M10 -147l191 853h60l-191 -853h-60z" />
    <glyph glyph-name="underscore" unicode="_" horiz-adv-x="302" 
d="M0 -69v45h302v-45h-302z" />
    <glyph glyph-name="backslash.case" horiz-adv-x="271" 
d="M261 -77h-60l-191 853h60z" />
    <glyph glyph-name="periodcentered.case" horiz-adv-x="151" 
d="M36 310v100h80v-100h-80z" />
    <glyph glyph-name="bullet.case" horiz-adv-x="310" 
d="M155 260c-65 0 -117 51 -117 117s52 117 117 117s117 -51 117 -117s-52 -117 -117 -117z" />
    <glyph glyph-name="exclamdown.case" horiz-adv-x="213" 
d="M66 706h80v-98h-80v98zM90 532h34l36 -532h-107z" />
    <glyph glyph-name="questiondown.case" horiz-adv-x="371" 
d="M230 709v-105h-81v105h81zM228 528v-63c0 -36 -7 -63 -23 -89l-50 -82c-20 -30 -28 -62 -28 -104v-51c0 -55 19 -79 63 -79c42 0 63 29 63 87v89h83v-79c0 -110 -49 -164 -151 -164c-96 0 -144 48 -144 143v51c0 55 9 89 36 129l55 87c15 22 21 43 21 70v55h75z" />
    <glyph glyph-name="slash.case" horiz-adv-x="271" 
d="M10 -77l191 853h60l-191 -853h-60z" />
    <glyph glyph-name="braceleft" unicode="{" horiz-adv-x="259" 
d="M232 -134c-92 0 -143 48 -143 131v166c0 53 -23 80 -71 81v64c48 1 71 28 71 81v166c0 83 51 131 143 131h17v-55l-19 -3c-43 -4 -65 -31 -65 -82v-165c0 -63 -28 -96 -86 -104v-2c58 -8 86 -41 86 -104v-165c0 -51 22 -77 65 -82l19 -3v-55h-17z" />
    <glyph glyph-name="braceright" unicode="}" horiz-adv-x="259" 
d="M27 -134h-17v55l19 3c43 5 65 31 65 82v165c0 63 28 96 86 104v2c-58 8 -86 41 -86 104v165c0 51 -22 78 -65 82l-19 3v55h17c92 0 143 -48 143 -131v-166c0 -53 23 -80 71 -81v-64c-48 -1 -71 -28 -71 -81v-166c0 -83 -51 -131 -143 -131z" />
    <glyph glyph-name="bracketleft" unicode="[" horiz-adv-x="247" 
d="M227 617h-94v-682h94v-69h-174v820h174v-69z" />
    <glyph glyph-name="bracketright" unicode="]" horiz-adv-x="247" 
d="M194 686v-820h-174v69h94v682h-94v69h174z" />
    <glyph glyph-name="parenleft" unicode="(" horiz-adv-x="206" 
d="M144 -134c-73 131 -109 265 -109 410s36 281 109 410h56c-51 -135 -76 -272 -76 -410s25 -274 76 -410h-56z" />
    <glyph glyph-name="parenright" unicode=")" horiz-adv-x="206" 
d="M62 -134h-56c51 136 76 272 76 410s-25 275 -76 410h56c73 -129 109 -265 109 -410s-36 -279 -109 -410z" />
    <glyph glyph-name="braceleft.case" horiz-adv-x="259" 
d="M232 -89c-92 0 -143 48 -143 131v166c0 53 -23 80 -71 81v64c48 1 71 28 71 81v166c0 83 51 131 143 131h17v-55l-19 -3c-43 -4 -65 -31 -65 -82v-165c0 -63 -28 -96 -86 -104v-2c58 -8 86 -41 86 -104v-165c0 -51 22 -77 65 -82l19 -3v-55h-17z" />
    <glyph glyph-name="braceright.case" horiz-adv-x="259" 
d="M27 -89h-17v55l19 3c43 5 65 31 65 82v165c0 63 28 96 86 104v2c-58 8 -86 41 -86 104v165c0 51 -22 78 -65 82l-19 3v55h17c92 0 143 -48 143 -131v-166c0 -53 23 -80 71 -81v-64c-48 -1 -71 -28 -71 -81v-166c0 -83 -51 -131 -143 -131z" />
    <glyph glyph-name="bracketleft.case" horiz-adv-x="247" 
d="M227 662h-94v-682h94v-69h-174v820h174v-69z" />
    <glyph glyph-name="bracketright.case" horiz-adv-x="247" 
d="M194 731v-820h-174v69h94v682h-94v69h174z" />
    <glyph glyph-name="parenleft.case" horiz-adv-x="206" 
d="M144 -89c-73 131 -109 265 -109 410s36 281 109 410h56c-51 -135 -76 -272 -76 -410s25 -274 76 -410h-56z" />
    <glyph glyph-name="parenright.case" horiz-adv-x="206" 
d="M62 -89h-56c51 136 76 272 76 410s-25 275 -76 410h56c73 -129 109 -265 109 -410s-36 -279 -109 -410z" />
    <glyph glyph-name="emdash" unicode="&#x2014;" horiz-adv-x="453" 
d="M0 232v45h453v-45h-453z" />
    <glyph glyph-name="endash" unicode="&#x2013;" horiz-adv-x="302" 
d="M0 232v45h302v-45h-302z" />
    <glyph glyph-name="hyphen" unicode="-" horiz-adv-x="258" 
d="M23 267v70h212v-70h-212z" />
    <glyph glyph-name="emdash.case" horiz-adv-x="453" 
d="M0 302v45h453v-45h-453z" />
    <glyph glyph-name="endash.case" horiz-adv-x="302" 
d="M0 302v45h302v-45h-302z" />
    <glyph glyph-name="hyphen.case" horiz-adv-x="258" 
d="M23 327v70h212v-70h-212z" />
    <glyph glyph-name="guillemotleft" unicode="&#xab;" horiz-adv-x="333" 
d="M115 90l-90 195v8l90 195h70l-89 -199l89 -199h-70zM233 90l-90 195v8l90 195h70l-89 -199l89 -199h-70z" />
    <glyph glyph-name="guillemotright" unicode="&#xbb;" horiz-adv-x="333" 
d="M100 90h-70l89 199l-89 199h70l90 -195v-8zM218 90h-70l89 199l-89 199h70l90 -195v-8z" />
    <glyph glyph-name="guilsinglleft" unicode="&#x2039;" horiz-adv-x="214" 
d="M115 90l-90 195v8l90 195h70l-89 -199l89 -199h-70z" />
    <glyph glyph-name="guilsinglright" unicode="&#x203a;" horiz-adv-x="214" 
d="M99 90h-70l89 199l-89 199h70l90 -195v-8z" />
    <glyph glyph-name="quotedblbase" unicode="&#x201e;" horiz-adv-x="272" 
d="M70 -125l-29 25c25 27 36 54 36 83v17h-40v100h80v-86c0 -63 -13 -102 -47 -139zM191 -125l-29 25c25 27 36 54 36 83v17h-40v100h80v-86c0 -63 -13 -102 -47 -139z" />
    <glyph glyph-name="quotedblleft" unicode="&#x201c;" horiz-adv-x="272" 
d="M81 710l29 -25c-25 -27 -36 -54 -36 -83v-17h40v-100h-80v86c0 63 13 102 47 139zM202 710l29 -25c-25 -27 -36 -54 -36 -83v-17h40v-100h-80v86c0 63 13 102 47 139z" />
    <glyph glyph-name="quotedblright" unicode="&#x201d;" horiz-adv-x="272" 
d="M70 481l-29 25c25 27 36 54 36 83v17h-40v100h80v-86c0 -63 -13 -102 -47 -139zM191 481l-29 25c25 27 36 54 36 83v17h-40v100h80v-86c0 -63 -13 -102 -47 -139z" />
    <glyph glyph-name="quoteleft" unicode="&#x2018;" horiz-adv-x="151" 
d="M81 710l29 -25c-25 -27 -36 -54 -36 -83v-17h40v-100h-80v86c0 63 13 102 47 139z" />
    <glyph glyph-name="quoteright" unicode="&#x2019;" horiz-adv-x="151" 
d="M70 481l-29 25c25 27 36 54 36 83v17h-40v100h80v-86c0 -63 -13 -102 -47 -139z" />
    <glyph glyph-name="quotesinglbase" unicode="&#x201a;" horiz-adv-x="151" 
d="M70 -125l-29 25c25 27 36 54 36 83v17h-40v100h80v-86c0 -63 -13 -102 -47 -139z" />
    <glyph glyph-name="guillemotleft.case" horiz-adv-x="333" 
d="M115 140l-90 195v8l90 195h70l-89 -199l89 -199h-70zM233 140l-90 195v8l90 195h70l-89 -199l89 -199h-70z" />
    <glyph glyph-name="guillemotright.case" horiz-adv-x="333" 
d="M100 140h-70l89 199l-89 199h70l90 -195v-8zM218 140h-70l89 199l-89 199h70l90 -195v-8z" />
    <glyph glyph-name="guilsinglleft.case" horiz-adv-x="214" 
d="M115 140l-90 195v8l90 195h70l-89 -199l89 -199h-70z" />
    <glyph glyph-name="guilsinglright.case" horiz-adv-x="214" 
d="M99 140h-70l89 199l-89 199h70l90 -195v-8z" />
    <glyph glyph-name="space" unicode=" " horiz-adv-x="151" 
 />
    <glyph glyph-name="cent" unicode="&#xa2;" horiz-adv-x="341" 
d="M305 400h-77v85c0 50 -18 73 -54 73c-37 0 -56 -26 -56 -75v-252c0 -48 20 -73 56 -73c40 0 54 20 54 74v80h77v-81c0 -84 -36 -130 -108 -138v-93h-49v93c-72 9 -109 55 -109 134v256c0 78 38 125 109 134v89h49v-88c73 -7 108 -52 108 -138v-80z" />
    <glyph glyph-name="currency" unicode="&#xa4;" horiz-adv-x="414" 
d="M372 295c0 -37 -11 -70 -31 -97l43 -44l-36 -37l-44 43c-27 -19 -60 -30 -96 -30c-37 0 -70 11 -97 31l-45 -44l-37 36l45 45c-20 27 -31 61 -31 97s11 69 31 96l-44 45l36 37l45 -44c27 19 60 30 97 30c36 0 69 -11 96 -30l45 44l36 -37l-44 -44c20 -27 31 -61 31 -97z
M92 295c0 -65 51 -114 116 -114c64 0 115 49 114 114c1 63 -50 114 -114 114c-65 0 -116 -51 -116 -114z" />
    <glyph glyph-name="dollar" unicode="$" horiz-adv-x="386" 
d="M349 185c0 -106 -39 -159 -127 -167v-98h-49v98c-90 7 -135 57 -135 149v82h82v-71c0 -69 21 -93 78 -93c49 0 69 27 69 91c0 66 -13 88 -100 161c-98 82 -120 118 -120 195c0 97 43 149 127 158v99h49v-99c78 -8 119 -56 119 -143v-57h-82v52c0 58 -19 82 -64 82
s-67 -25 -67 -80c0 -59 11 -76 100 -153c100 -84 120 -118 120 -206z" />
    <glyph glyph-name="Euro" unicode="&#x20ac;" horiz-adv-x="452" 
d="M410 517l-87 -30v51c0 73 -24 105 -79 105c-54 0 -82 -34 -82 -100v-105h160l-21 -53h-139v-73h110l-22 -53h-88v-95c0 -70 26 -101 82 -101c53 0 79 33 79 99v81h87v-88c0 -113 -52 -165 -165 -165c-115 0 -169 53 -169 165v104h-64l22 53h42v73h-64l22 53h42v106
c0 114 56 172 168 172s166 -57 166 -176v-23z" />
    <glyph glyph-name="florin" unicode="&#x192;" horiz-adv-x="326" 
d="M275 647c-38 0 -46 -19 -53 -68l-23 -166h89l-19 -53h-77l-54 -397c-12 -87 -53 -115 -129 -115c-10 0 -16 0 -36 2l9 67c11 -1 17 -2 23 -2c34 0 49 15 56 64l51 381h-75l19 53h63l24 175c13 98 49 127 131 127c11 0 19 -1 36 -3l-9 -68c-10 2 -17 3 -26 3z" />
    <glyph glyph-name="sterling" unicode="&#xa3;" horiz-adv-x="402" 
d="M115 80h249v-80h-335v80h21c22 0 35 17 35 46v172h-56v53h56v222c0 93 49 143 142 143c85 0 131 -49 131 -139v-92h-85v91c0 46 -16 69 -51 69c-34 0 -51 -23 -51 -71v-223h143v-53h-143v-120c0 -51 -18 -81 -56 -95v-3z" />
    <glyph glyph-name="yen" unicode="&#xa5;" horiz-adv-x="392" 
d="M371 706l-100 -331h82v-53h-98l-16 -51v-27h114v-53h-114v-191h-89v191h-113v53h113v37l-12 41h-101v53h84l-100 331h93l45 -187l38 -164l39 165l46 186h89z" />
    <glyph glyph-name="plus" unicode="+" horiz-adv-x="453" 
d="M388 362v-54h-134v-135h-54v135h-134v54h134v135h54v-135h134z" />
    <glyph glyph-name="minus" unicode="&#x2212;" horiz-adv-x="453" 
d="M66 308v54h322v-54h-322z" />
    <glyph glyph-name="multiply" unicode="&#xd7;" horiz-adv-x="453" 
d="M123 192l-39 38l105 105l-105 106l38 38l105 -105l105 104l38 -39l-105 -104l105 -104l-38 -39l-104 105z" />
    <glyph glyph-name="divide" unicode="&#xf7;" horiz-adv-x="453" 
d="M187 416v100h80v-100h-80zM66 308v54h322v-54h-322zM187 154v100h80v-100h-80z" />
    <glyph glyph-name="equal" unicode="=" horiz-adv-x="453" 
d="M66 392v54h322v-54h-322zM66 224v54h322v-54h-322z" />
    <glyph glyph-name="notequal" unicode="&#x2260;" horiz-adv-x="453" 
d="M388 392h-112l-46 -114h158v-54h-180l-44 -108h-54l44 108h-88v54h111l46 114h-157v54h180l44 107h54l-44 -107h88v-54z" />
    <glyph glyph-name="greater" unicode="&#x3e;" horiz-adv-x="453" 
d="M71 491l321 -130v-52l-321 -130v56l255 100l-255 100v56z" />
    <glyph glyph-name="less" unicode="&#x3c;" horiz-adv-x="453" 
d="M382 491v-56l-255 -100l255 -100v-56l-321 130v52z" />
    <glyph glyph-name="greaterequal" unicode="&#x2265;" horiz-adv-x="453" 
d="M71 493l321 -112v-50l-321 -112v54l246 83l-246 82v55zM71 151v54h321v-54h-321z" />
    <glyph glyph-name="lessequal" unicode="&#x2264;" horiz-adv-x="453" 
d="M382 493v-55l-246 -82l246 -83v-54l-321 112v50zM61 151v54h321v-54h-321z" />
    <glyph glyph-name="plusminus" unicode="&#xb1;" horiz-adv-x="453" 
d="M388 341h-134v-105h134v-54h-322v54h134v105h-134v54h134v135h54v-135h134v-54z" />
    <glyph glyph-name="approxequal" unicode="&#x2248;" horiz-adv-x="453" 
d="M61 356l-39 31c46 55 70 70 119 70c30 0 60 -11 100 -30s63 -28 82 -28c23 0 42 12 69 43l38 -31c-41 -49 -68 -63 -108 -63c-31 0 -58 9 -96 28c-40 19 -64 29 -87 29c-28 0 -50 -16 -78 -49zM61 210l-39 31c46 55 70 70 119 70c30 0 60 -11 100 -30s63 -28 82 -28
c23 0 42 12 69 43l38 -31c-41 -49 -68 -63 -108 -63c-31 0 -58 9 -96 28c-40 19 -64 29 -87 29c-28 0 -50 -16 -78 -49z" />
    <glyph glyph-name="asciitilde" unicode="~" horiz-adv-x="453" 
d="M61 288l-39 31c46 55 70 70 119 70c30 0 60 -11 100 -30s63 -28 82 -28c23 0 42 12 69 43l38 -31c-41 -49 -68 -63 -108 -63c-31 0 -58 9 -96 28c-40 19 -64 29 -87 29c-28 0 -50 -16 -78 -49z" />
    <glyph glyph-name="logicalnot" unicode="&#xac;" horiz-adv-x="453" 
d="M339 244v133h-295v54h350v-187h-55z" />
    <glyph glyph-name="infinity" unicode="&#x221e;" horiz-adv-x="607" 
d="M154 213c-81 0 -138 55 -138 132s58 133 138 133c63 0 100 -20 150 -81c51 61 87 81 149 81c79 0 138 -56 138 -133c0 -78 -57 -132 -138 -132c-62 0 -98 20 -149 81c-50 -61 -87 -81 -150 -81zM154 275c36 0 68 21 107 70c-39 50 -71 71 -107 71c-39 0 -67 -29 -67 -71
c0 -41 28 -70 67 -70zM454 275c39 0 67 29 67 70c0 42 -28 71 -67 71c-36 0 -69 -21 -107 -71c38 -49 71 -70 107 -70z" />
    <glyph glyph-name="integral" unicode="&#x222b;" horiz-adv-x="240" 
d="M25 -159c-9 0 -24 2 -36 4v70c11 -2 21 -3 29 -3c32 0 51 14 51 63v616c0 85 46 125 125 125c9 0 24 -2 36 -5v-69c-11 2 -21 2 -29 2c-32 0 -51 -14 -51 -62v-617c0 -85 -46 -124 -125 -124z" />
    <glyph glyph-name="product" unicode="&#x220f;" horiz-adv-x="431" 
d="M53 -87v793h325v-793h-86v713h-153v-713h-86z" />
    <glyph glyph-name="summation" unicode="&#x2211;" horiz-adv-x="380" 
d="M129 -46h222v-76h-318v61l164 364l-164 343v60h314v-76h-215l158 -325v-3z" />
    <glyph glyph-name="radical" unicode="&#x221a;" horiz-adv-x="524" 
d="M431 706h60l-199 -791h-54l-131 330l-76 1v63h118l111 -297z" />
    <glyph glyph-name="partialdiff" unicode="&#x2202;" horiz-adv-x="354" 
d="M180 718c105 -98 136 -184 136 -349v-238c0 -91 -47 -139 -137 -139c-92 0 -140 48 -140 140v236c0 78 44 124 118 124c31 0 59 -13 77 -36c-8 91 -39 149 -113 210zM237 132v219c0 54 -18 78 -58 78c-43 0 -62 -23 -62 -79v-218c0 -55 19 -79 62 -79c40 0 58 25 58 79z
" />
    <glyph glyph-name="percent" unicode="%" horiz-adv-x="701" 
d="M184 -12l-37 20l367 710l40 -21zM147 257c-76 0 -114 38 -114 109v235c0 75 38 114 113 114c76 0 113 -38 113 -114v-235c0 -72 -38 -109 -112 -109zM147 308c34 0 51 19 51 62v230c0 45 -17 66 -52 66s-52 -22 -52 -68v-227c0 -43 17 -63 53 -63zM556 -15
c-76 0 -114 38 -114 109v235c0 75 38 114 113 114c76 0 113 -38 113 -114v-235c0 -72 -38 -109 -112 -109zM556 36c34 0 51 19 51 62v230c0 45 -17 66 -52 66s-52 -22 -52 -68v-227c0 -43 17 -63 53 -63z" />
    <glyph glyph-name="perthousand" unicode="&#x2030;" horiz-adv-x="973" 
d="M184 -12l-37 20l367 710l40 -21zM147 257c-76 0 -114 38 -114 109v235c0 75 38 114 113 114c76 0 113 -38 113 -114v-235c0 -72 -38 -109 -112 -109zM147 308c34 0 51 19 51 62v230c0 45 -17 66 -52 66s-52 -22 -52 -68v-227c0 -43 17 -63 53 -63zM556 -15
c-76 0 -114 38 -114 109v235c0 75 38 114 113 114c76 0 113 -38 113 -114v-235c0 -72 -38 -109 -112 -109zM829 -15c-76 0 -114 38 -114 109v235c0 75 38 114 113 114c76 0 113 -38 113 -114v-235c0 -72 -38 -109 -112 -109zM556 36c34 0 51 19 51 62v230
c0 45 -17 66 -52 66s-52 -22 -52 -68v-227c0 -43 17 -63 53 -63zM829 36c34 0 51 19 51 62v230c0 45 -17 66 -52 66s-52 -22 -52 -68v-227c0 -43 17 -63 53 -63z" />
    <glyph glyph-name="lozenge" unicode="&#x25ca;" horiz-adv-x="393" 
d="M174 64l-133 298l134 290h39l138 -292l-140 -296h-38zM196 165l86 197l-87 190l-83 -192z" />
    <glyph glyph-name="at" unicode="@" horiz-adv-x="645" 
d="M344 -103c77 0 156 35 221 98l29 -30c-68 -72 -157 -113 -249 -113c-220 0 -306 115 -306 409c0 308 82 428 291 428c199 0 275 -100 275 -363c0 -198 -41 -298 -123 -298c-49 0 -79 22 -89 64h-3c-14 -43 -52 -72 -95 -72c-72 0 -111 41 -111 116v24
c0 69 26 104 114 154c65 38 78 53 78 89v13c0 39 -15 56 -50 56c-42 1 -56 -18 -56 -75v-24h-75v25c0 96 39 134 137 134c81 0 126 -39 126 -111v-293c0 -28 11 -41 36 -41c41 0 62 78 62 236c0 240 -55 318 -227 318c-180 0 -238 -91 -238 -380c0 -266 68 -364 253 -364z
M314 83c41 0 63 30 63 85v138c-8 -11 -23 -23 -46 -37c-54 -32 -69 -56 -69 -102v-22c0 -41 18 -62 52 -62z" />
    <glyph glyph-name="ampersand" unicode="&#x26;" horiz-adv-x="485" 
d="M444 61l16 1v-64c-7 -2 -18 -3 -32 -3c-39 0 -70 15 -97 41c-37 -29 -82 -45 -133 -45c-106 0 -173 73 -173 182c0 81 46 145 112 213c-36 79 -51 129 -51 184c0 89 49 148 126 148c73 0 115 -48 115 -136c0 -84 -37 -148 -98 -213c11 -24 24 -50 39 -80
c28 -55 50 -101 72 -137c21 42 32 97 32 166v74h73v-73c0 -95 -21 -173 -59 -230c18 -18 37 -28 58 -28zM210 651c-31 0 -49 -27 -49 -77c0 -38 7 -70 36 -135c37 45 55 87 55 143c0 48 -16 69 -42 69zM107 177c0 -67 38 -113 97 -113c31 0 59 10 83 29
c-25 39 -50 89 -80 149c-14 27 -26 52 -37 74c-39 -44 -63 -88 -63 -139z" />
    <glyph glyph-name="paragraph" unicode="&#xb6;" horiz-adv-x="493" 
d="M206 -147v464c-104 18 -158 82 -158 188c0 129 80 201 222 201h181v-57h-58v-796h-62v796h-64v-796h-61z" />
    <glyph glyph-name="section" unicode="&#xa7;" horiz-adv-x="382" 
d="M358 300c0 -64 -28 -110 -80 -133c31 -37 43 -73 43 -119c0 -92 -51 -143 -144 -143c-102 0 -149 47 -149 150v47h77v-43c0 -62 22 -90 71 -90c46 -1 67 23 67 75c0 43 -13 67 -60 109l-75 64c-51 44 -72 83 -72 133c0 63 32 105 90 120c-37 39 -52 73 -52 115
c0 86 49 131 140 131c85 0 130 -44 130 -129v-37h-73v22c0 57 -17 81 -60 81c-38 0 -59 -21 -60 -62c-1 -32 12 -52 65 -97l75 -64c49 -45 67 -80 67 -130zM171 267l67 -59c29 13 43 39 43 79c0 33 -11 54 -46 86l-62 55c-39 -5 -60 -28 -61 -71c0 -29 14 -50 59 -90z" />
    <glyph glyph-name="copyright" unicode="&#xa9;" horiz-adv-x="617" 
d="M308 -9c-194 0 -258 90 -258 363c0 274 65 365 258 365c195 0 259 -89 259 -365c0 -274 -64 -363 -259 -363zM308 19c172 0 225 79 225 336s-53 336 -225 336c-171 0 -225 -80 -225 -336s54 -336 225 -336zM311 109c-83 0 -126 43 -126 126v239c0 84 44 128 127 128
c82 0 123 -43 123 -130v-75h-74v79c0 46 -16 68 -49 68c-35 0 -52 -24 -52 -70v-235c0 -47 16 -68 52 -68s50 19 50 69v74h73v-76c0 -86 -42 -129 -124 -129z" />
    <glyph glyph-name="registered" unicode="&#xae;" horiz-adv-x="617" 
d="M308 719c195 0 259 -89 259 -365c0 -274 -64 -363 -259 -363c-194 0 -258 90 -258 363c0 274 65 365 258 365zM308 19c172 0 225 79 225 336s-53 336 -225 336c-171 0 -225 -80 -225 -336s54 -336 225 -336zM435 469c0 -79 -18 -122 -63 -139l72 -216h-74l-62 208h-31
v-208h-68v486h102c91 0 124 -34 124 -131zM277 544v-166h31c46 0 61 22 61 90c0 56 -16 76 -58 76h-34z" />
    <glyph glyph-name="trademark" unicode="&#x2122;" horiz-adv-x="680" 
d="M15 649v57h225v-57h-82v-394h-62v394h-81zM525 706h100v-451h-60l1 83l4 335l-89 -418h-60l-87 428v-1l6 -341v-86h-60v451h104l69 -358z" />
    <glyph glyph-name="degree" unicode="&#xb0;" horiz-adv-x="382" 
d="M191 408c-85 0 -154 69 -154 154c0 86 69 154 154 154s154 -68 154 -154c0 -85 -69 -154 -154 -154zM191 457c57 0 105 48 105 105c0 59 -48 106 -105 106c-59 0 -106 -47 -106 -106c0 -57 47 -105 106 -105z" />
    <glyph glyph-name="bar" unicode="|" horiz-adv-x="238" 
d="M80 -147v933h78v-933h-78z" />
    <glyph glyph-name="brokenbar" unicode="&#xa6;" horiz-adv-x="238" 
d="M80 409v377h78v-377h-78zM80 -147v378h78v-378h-78z" />
    <glyph glyph-name="dagger" unicode="&#x2020;" horiz-adv-x="278" 
d="M260 587l-1 -59l-103 11l13 -224h-61l14 224l-104 -11v59l101 -12l-11 105h61l-10 -105z" />
    <glyph glyph-name="daggerdbl" unicode="&#x2021;" horiz-adv-x="278" 
d="M108 238l11 104l-101 -12v60l101 -12v161l-101 -11v59l101 -12l-11 105h61l-11 -105l102 12l-1 -59l-100 11v-161l100 12l1 -60l-102 12l11 -104h-61z" />
    <glyph glyph-name="asciicircum" unicode="^" horiz-adv-x="508" 
d="M438 348h-72l-112 278l-112 -278h-73l155 358h63z" />
    <glyph glyph-name="at.case" horiz-adv-x="645" 
d="M344 -23c77 0 156 35 221 98l29 -30c-68 -72 -157 -113 -249 -113c-220 0 -306 115 -306 409c0 308 82 428 291 428c199 0 275 -100 275 -363c0 -198 -41 -298 -123 -298c-49 0 -79 22 -89 64h-3c-14 -43 -52 -72 -95 -72c-72 0 -111 41 -111 116v24c0 69 26 104 114 154
c65 38 78 53 78 89v13c0 39 -15 56 -50 56c-42 1 -56 -18 -56 -75v-24h-75v25c0 96 39 134 137 134c81 0 126 -39 126 -111v-293c0 -28 11 -41 36 -41c41 0 62 78 62 236c0 240 -55 318 -227 318c-180 0 -238 -91 -238 -380c0 -266 68 -364 253 -364zM314 163
c41 0 63 30 63 85v138c-8 -11 -23 -23 -46 -37c-54 -32 -69 -56 -69 -102v-22c0 -41 18 -62 52 -62z" />
    <glyph glyph-name="uni0308" unicode="&#x308;" 
d="M-112 597v91h73v-91h-73zM39 597v91h73v-91h-73z" />
    <glyph glyph-name="uni0307" unicode="&#x307;" 
d="M-40 593v99h80v-99h-80z" />
    <glyph glyph-name="gravecomb" unicode="&#x300;" 
d="M84 578h-69l-100 124h97z" />
    <glyph glyph-name="acutecomb" unicode="&#x301;" 
d="M-84 578l72 124h97l-100 -124h-69z" />
    <glyph glyph-name="uni030B" unicode="&#x30b;" 
d="M-155 578l72 124h97l-100 -124h-69zM-12 578l72 124h97l-100 -124h-69z" />
    <glyph glyph-name="caroncomb.alt" 
d="M-47 563v143h94l-29 -143h-65z" />
    <glyph glyph-name="uni0302" unicode="&#x302;" 
d="M115 576h-66l-49 60l-49 -60h-66l87 123h57z" />
    <glyph glyph-name="uni030C" unicode="&#x30c;" 
d="M49 697h66l-86 -123h-57l-87 123h66l49 -60z" />
    <glyph glyph-name="uni0306" unicode="&#x306;" 
d="M0 569c-75 0 -100 39 -110 112l51 9c8 -41 16 -63 59 -63s51 22 59 63l51 -9c-10 -73 -35 -112 -110 -112z" />
    <glyph glyph-name="uni030A" unicode="&#x30a;" 
d="M0 554c-49 0 -85 36 -85 85c0 48 36 84 85 84c48 0 84 -36 84 -84c0 -49 -36 -85 -84 -85zM0 586c28 0 50 22 50 53c0 30 -22 52 -50 52c-29 0 -51 -22 -51 -52c0 -31 22 -53 51 -53z" />
    <glyph glyph-name="tildecomb" unicode="&#x303;" 
d="M-132 574c0 61 18 103 71 103c22 0 45 -10 65 -19c21 -9 40 -19 55 -19c22 0 28 19 29 38h45c-1 -64 -22 -103 -66 -103c-20 0 -46 11 -71 21c-21 9 -40 17 -52 17c-22 0 -29 -20 -30 -38h-46z" />
    <glyph glyph-name="uni0304" unicode="&#x304;" 
d="M-108 606v63h216v-63h-216z" />
    <glyph glyph-name="uni0312" unicode="&#x312;" 
d="M-40 575v59c0 58 15 83 42 109l28 -26c-18 -17 -25 -31 -25 -51v-13h36v-78h-81z" />
    <glyph glyph-name="uni0326" unicode="&#x326;" 
d="M2 -174l-28 27c12 12 17 23 17 35v8h-37v68h93v-54c0 -40 -16 -63 -45 -84z" />
    <glyph glyph-name="uni0327" unicode="&#x327;" 
d="M6 -30c43 -3 72 -25 72 -64c0 -42 -36 -65 -96 -65c-16 0 -33 2 -54 7v38c14 -4 26 -5 37 -5c26 0 39 10 39 27c0 21 -16 28 -42 30v65h44v-33z" />
    <glyph glyph-name="uni0328" unicode="&#x328;" 
d="M17 -159c-50 0 -80 22 -80 66v6c0 40 25 66 48 90h58c-24 -26 -36 -50 -36 -67v-4c0 -21 11 -28 37 -28h18v-63h-45z" />
    <glyph glyph-name="uni0308.case" 
d="M-112 749v91h73v-91h-73zM39 749v91h73v-91h-73z" />
    <glyph glyph-name="uni0307.case" 
d="M-40 747v99h80v-99h-80z" />
    <glyph glyph-name="gravecomb.case" 
d="M79 752h-68l-90 100h95z" />
    <glyph glyph-name="acutecomb.case" 
d="M-78 752l63 100h95l-90 -100h-68z" />
    <glyph glyph-name="uni030B.case" 
d="M-146 752l63 100h95l-90 -100h-68zM-11 752l63 100h95l-90 -100h-68z" />
    <glyph glyph-name="uni0302.case" 
d="M124 750h-66l-58 50l-58 -50h-66l97 102h55z" />
    <glyph glyph-name="uni030C.case" 
d="M58 853h66l-96 -102h-55l-97 102h66l58 -50z" />
    <glyph glyph-name="uni0306.case" 
d="M0 744c-79 0 -102 39 -114 105l50 9c9 -37 18 -59 64 -59s55 22 64 59l50 -9c-12 -66 -35 -105 -114 -105z" />
    <glyph glyph-name="uni030A.case" 
d="M0 741c-46 0 -80 32 -80 75c0 40 34 72 80 72c45 0 79 -32 79 -72c0 -43 -34 -75 -79 -75zM0 773c24 0 42 18 42 43c0 23 -18 40 -42 40c-25 0 -44 -17 -44 -40c0 -25 19 -43 44 -43z" />
    <glyph glyph-name="tildecomb.case" 
d="M-132 747c0 61 18 103 71 103c22 0 45 -10 65 -19c21 -9 40 -19 55 -19c22 0 28 19 29 38h45c-1 -64 -22 -103 -66 -103c-20 0 -46 11 -71 21c-21 9 -40 17 -52 17c-22 0 -29 -20 -30 -38h-46z" />
    <glyph glyph-name="uni0304.case" 
d="M-108 760v63h216v-63h-216z" />
    <glyph glyph-name="uni0326.case" 
d="M2 -174l-28 27c12 12 17 23 17 35v8h-37v68h93v-54c0 -40 -16 -63 -45 -84z" />
    <glyph glyph-name="uni0327.case" 
d="M6 -30c43 -3 72 -25 72 -64c0 -42 -36 -65 -96 -65c-16 0 -33 2 -54 7v38c14 -4 26 -5 37 -5c26 0 39 10 39 27c0 21 -16 28 -42 30v65h44v-33z" />
    <glyph glyph-name="uni0328.case" 
d="M17 -159c-50 0 -80 22 -80 66v6c0 40 25 66 48 90h58c-24 -26 -36 -50 -36 -67v-4c0 -21 11 -28 37 -28h18v-63h-45z" />
    <glyph glyph-name="acute" unicode="&#xb4;" horiz-adv-x="302" 
d="M67 578l72 124h97l-100 -124h-69z" />
    <glyph glyph-name="breve" unicode="&#x2d8;" horiz-adv-x="302" 
d="M151 569c-75 0 -100 39 -110 112l51 9c8 -41 16 -63 59 -63s51 22 59 63l51 -9c-10 -73 -35 -112 -110 -112z" />
    <glyph glyph-name="caron" unicode="&#x2c7;" horiz-adv-x="302" 
d="M200 697h66l-86 -123h-57l-87 123h66l49 -60z" />
    <glyph glyph-name="cedilla" unicode="&#xb8;" horiz-adv-x="302" 
d="M155 -30c43 -3 72 -25 72 -64c0 -42 -36 -65 -96 -65c-16 0 -33 2 -54 7v38c14 -4 26 -5 37 -5c26 0 39 10 39 27c0 21 -16 28 -42 30v65h44v-33z" />
    <glyph glyph-name="circumflex" unicode="&#x2c6;" horiz-adv-x="302" 
d="M266 576h-66l-49 60l-49 -60h-66l87 123h57z" />
    <glyph glyph-name="dieresis" unicode="&#xa8;" horiz-adv-x="302" 
d="M39 597v91h73v-91h-73zM190 597v91h73v-91h-73z" />
    <glyph glyph-name="dotaccent" unicode="&#x2d9;" horiz-adv-x="302" 
d="M111 593v99h80v-99h-80z" />
    <glyph glyph-name="grave" unicode="`" horiz-adv-x="302" 
d="M236 578h-69l-100 124h97z" />
    <glyph glyph-name="hungarumlaut" unicode="&#x2dd;" horiz-adv-x="302" 
d="M-5 578l72 124h97l-100 -124h-69zM138 578l72 124h97l-100 -124h-69z" />
    <glyph glyph-name="macron" unicode="&#xaf;" horiz-adv-x="302" 
d="M43 606v63h216v-63h-216z" />
    <glyph glyph-name="ogonek" unicode="&#x2db;" horiz-adv-x="302" 
d="M169 -159c-50 0 -80 22 -80 66v6c0 40 25 66 48 90h58c-24 -26 -36 -50 -36 -67v-4c0 -21 11 -28 37 -28h18v-63h-45z" />
    <glyph glyph-name="ring" unicode="&#x2da;" horiz-adv-x="302" 
d="M151 554c-49 0 -85 36 -85 85c0 48 36 84 85 84c48 0 84 -36 84 -84c0 -49 -36 -85 -84 -85zM151 586c28 0 50 22 50 53c0 30 -22 52 -50 52c-29 0 -51 -22 -51 -52c0 -31 22 -53 51 -53z" />
    <glyph glyph-name="tilde" unicode="&#x2dc;" horiz-adv-x="302" 
d="M20 574c0 61 18 103 71 103c22 0 45 -10 65 -19c21 -9 40 -19 55 -19c22 0 28 19 29 38h45c-1 -64 -22 -103 -66 -103c-20 0 -46 11 -71 21c-21 9 -40 17 -52 17c-22 0 -29 -20 -30 -38h-46z" />
    </font>
</defs>
</svg>
