<?xml version="1.0" standalone="no"?>
<!DOCTYPE svg PUBLIC "-//W3C//DTD SVG 1.1//EN" "http://www.w3.org/Graphics/SVG/1.1/DTD/svg11.dtd" >
<svg>
<metadata>
Created by FontForge 20120731 at Mon Aug 12 12:59:25 2019
 By www-data
Copyright \(c\) 2016 by Octavio Pardo Virto. All rights reserved.
</metadata>
<defs>
<font id="NeulandGroteskCondensedBold" horiz-adv-x="0" >
  <font-face 
    font-family="Neuland Grotesk Condensed Bold"
    font-weight="700"
    font-stretch="condensed"
    units-per-em="1000"
    panose-1="2 0 8 6 2 0 0 2 0 4"
    ascent="800"
    descent="-200"
    x-height="521"
    cap-height="706"
    bbox="-186 -191 1004 904"
    underline-thickness="66"
    underline-position="-14"
    unicode-range="U+0020-FB02"
  />
<missing-glyph horiz-adv-x="427" 
d="M350 706v-853h-271v853h271zM284 649h-141v-28h56v-32h-57v-28h142v28h-56v32h56v28zM228 539h-86v-89h142v29h-56v60zM199 510v-31h-28v31h28zM284 427h-142v-28h57v-32h-57v-28h86v60h56v28zM284 376h-28v-56h-114v-29h142v85zM284 272h-85v-48h29v20h28v-40h-85v68
h-29v-97h142v97zM284 124h-142v-96h142v96zM256 96v-40h-85v40h85zM284 8h-142v-28h60l-60 -40v-28h142v28h-87l60 40h27v28z" />
    <glyph glyph-name="f_f" unicode="ff" horiz-adv-x="520" 
d="M477 613c-28 0 -46 -10 -46 -58v-34h77v-85h-77v-436h-119v436h-53v-6h-77v-430h-119v430h-58v91h58v29c0 100 52 144 150 144c20 0 41 -3 53 -6v-99c-12 2 -28 3 -38 3c-28 0 -46 -10 -46 -58v-13h130v50c0 100 52 144 150 144c16 0 41 -4 53 -7v-99c-12 2 -28 4 -38 4z
" />
    <glyph glyph-name="f_f_i" unicode="ffi" horiz-adv-x="700" 
d="M656 521v-521h-119v430h-112v-430h-119v430h-124v-430h-119v430h-58v91h58v29c0 100 52 144 150 144c20 0 41 -3 53 -6v-99c-12 2 -28 3 -38 3c-28 0 -46 -10 -46 -58v-13h124v29c0 112 71 165 180 165c30 0 64 -5 100 -13v-99c-33 7 -62 11 -85 11
c-51 0 -76 -20 -76 -74v-19h231z" />
    <glyph glyph-name="f_f_l" unicode="ffl" horiz-adv-x="717" 
d="M554 706h119v-706h-119v430h-123v-430h-119v430h-130v-430h-119v430h-58v91h58v29c0 100 52 144 150 144c20 0 41 -3 53 -6v-99c-12 2 -28 3 -38 3c-28 0 -46 -10 -46 -58v-13h130v50c0 100 52 144 150 144c16 0 41 -4 53 -7v-99c-12 2 -28 4 -38 4
c-28 0 -46 -10 -46 -58v-34h123v185z" />
    <glyph glyph-name="fi" unicode="fi" horiz-adv-x="457" 
d="M413 521v-521h-119v430h-112v-430h-119v430h-58v91h58v29c0 112 71 165 180 165c30 0 64 -5 100 -13v-99c-33 7 -62 11 -85 11c-51 0 -76 -20 -76 -74v-19h231z" />
    <glyph glyph-name="fl" unicode="fl" horiz-adv-x="468" 
d="M305 706h119v-706h-119v430h-123v-430h-119v430h-58v91h58v50c0 100 52 144 150 144c16 0 41 -4 53 -7v-99c-12 2 -28 4 -38 4c-28 0 -46 -10 -46 -58v-34h123v185z" />
    <glyph glyph-name=".notdef" horiz-adv-x="427" 
d="M350 706v-853h-271v853h271zM284 649h-141v-28h56v-32h-57v-28h142v28h-56v32h56v28zM228 539h-86v-89h142v29h-56v60zM199 510v-31h-28v31h28zM284 427h-142v-28h57v-32h-57v-28h86v60h56v28zM284 376h-28v-56h-114v-29h142v85zM284 272h-85v-48h29v20h28v-40h-85v68
h-29v-97h142v97zM284 124h-142v-96h142v96zM256 96v-40h-85v40h85zM284 8h-142v-28h60l-60 -40v-28h142v28h-87l60 40h27v28z" />
    <glyph glyph-name="A" unicode="A" horiz-adv-x="438" 
d="M298 0l-17 119h-123l-16 -119h-132l132 706h149l137 -706h-130zM172 233h92l-21 148l-23 247l-28 -246z" />
    <glyph glyph-name="Aacute" unicode="&#xc1;" horiz-adv-x="438" 
d="M344 860l-96 -109h-102l65 109h133zM298 0l-17 119h-123l-16 -119h-132l132 706h149l137 -706h-130zM172 233h92l-21 148l-23 247l-28 -246z" />
    <glyph glyph-name="Abreve" unicode="&#x102;" horiz-adv-x="438" 
d="M218 739c-88 0 -117 43 -129 122l73 11c8 -38 17 -60 56 -60s48 22 56 60l73 -11c-12 -79 -41 -122 -129 -122zM298 0l-17 119h-123l-16 -119h-132l132 706h149l137 -706h-130zM172 233h92l-21 148l-23 247l-28 -246z" />
    <glyph glyph-name="Acircumflex" unicode="&#xc2;" horiz-adv-x="438" 
d="M219 794l-47 -47h-102l107 115h83l107 -115h-102zM298 0l-17 119h-123l-16 -119h-132l132 706h149l137 -706h-130zM172 233h92l-21 148l-23 247l-28 -246z" />
    <glyph glyph-name="Adieresis" unicode="&#xc4;" horiz-adv-x="438" 
d="M186 853v-105h-103v105h103zM353 853v-105h-103v105h103zM298 0l-17 119h-123l-16 -119h-132l132 706h149l137 -706h-130zM172 233h92l-21 148l-23 247l-28 -246z" />
    <glyph glyph-name="Agrave" unicode="&#xc0;" horiz-adv-x="438" 
d="M297 751h-102l-96 109h133zM298 0l-17 119h-123l-16 -119h-132l132 706h149l137 -706h-130zM172 233h92l-21 148l-23 247l-28 -246z" />
    <glyph glyph-name="Amacron" unicode="&#x100;" horiz-adv-x="438" 
d="M337 838v-91h-238v91h238zM298 0l-17 119h-123l-16 -119h-132l132 706h149l137 -706h-130zM172 233h92l-21 148l-23 247l-28 -246z" />
    <glyph glyph-name="Aogonek" unicode="&#x104;" horiz-adv-x="438" 
d="M386 -52c0 -16 9 -22 28 -22h14v-85h-49c-55 0 -88 24 -88 70v6c0 34 17 61 38 83h-31l-17 119h-123l-16 -119h-132l132 706h149l137 -706h-18c-16 -19 -24 -34 -24 -47v-5zM172 233h92l-21 148l-23 247l-28 -246z" />
    <glyph glyph-name="Aring" unicode="&#xc5;" horiz-adv-x="438" 
d="M218 741c-53 0 -92 36 -92 83c0 45 39 80 92 80c52 0 91 -35 91 -80c0 -47 -39 -83 -91 -83zM218 866c-27 0 -47 -18 -47 -42c0 -26 20 -44 47 -44c26 0 46 18 46 44c0 24 -20 42 -46 42zM298 0l-17 119h-123l-16 -119h-132l132 706h149l137 -706h-130zM172 233h92
l-21 148l-23 247l-28 -246z" />
    <glyph glyph-name="Aringacute" unicode="&#x1fa;" horiz-adv-x="438" 
d="M298 0l-17 119h-123l-16 -119h-132l132 706h5c-8 13 -13 28 -13 44c0 22 10 42 26 57l52 87h133l-68 -77c25 -14 40 -39 40 -67c0 -22 -9 -42 -24 -57l135 -693h-130zM179 750c0 -26 20 -44 47 -44c26 0 46 18 46 44c0 16 -9 29 -22 36l-1 -1h-50c-12 -7 -20 -20 -20 -35
zM172 233h92l-21 148l-23 247l-28 -246z" />
    <glyph glyph-name="Atilde" unicode="&#xc3;" horiz-adv-x="438" 
d="M154 784c-24 0 -29 -25 -32 -42h-64c0 72 18 127 85 127c28 0 57 -11 82 -22c23 -9 44 -19 59 -19c26 0 31 24 34 41h60c0 -75 -29 -127 -85 -127c-20 0 -50 12 -79 23c-25 10 -48 19 -60 19zM298 0l-17 119h-123l-16 -119h-132l132 706h149l137 -706h-130zM172 233h92
l-21 148l-23 247l-28 -246z" />
    <glyph glyph-name="AE" unicode="&#xc6;" horiz-adv-x="637" 
d="M401 120h221v-120h-351v244h-91l-40 -244h-130l149 706h454v-120h-212v-196h194v-120h-194v-150zM199 358h72v228h-34z" />
    <glyph glyph-name="AEacute" unicode="&#x1fc;" horiz-adv-x="637" 
d="M505 860l-96 -109h-102l65 109h133zM401 120h221v-120h-351v244h-91l-40 -244h-130l149 706h454v-120h-212v-196h194v-120h-194v-150zM199 358h72v228h-34z" />
    <glyph glyph-name="B" unicode="B" horiz-adv-x="460" 
d="M50 0v706h214c110 0 159 -46 159 -148v-59c0 -76 -25 -109 -95 -123v-2c73 -12 102 -49 102 -128v-88c0 -116 -47 -158 -178 -158h-202zM180 419h55c43 0 59 15 59 55v71c0 38 -19 56 -57 56h-57v-182zM180 105h49c55 0 74 18 74 71v69c0 55 -15 69 -72 69h-51v-209z" />
    <glyph glyph-name="C" unicode="C" horiz-adv-x="460" 
d="M236 -15c-132 0 -194 57 -194 177v363c0 131 60 190 193 190c131 0 189 -58 189 -190v-102h-130v100c0 64 -16 88 -59 88c-45 0 -63 -26 -63 -93v-340c0 -63 16 -86 62 -86c44 0 60 22 60 83v100h130v-113c0 -122 -58 -177 -188 -177z" />
    <glyph glyph-name="Cacute" unicode="&#x106;" horiz-adv-x="460" 
d="M163 751l65 109h133l-96 -109h-102zM236 -15c-132 0 -194 57 -194 177v363c0 131 60 190 193 190c131 0 189 -58 189 -190v-102h-130v100c0 64 -16 88 -59 88c-45 0 -63 -26 -63 -93v-340c0 -63 16 -86 62 -86c44 0 60 22 60 83v100h130v-113c0 -122 -58 -177 -188 -177z
" />
    <glyph glyph-name="Ccaron" unicode="&#x10c;" horiz-adv-x="460" 
d="M276 748h-83l-107 115h102l47 -47l46 47h102zM424 423h-130v100c0 64 -16 88 -59 88c-45 0 -63 -26 -63 -93v-340c0 -63 16 -86 62 -86c44 0 60 22 60 83v100h130v-113c0 -122 -58 -177 -188 -177c-132 0 -194 57 -194 177v363c0 131 60 190 193 190
c131 0 189 -58 189 -190v-102z" />
    <glyph glyph-name="Ccedilla" unicode="&#xc7;" horiz-adv-x="460" 
d="M424 423h-130v100c0 64 -16 88 -59 88c-45 0 -63 -26 -63 -93v-340c0 -63 16 -86 62 -86c44 0 60 22 60 83v100h130v-113c0 -122 -58 -177 -188 -177h-5v-12c49 -4 80 -28 80 -68c0 -43 -43 -64 -117 -64c-16 0 -32 1 -56 6v36c12 -1 23 0 32 0c28 0 40 9 40 27
c0 19 -11 27 -29 29v50c-94 15 -139 71 -139 173v363c0 131 60 190 193 190c131 0 189 -58 189 -190v-102z" />
    <glyph glyph-name="Cdotaccent" unicode="&#x10a;" horiz-adv-x="460" 
d="M176 745v121h118v-121h-118zM236 -15c-132 0 -194 57 -194 177v363c0 131 60 190 193 190c131 0 189 -58 189 -190v-102h-130v100c0 64 -16 88 -59 88c-45 0 -63 -26 -63 -93v-340c0 -63 16 -86 62 -86c44 0 60 22 60 83v100h130v-113c0 -122 -58 -177 -188 -177z" />
    <glyph glyph-name="D" unicode="D" horiz-adv-x="475" 
d="M50 0v706h189c134 0 194 -58 194 -190v-333c0 -129 -56 -183 -191 -183h-192zM180 103h48c58 0 75 20 75 87v324c0 69 -17 89 -78 89h-45v-500z" />
    <glyph glyph-name="Eth" unicode="&#xd0;" horiz-adv-x="485" 
d="M249 706c134 0 194 -58 194 -190v-333c0 -129 -56 -183 -191 -183h-192v317h-60v91h60v298h189zM313 190v324c0 69 -17 89 -78 89h-45v-195h58v-91h-58v-214h48c58 0 75 20 75 87z" />
    <glyph glyph-name="Dcaron" unicode="&#x10e;" horiz-adv-x="475" 
d="M251 748h-83l-107 115h102l47 -47l46 47h102zM239 706c134 0 194 -58 194 -190v-333c0 -129 -56 -183 -191 -183h-192v706h189zM303 190v324c0 69 -17 89 -78 89h-45v-500h48c58 0 75 20 75 87z" />
    <glyph glyph-name="Dcroat" unicode="&#x110;" horiz-adv-x="485" 
d="M249 706c134 0 194 -58 194 -190v-333c0 -129 -56 -183 -191 -183h-192v317h-60v91h60v298h189zM313 190v324c0 69 -17 89 -78 89h-45v-195h58v-91h-58v-214h48c58 0 75 20 75 87z" />
    <glyph glyph-name="E" unicode="E" horiz-adv-x="416" 
d="M50 0v706h342v-120h-212v-159h194v-120h-194v-187h221v-120h-351z" />
    <glyph glyph-name="Eacute" unicode="&#xc9;" horiz-adv-x="416" 
d="M152 751l65 109h133l-96 -109h-102zM50 0v706h342v-120h-212v-159h194v-120h-194v-187h221v-120h-351z" />
    <glyph glyph-name="Ecaron" unicode="&#x11a;" horiz-adv-x="416" 
d="M265 748h-83l-107 115h102l47 -47l46 47h102zM180 120h221v-120h-351v706h342v-120h-212v-159h194v-120h-194v-187z" />
    <glyph glyph-name="Ecircumflex" unicode="&#xca;" horiz-adv-x="416" 
d="M225 794l-47 -47h-102l107 115h83l107 -115h-102zM180 120h221v-120h-351v706h342v-120h-212v-159h194v-120h-194v-187z" />
    <glyph glyph-name="Edieresis" unicode="&#xcb;" horiz-adv-x="416" 
d="M89 748v105h103v-105h-103zM256 748v105h103v-105h-103zM50 0v706h342v-120h-212v-159h194v-120h-194v-187h221v-120h-351z" />
    <glyph glyph-name="Edotaccent" unicode="&#x116;" horiz-adv-x="416" 
d="M165 745v121h118v-121h-118zM50 0v706h342v-120h-212v-159h194v-120h-194v-187h221v-120h-351z" />
    <glyph glyph-name="Egrave" unicode="&#xc8;" horiz-adv-x="416" 
d="M303 751h-102l-96 109h133zM50 0v706h342v-120h-212v-159h194v-120h-194v-187h221v-120h-351z" />
    <glyph glyph-name="Emacron" unicode="&#x112;" horiz-adv-x="416" 
d="M105 747v91h238v-91h-238zM50 0v706h342v-120h-212v-159h194v-120h-194v-187h221v-120h-351z" />
    <glyph glyph-name="Eogonek" unicode="&#x118;" horiz-adv-x="416" 
d="M388 -74h14v-85h-49c-55 0 -88 24 -88 70v6c0 34 17 61 38 83h-253v706h342v-120h-212v-159h194v-120h-194v-187h221v-120h-17c-16 -19 -24 -34 -24 -47v-5c0 -16 9 -22 28 -22z" />
    <glyph glyph-name="F" unicode="F" horiz-adv-x="395" 
d="M50 0v706h332v-120h-202v-159h184v-120h-184v-307h-130z" />
    <glyph glyph-name="G" unicode="G" horiz-adv-x="479" 
d="M432 448h-130v75c0 64 -17 88 -63 88c-48 0 -67 -27 -67 -93v-340c0 -63 18 -86 66 -86s68 25 68 83v93h-75v107h201v-381h-107v114c-13 -80 -58 -118 -139 -118c-98 0 -144 55 -144 174v361c0 131 61 190 197 190c134 0 193 -59 193 -190v-77z" />
    <glyph glyph-name="Gbreve" unicode="&#x11e;" horiz-adv-x="479" 
d="M240 739c-88 0 -117 43 -129 122l73 11c8 -38 17 -60 56 -60s48 22 56 60l73 -11c-12 -79 -41 -122 -129 -122zM432 448h-130v75c0 64 -17 88 -63 88c-48 0 -67 -27 -67 -93v-340c0 -63 18 -86 66 -86s68 25 68 83v93h-75v107h201v-381h-107v114
c-13 -80 -58 -118 -139 -118c-98 0 -144 55 -144 174v361c0 131 61 190 197 190c134 0 193 -59 193 -190v-77z" />
    <glyph glyph-name="Gcommaaccent" unicode="&#x122;" horiz-adv-x="479" 
d="M432 448h-130v75c0 64 -17 88 -63 88c-48 0 -67 -27 -67 -93v-340c0 -63 18 -86 66 -86s68 25 68 83v93h-75v107h201v-381h-107v114c-13 -80 -58 -118 -139 -118c-98 0 -144 55 -144 174v361c0 131 61 190 197 190c134 0 193 -59 193 -190v-77zM164 -121v80h142v-61
c0 -38 -20 -66 -54 -89l-45 34c9 11 14 22 14 32v4h-57z" />
    <glyph glyph-name="Gdotaccent" unicode="&#x120;" horiz-adv-x="479" 
d="M299 866v-121h-118v121h118zM432 448h-130v75c0 64 -17 88 -63 88c-48 0 -67 -27 -67 -93v-340c0 -63 18 -86 66 -86s68 25 68 83v93h-75v107h201v-381h-107v114c-13 -80 -58 -118 -139 -118c-98 0 -144 55 -144 174v361c0 131 61 190 197 190c134 0 193 -59 193 -190
v-77z" />
    <glyph glyph-name="H" unicode="H" horiz-adv-x="479" 
d="M50 0v706h130v-282h119v282h130v-706h-130v304h-119v-304h-130z" />
    <glyph glyph-name="Hbar" unicode="&#x126;" horiz-adv-x="491" 
d="M485 610v-91h-50v-519h-130v304h-119v-304h-130v519h-50v91h50v96h130v-96h119v96h130v-96h50zM305 424v95h-119v-95h119z" />
    <glyph glyph-name="Hcircumflex" unicode="&#x124;" horiz-adv-x="479" 
d="M236 794l-47 -47h-102l107 115h83l107 -115h-102zM299 706h130v-706h-130v304h-119v-304h-130v706h130v-282h119v282z" />
    <glyph glyph-name="I" unicode="I" horiz-adv-x="230" 
d="M50 0v706h130v-706h-130z" />
    <glyph glyph-name="Iacute" unicode="&#xcd;" horiz-adv-x="230" 
d="M43 751l65 109h133l-96 -109h-102zM50 0v706h130v-706h-130z" />
    <glyph glyph-name="Icircumflex" unicode="&#xce;" horiz-adv-x="230" 
d="M116 794l-47 -47h-102l107 115h83l107 -115h-102zM50 0v706h130v-706h-130z" />
    <glyph glyph-name="Idieresis" unicode="&#xcf;" horiz-adv-x="230" 
d="M-20 748v105h103v-105h-103zM147 748v105h103v-105h-103zM50 0v706h130v-706h-130z" />
    <glyph glyph-name="Idotaccent" unicode="&#x130;" horiz-adv-x="230" 
d="M56 745v121h118v-121h-118zM50 0v706h130v-706h-130z" />
    <glyph glyph-name="Igrave" unicode="&#xcc;" horiz-adv-x="230" 
d="M194 751h-102l-96 109h133zM50 0v706h130v-706h-130z" />
    <glyph glyph-name="Imacron" unicode="&#x12a;" horiz-adv-x="230" 
d="M-4 747v91h238v-91h-238zM50 0v706h130v-706h-130z" />
    <glyph glyph-name="Iogonek" unicode="&#x12e;" horiz-adv-x="230" 
d="M159 0c-16 -19 -24 -34 -24 -47v-5c0 -16 9 -22 28 -22h14v-85h-49c-55 0 -88 24 -88 70v6c0 34 17 61 38 83h-28v706h130v-706h-21z" />
    <glyph glyph-name="J" unicode="J" horiz-adv-x="403" 
d="M177 -15c-114 0 -169 52 -169 160c0 24 1 47 3 71l124 12c-2 -22 -3 -45 -3 -67c0 -51 12 -69 47 -69c34 0 46 18 46 73v541h130v-546c0 -125 -50 -175 -178 -175z" />
    <glyph glyph-name="Jcircumflex" unicode="&#x134;" horiz-adv-x="403" 
d="M289 794l-47 -47h-102l107 115h83l107 -115h-102zM225 165v541h130v-546c0 -125 -50 -175 -178 -175c-114 0 -169 52 -169 160c0 24 1 47 3 71l124 12c-2 -22 -3 -45 -3 -67c0 -51 12 -69 47 -69c34 0 46 18 46 73z" />
    <glyph glyph-name="K" unicode="K" horiz-adv-x="462" 
d="M454 706l-151 -274l148 -432h-133l-98 322l-40 -76v-246h-130v706h130v-295l141 295h133z" />
    <glyph glyph-name="Kcommaaccent" unicode="&#x136;" horiz-adv-x="462" 
d="M454 706l-151 -274l148 -432h-133l-98 322l-40 -76v-246h-130v706h130v-295l141 295h133zM168 -121v80h142v-61c0 -38 -20 -66 -54 -89l-45 34c9 11 14 22 14 32v4h-57z" />
    <glyph glyph-name="L" unicode="L" horiz-adv-x="376" 
d="M50 0v706h130v-586h191v-120h-321z" />
    <glyph glyph-name="Lacute" unicode="&#x139;" horiz-adv-x="376" 
d="M42 751l65 109h133l-96 -109h-102zM50 0v706h130v-586h191v-120h-321z" />
    <glyph glyph-name="Lcaron" unicode="&#x13d;" horiz-adv-x="376" 
d="M50 0v706h130v-586h191v-120h-321zM233 550v156h138l-36 -156h-102z" />
    <glyph glyph-name="Lcommaaccent" unicode="&#x13b;" horiz-adv-x="376" 
d="M50 0v706h130v-586h191v-120h-321zM224 -191l-45 34c9 11 14 22 14 32v4h-57v80h142v-61c0 -38 -20 -66 -54 -89z" />
    <glyph glyph-name="Lslash" unicode="&#x141;" horiz-adv-x="380" 
d="M184 120h191v-120h-321v294l-42 -28v105l42 28v307h130v-232l75 51v-105l-75 -50v-250z" />
    <glyph glyph-name="M" unicode="M" horiz-adv-x="656" 
d="M406 706h200v-706h-122v157l7 494l-121 -651h-93l-121 651l15 -493v-158h-121v706h201l74 -458z" />
    <glyph glyph-name="N" unicode="N" horiz-adv-x="492" 
d="M333 706h109v-706h-146l-146 544l12 -544h-112v706h155l140 -507z" />
    <glyph glyph-name="Nacute" unicode="&#x143;" horiz-adv-x="492" 
d="M377 860l-96 -109h-102l65 109h133zM333 706h109v-706h-146l-146 544l12 -544h-112v706h155l140 -507z" />
    <glyph glyph-name="Ncaron" unicode="&#x147;" horiz-adv-x="492" 
d="M292 748h-83l-107 115h102l47 -47l46 47h102zM333 706h109v-706h-146l-146 544l12 -544h-112v706h155l140 -507z" />
    <glyph glyph-name="Ncommaaccent" unicode="&#x145;" horiz-adv-x="492" 
d="M333 706h109v-706h-146l-146 544l12 -544h-112v706h155l140 -507zM174 -121v80h142v-61c0 -38 -20 -66 -54 -89l-45 34c9 11 14 22 14 32v4h-57z" />
    <glyph glyph-name="Eng" unicode="&#x14a;" horiz-adv-x="492" 
d="M333 706h109v-737c0 -95 -30 -128 -118 -128c-17 0 -33 1 -49 5v97h7c42 0 46 15 46 61v15l-177 518l11 -537h-112v706h146l147 -443z" />
    <glyph glyph-name="Ntilde" unicode="&#xd1;" horiz-adv-x="492" 
d="M187 784c-24 0 -29 -25 -32 -42h-64c0 72 18 127 85 127c28 0 57 -11 82 -22c23 -9 44 -19 59 -19c26 0 31 24 34 41h60c0 -75 -29 -127 -85 -127c-20 0 -50 12 -79 23c-25 10 -48 19 -60 19zM333 706h109v-706h-146l-146 544l12 -544h-112v706h155l140 -507z" />
    <glyph glyph-name="O" unicode="O" horiz-adv-x="474" 
d="M240 -15c-134 0 -198 57 -198 177v363c0 131 61 190 197 190c134 0 193 -58 193 -190v-363c0 -123 -59 -177 -192 -177zM238 92c47 0 64 22 64 83v348c0 65 -17 88 -63 88c-48 0 -67 -26 -67 -93v-340c0 -64 17 -86 66 -86z" />
    <glyph glyph-name="Oacute" unicode="&#xd3;" horiz-adv-x="474" 
d="M167 751l65 109h133l-96 -109h-102zM240 -15c-134 0 -198 57 -198 177v363c0 131 61 190 197 190c134 0 193 -58 193 -190v-363c0 -123 -59 -177 -192 -177zM238 92c47 0 64 22 64 83v348c0 65 -17 88 -63 88c-48 0 -67 -26 -67 -93v-340c0 -64 17 -86 66 -86z" />
    <glyph glyph-name="Ocircumflex" unicode="&#xd4;" horiz-adv-x="474" 
d="M240 794l-47 -47h-102l107 115h83l107 -115h-102zM239 715c134 0 193 -58 193 -190v-363c0 -123 -59 -177 -192 -177c-134 0 -198 57 -198 177v363c0 131 61 190 197 190zM302 175v348c0 65 -17 88 -63 88c-48 0 -67 -26 -67 -93v-340c0 -64 17 -86 66 -86
c47 0 64 22 64 83z" />
    <glyph glyph-name="Odieresis" unicode="&#xd6;" horiz-adv-x="474" 
d="M104 748v105h103v-105h-103zM271 748v105h103v-105h-103zM240 -15c-134 0 -198 57 -198 177v363c0 131 61 190 197 190c134 0 193 -58 193 -190v-363c0 -123 -59 -177 -192 -177zM238 92c47 0 64 22 64 83v348c0 65 -17 88 -63 88c-48 0 -67 -26 -67 -93v-340
c0 -64 17 -86 66 -86z" />
    <glyph glyph-name="Ograve" unicode="&#xd2;" horiz-adv-x="474" 
d="M318 751h-102l-96 109h133zM240 -15c-134 0 -198 57 -198 177v363c0 131 61 190 197 190c134 0 193 -58 193 -190v-363c0 -123 -59 -177 -192 -177zM238 92c47 0 64 22 64 83v348c0 65 -17 88 -63 88c-48 0 -67 -26 -67 -93v-340c0 -64 17 -86 66 -86z" />
    <glyph glyph-name="Ohungarumlaut" unicode="&#x150;" horiz-adv-x="474" 
d="M100 751l65 109h133l-96 -109h-102zM274 751l65 109h133l-96 -109h-102zM240 -15c-134 0 -198 57 -198 177v363c0 131 61 190 197 190c134 0 193 -58 193 -190v-363c0 -123 -59 -177 -192 -177zM238 92c47 0 64 22 64 83v348c0 65 -17 88 -63 88c-48 0 -67 -26 -67 -93
v-340c0 -64 17 -86 66 -86z" />
    <glyph glyph-name="Omacron" unicode="&#x14c;" horiz-adv-x="474" 
d="M120 747v91h238v-91h-238zM240 -15c-134 0 -198 57 -198 177v363c0 131 61 190 197 190c134 0 193 -58 193 -190v-363c0 -123 -59 -177 -192 -177zM238 92c47 0 64 22 64 83v348c0 65 -17 88 -63 88c-48 0 -67 -26 -67 -93v-340c0 -64 17 -86 66 -86z" />
    <glyph glyph-name="Oslash" unicode="&#xd8;" horiz-adv-x="474" 
d="M351 694c55 -27 81 -82 81 -169v-363c0 -123 -59 -177 -192 -177c-25 0 -48 2 -68 6l-26 -104l-61 15l28 110c-48 28 -71 78 -71 150v363c0 131 61 190 197 190c19 0 37 -1 53 -4l32 111l58 -12zM239 618c-52 0 -72 -27 -72 -97v-327l96 421c-7 2 -15 3 -24 3zM307 172
v354v8l-101 -444c8 -4 19 -5 32 -5c51 0 69 23 69 87z" />
    <glyph glyph-name="Oslashacute" unicode="&#x1fe;" horiz-adv-x="474" 
d="M351 694c55 -27 81 -82 81 -169v-363c0 -123 -59 -177 -192 -177c-25 0 -48 2 -68 6l-26 -104l-61 15l28 110c-48 28 -71 78 -71 150v363c0 131 61 190 197 190c19 0 37 -1 53 -4l28 98l-51 -58h-102l65 109h133l-35 -39l52 -11zM239 618c-52 0 -72 -27 -72 -97v-327
l96 421c-7 2 -15 3 -24 3zM307 172v354v8l-101 -444c8 -4 19 -5 32 -5c51 0 69 23 69 87z" />
    <glyph glyph-name="Otilde" unicode="&#xd5;" horiz-adv-x="474" 
d="M79 742c0 72 18 127 85 127c28 0 57 -11 82 -22c23 -9 44 -19 59 -19c26 0 31 24 34 41h60c0 -75 -29 -127 -85 -127c-20 0 -50 12 -79 23c-25 10 -48 19 -60 19c-24 0 -29 -25 -32 -42h-64zM240 -15c-134 0 -198 57 -198 177v363c0 131 61 190 197 190
c134 0 193 -58 193 -190v-363c0 -123 -59 -177 -192 -177zM238 92c47 0 64 22 64 83v348c0 65 -17 88 -63 88c-48 0 -67 -26 -67 -93v-340c0 -64 17 -86 66 -86z" />
    <glyph glyph-name="OE" unicode="&#x152;" horiz-adv-x="668" 
d="M432 120h221v-120h-318v66c-20 -57 -62 -81 -134 -81c-108 0 -159 57 -159 177v363c0 131 49 190 158 190c71 0 115 -28 135 -89v80h309v-120h-212v-159h194v-120h-194v-187zM302 175v348c0 65 -17 88 -63 88c-48 0 -67 -26 -67 -93v-340c0 -64 17 -86 66 -86
c47 0 64 22 64 83z" />
    <glyph glyph-name="P" unicode="P" horiz-adv-x="456" 
d="M50 0v706h215c117 0 166 -50 166 -169v-92c0 -112 -65 -173 -186 -173h-65v-272h-130zM180 377h53c51 0 69 17 69 64v96c0 43 -21 64 -65 64h-57v-224z" />
    <glyph glyph-name="Thorn" unicode="&#xde;" horiz-adv-x="456" 
d="M50 0v706h130v-125h85c117 0 166 -50 166 -169v-92c0 -112 -65 -173 -186 -173h-65v-147h-130zM180 252h53c51 0 69 17 69 64v96c0 43 -21 64 -65 64h-57v-224z" />
    <glyph glyph-name="Q" unicode="Q" horiz-adv-x="474" 
d="M474 -24l-88 -87l-95 99c-15 -2 -32 -3 -51 -3c-134 0 -198 57 -198 177v363c0 131 61 190 197 190c134 0 193 -58 193 -190v-363c0 -50 -10 -88 -30 -117zM238 92c47 0 64 22 64 83v348c0 65 -17 88 -63 88c-48 0 -67 -26 -67 -93v-340c0 -64 17 -86 66 -86z" />
    <glyph glyph-name="R" unicode="R" horiz-adv-x="461" 
d="M441 0h-134l-95 293h-32v-293h-130v706h212c112 0 159 -48 159 -162v-95c0 -72 -31 -120 -90 -142zM180 601v-211h53c43 0 59 15 59 55v100c0 38 -19 56 -57 56h-55z" />
    <glyph glyph-name="Racute" unicode="&#x154;" horiz-adv-x="461" 
d="M346 860l-96 -109h-102l65 109h133zM441 0h-134l-95 293h-32v-293h-130v706h212c112 0 159 -48 159 -162v-95c0 -72 -31 -120 -90 -142zM180 601v-211h53c43 0 59 15 59 55v100c0 38 -19 56 -57 56h-55z" />
    <glyph glyph-name="Rcaron" unicode="&#x158;" horiz-adv-x="461" 
d="M261 748h-83l-107 115h102l47 -47l46 47h102zM441 0h-134l-95 293h-32v-293h-130v706h212c112 0 159 -48 159 -162v-95c0 -72 -31 -120 -90 -142zM180 601v-211h53c43 0 59 15 59 55v100c0 38 -19 56 -57 56h-55z" />
    <glyph glyph-name="Rcommaaccent" unicode="&#x156;" horiz-adv-x="461" 
d="M331 307l110 -307h-134l-95 293h-32v-293h-130v706h212c112 0 159 -48 159 -162v-95c0 -72 -31 -120 -90 -142zM180 601v-211h53c43 0 59 15 59 55v100c0 38 -19 56 -57 56h-55zM165 -121v80h142v-61c0 -38 -20 -66 -54 -89l-45 34c9 11 14 22 14 32v4h-57z" />
    <glyph glyph-name="S" unicode="S" horiz-adv-x="452" 
d="M230 -15c-115 0 -192 48 -192 161v103h127v-82c0 -55 14 -79 64 -79c48 0 64 17 64 97c0 33 -7 53 -21 71c-17 21 -49 43 -119 90c-90 60 -110 96 -110 181c0 136 74 188 189 188c123 0 176 -70 176 -161v-61h-126v51c0 45 -17 69 -54 69c-38 0 -59 -18 -59 -67
c0 -32 1 -50 11 -65c14 -22 44 -37 127 -96c81 -58 110 -101 110 -205c0 -138 -40 -195 -187 -195z" />
    <glyph glyph-name="Sacute" unicode="&#x15a;" horiz-adv-x="452" 
d="M161 751l65 109h133l-96 -109h-102zM230 -15c-115 0 -192 48 -192 161v103h127v-82c0 -55 14 -79 64 -79c48 0 64 17 64 97c0 33 -7 53 -21 71c-17 21 -49 43 -119 90c-90 60 -110 96 -110 181c0 136 74 188 189 188c123 0 176 -70 176 -161v-61h-126v51
c0 45 -17 69 -54 69c-38 0 -59 -18 -59 -67c0 -32 1 -50 11 -65c14 -22 44 -37 127 -96c81 -58 110 -101 110 -205c0 -138 -40 -195 -187 -195z" />
    <glyph glyph-name="Scaron" unicode="&#x160;" horiz-adv-x="452" 
d="M274 748h-83l-107 115h102l47 -47l46 47h102zM307 385c81 -58 110 -101 110 -205c0 -138 -40 -195 -187 -195c-115 0 -192 48 -192 161v103h127v-82c0 -55 14 -79 64 -79c48 0 64 17 64 97c0 33 -7 53 -21 71c-17 21 -49 43 -119 90c-90 60 -110 96 -110 181
c0 136 74 188 189 188c123 0 176 -70 176 -161v-61h-126v51c0 45 -17 69 -54 69c-38 0 -59 -18 -59 -67c0 -32 1 -50 11 -65c14 -22 44 -37 127 -96z" />
    <glyph glyph-name="Scedilla" unicode="&#x15e;" horiz-adv-x="452" 
d="M417 180c0 -129 -35 -188 -161 -194v-13c49 -4 80 -28 80 -68c0 -43 -43 -64 -117 -64c-16 0 -32 1 -56 6v36c12 -1 23 0 32 0c28 0 40 9 40 27c0 19 -11 27 -29 29v47c-102 6 -168 55 -168 160v103h127v-82c0 -55 14 -79 64 -79c48 0 64 17 64 97c0 33 -7 53 -21 71
c-17 21 -49 43 -119 90c-90 60 -110 96 -110 181c0 136 74 188 189 188c123 0 176 -70 176 -161v-61h-126v51c0 45 -17 69 -54 69c-38 0 -59 -18 -59 -67c0 -32 1 -50 11 -65c14 -22 44 -37 127 -96c81 -58 110 -101 110 -205z" />
    <glyph glyph-name="Scommaaccent" unicode="&#x218;" horiz-adv-x="452" 
d="M230 -15c-115 0 -192 48 -192 161v103h127v-82c0 -55 14 -79 64 -79c48 0 64 17 64 97c0 33 -7 53 -21 71c-17 21 -49 43 -119 90c-90 60 -110 96 -110 181c0 136 74 188 189 188c123 0 176 -70 176 -161v-61h-126v51c0 45 -17 69 -54 69c-38 0 -59 -18 -59 -67
c0 -32 1 -50 11 -65c14 -22 44 -37 127 -96c81 -58 110 -101 110 -205c0 -138 -40 -195 -187 -195zM247 -191l-45 34c9 11 14 22 14 32v4h-57v80h142v-61c0 -38 -20 -66 -54 -89z" />
    <glyph glyph-name="T" unicode="T" horiz-adv-x="388" 
d="M129 0v586h-122v120h374v-120h-122v-586h-130z" />
    <glyph glyph-name="Tbar" unicode="&#x166;" horiz-adv-x="408" 
d="M391 586h-122v-187h90v-91h-90v-308h-130v308h-90v91h90v187h-122v120h374v-120z" />
    <glyph glyph-name="Tcaron" unicode="&#x164;" horiz-adv-x="388" 
d="M237 748h-83l-107 115h102l47 -47l46 47h102zM7 706h374v-120h-122v-586h-130v586h-122v120z" />
    <glyph glyph-name="uni0162" unicode="&#x162;" horiz-adv-x="388" 
d="M259 0h-44v-27c49 -4 80 -28 80 -68c0 -43 -43 -64 -117 -64c-16 0 -32 1 -56 6v36c12 -1 23 0 32 0c28 0 40 9 40 27c0 19 -11 27 -29 29v61h-36v586h-122v120h374v-120h-122v-586z" />
    <glyph glyph-name="uni021A" unicode="&#x21a;" horiz-adv-x="388" 
d="M129 0v586h-122v120h374v-120h-122v-586h-130zM210 -191l-45 34c9 11 14 22 14 32v4h-57v80h142v-61c0 -38 -20 -66 -54 -89z" />
    <glyph glyph-name="U" unicode="U" horiz-adv-x="479" 
d="M237 -10c-124 0 -189 61 -189 177v539h130v-520c0 -62 17 -85 62 -85c47 0 64 22 64 86v519h127v-542c0 -117 -64 -174 -194 -174z" />
    <glyph glyph-name="Uacute" unicode="&#xda;" horiz-adv-x="479" 
d="M166 751l65 109h133l-96 -109h-102zM237 -10c-124 0 -189 61 -189 177v539h130v-520c0 -62 17 -85 62 -85c47 0 64 22 64 86v519h127v-542c0 -117 -64 -174 -194 -174z" />
    <glyph glyph-name="Ucircumflex" unicode="&#xdb;" horiz-adv-x="479" 
d="M239 794l-47 -47h-102l107 115h83l107 -115h-102zM304 706h127v-542c0 -117 -64 -174 -194 -174c-124 0 -189 61 -189 177v539h130v-520c0 -62 17 -85 62 -85c47 0 64 22 64 86v519z" />
    <glyph glyph-name="Udieresis" unicode="&#xdc;" horiz-adv-x="479" 
d="M103 748v105h103v-105h-103zM270 748v105h103v-105h-103zM237 -10c-124 0 -189 61 -189 177v539h130v-520c0 -62 17 -85 62 -85c47 0 64 22 64 86v519h127v-542c0 -117 -64 -174 -194 -174z" />
    <glyph glyph-name="Ugrave" unicode="&#xd9;" horiz-adv-x="479" 
d="M317 751h-102l-96 109h133zM237 -10c-124 0 -189 61 -189 177v539h130v-520c0 -62 17 -85 62 -85c47 0 64 22 64 86v519h127v-542c0 -117 -64 -174 -194 -174z" />
    <glyph glyph-name="Uhungarumlaut" unicode="&#x170;" horiz-adv-x="479" 
d="M99 751l65 109h133l-96 -109h-102zM273 751l65 109h133l-96 -109h-102zM237 -10c-124 0 -189 61 -189 177v539h130v-520c0 -62 17 -85 62 -85c47 0 64 22 64 86v519h127v-542c0 -117 -64 -174 -194 -174z" />
    <glyph glyph-name="Umacron" unicode="&#x16a;" horiz-adv-x="479" 
d="M119 747v91h238v-91h-238zM237 -10c-124 0 -189 61 -189 177v539h130v-520c0 -62 17 -85 62 -85c47 0 64 22 64 86v519h127v-542c0 -117 -64 -174 -194 -174z" />
    <glyph glyph-name="Uogonek" unicode="&#x172;" horiz-adv-x="479" 
d="M317 -159c-55 0 -88 24 -88 70v6c0 29 13 55 32 74c-7 -1 -16 -1 -24 -1c-124 0 -189 61 -189 177v539h130v-520c0 -62 17 -85 62 -85c47 0 64 22 64 86v519h127v-542c0 -61 -19 -105 -58 -141c-25 -24 -49 -40 -49 -70v-5c0 -16 9 -22 28 -22h14v-85h-49z" />
    <glyph glyph-name="Uring" unicode="&#x16e;" horiz-adv-x="479" 
d="M238 741c-53 0 -92 36 -92 83c0 45 39 80 92 80c52 0 91 -35 91 -80c0 -47 -39 -83 -91 -83zM238 780c26 0 46 18 46 44c0 24 -20 42 -46 42c-27 0 -47 -18 -47 -42c0 -26 20 -44 47 -44zM237 -10c-124 0 -189 61 -189 177v539h130v-520c0 -62 17 -85 62 -85
c47 0 64 22 64 86v519h127v-542c0 -117 -64 -174 -194 -174z" />
    <glyph glyph-name="V" unicode="V" horiz-adv-x="418" 
d="M279 706h134l-142 -706h-123l-143 706h138l43 -296l26 -253l26 254z" />
    <glyph glyph-name="W" unicode="W" horiz-adv-x="709" 
d="M565 706h132l-129 -706h-137l-54 355l-20 131l-23 -131l-61 -355h-139l-122 706h134l45 -374l21 -174l27 173l59 375h123l58 -386l20 -134l17 132z" />
    <glyph glyph-name="Wacute" unicode="&#x1e82;" horiz-adv-x="709" 
d="M484 860l-96 -109h-102l65 109h133zM565 706h132l-129 -706h-137l-54 355l-20 131l-23 -131l-61 -355h-139l-122 706h134l45 -374l21 -174l27 173l59 375h123l58 -386l20 -134l17 132z" />
    <glyph glyph-name="Wcircumflex" unicode="&#x174;" horiz-adv-x="709" 
d="M359 794l-47 -47h-102l107 115h83l107 -115h-102zM565 706h132l-129 -706h-137l-54 355l-20 131l-23 -131l-61 -355h-139l-122 706h134l45 -374l21 -174l27 173l59 375h123l58 -386l20 -134l17 132z" />
    <glyph glyph-name="Wdieresis" unicode="&#x1e84;" horiz-adv-x="709" 
d="M326 853v-105h-103v105h103zM493 853v-105h-103v105h103zM565 706h132l-129 -706h-137l-54 355l-20 131l-23 -131l-61 -355h-139l-122 706h134l45 -374l21 -174l27 173l59 375h123l58 -386l20 -134l17 132z" />
    <glyph glyph-name="Wgrave" unicode="&#x1e80;" horiz-adv-x="709" 
d="M437 751h-102l-96 109h133zM565 706h132l-129 -706h-137l-54 355l-20 131l-23 -131l-61 -355h-139l-122 706h134l45 -374l21 -174l27 173l59 375h123l58 -386l20 -134l17 132z" />
    <glyph glyph-name="X" unicode="X" horiz-adv-x="470" 
d="M463 0h-148l-82 249l-85 -249h-141l157 362l-140 344h147l64 -219l71 219h142l-141 -339z" />
    <glyph glyph-name="Y" unicode="Y" horiz-adv-x="424" 
d="M419 706l-141 -498v-208h-132v216l-141 490h140l35 -175l36 -184l35 184l34 175h134z" />
    <glyph glyph-name="Yacute" unicode="&#xdd;" horiz-adv-x="424" 
d="M344 860l-96 -109h-102l65 109h133zM419 706l-141 -498v-208h-132v216l-141 490h140l35 -175l36 -184l35 184l34 175h134z" />
    <glyph glyph-name="Ycircumflex" unicode="&#x176;" horiz-adv-x="424" 
d="M219 794l-47 -47h-102l107 115h83l107 -115h-102zM419 706l-141 -498v-208h-132v216l-141 490h140l35 -175l36 -184l35 184l34 175h134z" />
    <glyph glyph-name="Ydieresis" unicode="&#x178;" horiz-adv-x="424" 
d="M186 853v-105h-103v105h103zM353 853v-105h-103v105h103zM419 706l-141 -498v-208h-132v216l-141 490h140l35 -175l36 -184l35 184l34 175h134z" />
    <glyph glyph-name="Ygrave" unicode="&#x1ef2;" horiz-adv-x="424" 
d="M297 751h-102l-96 109h133zM419 706l-141 -498v-208h-132v216l-141 490h140l35 -175l36 -184l35 184l34 175h134z" />
    <glyph glyph-name="Z" unicode="Z" horiz-adv-x="401" 
d="M169 121h212v-121h-361v82l206 504h-199v120h352v-70z" />
    <glyph glyph-name="Zacute" unicode="&#x179;" horiz-adv-x="401" 
d="M329 860l-96 -109h-102l65 109h133zM169 121h212v-121h-361v82l206 504h-199v120h352v-70z" />
    <glyph glyph-name="Zcaron" unicode="&#x17d;" horiz-adv-x="401" 
d="M244 748h-83l-107 115h102l47 -47l46 47h102zM169 121h212v-121h-361v82l206 504h-199v120h352v-70z" />
    <glyph glyph-name="Zdotaccent" unicode="&#x17b;" horiz-adv-x="401" 
d="M262 866v-121h-118v121h118zM169 121h212v-121h-361v82l206 504h-199v120h352v-70z" />
    <glyph glyph-name="a" unicode="a" horiz-adv-x="386" 
d="M369 83c4 0 8 0 12 1v-90c-8 -3 -16 -4 -26 -4c-70 0 -98 24 -108 91h-3c-11 -54 -53 -91 -104 -91c-80 0 -120 46 -120 140v21c0 64 26 97 120 153c62 36 82 58 82 90v11c0 31 -12 44 -40 44c-33 0 -43 -15 -43 -63v-24h-109v21c0 108 43 148 161 148
c97 0 149 -43 149 -121v-295c0 -22 9 -32 29 -32zM173 79c31 0 48 27 48 74v115c-6 -7 -16 -14 -31 -24c-42 -28 -54 -47 -54 -81v-28c0 -36 13 -56 37 -56z" />
    <glyph glyph-name="aacute" unicode="&#xe1;" horiz-adv-x="386" 
d="M331 706l-99 -130h-102l63 130h138zM369 83c4 0 8 0 12 1v-90c-8 -3 -16 -4 -26 -4c-70 0 -98 24 -108 91h-3c-11 -54 -53 -91 -104 -91c-80 0 -120 46 -120 140v21c0 64 26 97 120 153c62 36 82 58 82 90v11c0 31 -12 44 -40 44c-33 0 -43 -15 -43 -63v-24h-109v21
c0 108 43 148 161 148c97 0 149 -43 149 -121v-295c0 -22 9 -32 29 -32zM173 79c31 0 48 27 48 74v115c-6 -7 -16 -14 -31 -24c-42 -28 -54 -47 -54 -81v-28c0 -36 13 -56 37 -56z" />
    <glyph glyph-name="abreve" unicode="&#x103;" horiz-adv-x="386" 
d="M191 563c-88 0 -117 46 -129 129l75 11c7 -41 15 -65 54 -65s47 24 54 65l75 -11c-12 -83 -41 -129 -129 -129zM369 83c4 0 8 0 12 1v-90c-8 -3 -16 -4 -26 -4c-70 0 -98 24 -108 91h-3c-11 -54 -53 -91 -104 -91c-80 0 -120 46 -120 140v21c0 64 26 97 120 153
c62 36 82 58 82 90v11c0 31 -12 44 -40 44c-33 0 -43 -15 -43 -63v-24h-109v21c0 108 43 148 161 148c97 0 149 -43 149 -121v-295c0 -22 9 -32 29 -32zM173 79c31 0 48 27 48 74v115c-6 -7 -16 -14 -31 -24c-42 -28 -54 -47 -54 -81v-28c0 -36 13 -56 37 -56z" />
    <glyph glyph-name="acircumflex" unicode="&#xe2;" horiz-adv-x="386" 
d="M192 619l-42 -48h-102l100 130h87l100 -130h-102zM369 83c4 0 8 0 12 1v-90c-8 -3 -16 -4 -26 -4c-70 0 -98 24 -108 91h-3c-11 -54 -53 -91 -104 -91c-80 0 -120 46 -120 140v21c0 64 26 97 120 153c62 36 82 58 82 90v11c0 31 -12 44 -40 44c-33 0 -43 -15 -43 -63v-24
h-109v21c0 108 43 148 161 148c97 0 149 -43 149 -121v-295c0 -22 9 -32 29 -32zM173 79c31 0 48 27 48 74v115c-6 -7 -16 -14 -31 -24c-42 -28 -54 -47 -54 -81v-28c0 -36 13 -56 37 -56z" />
    <glyph glyph-name="adieresis" unicode="&#xe4;" horiz-adv-x="386" 
d="M159 699v-105h-103v105h103zM326 699v-105h-103v105h103zM369 83c4 0 8 0 12 1v-90c-8 -3 -16 -4 -26 -4c-70 0 -98 24 -108 91h-3c-11 -54 -53 -91 -104 -91c-80 0 -120 46 -120 140v21c0 64 26 97 120 153c62 36 82 58 82 90v11c0 31 -12 44 -40 44
c-33 0 -43 -15 -43 -63v-24h-109v21c0 108 43 148 161 148c97 0 149 -43 149 -121v-295c0 -22 9 -32 29 -32zM173 79c31 0 48 27 48 74v115c-6 -7 -16 -14 -31 -24c-42 -28 -54 -47 -54 -81v-28c0 -36 13 -56 37 -56z" />
    <glyph glyph-name="agrave" unicode="&#xe0;" horiz-adv-x="386" 
d="M259 576h-102l-99 130h138zM369 83c4 0 8 0 12 1v-90c-8 -3 -16 -4 -26 -4c-70 0 -98 24 -108 91h-3c-11 -54 -53 -91 -104 -91c-80 0 -120 46 -120 140v21c0 64 26 97 120 153c62 36 82 58 82 90v11c0 31 -12 44 -40 44c-33 0 -43 -15 -43 -63v-24h-109v21
c0 108 43 148 161 148c97 0 149 -43 149 -121v-295c0 -22 9 -32 29 -32zM173 79c31 0 48 27 48 74v115c-6 -7 -16 -14 -31 -24c-42 -28 -54 -47 -54 -81v-28c0 -36 13 -56 37 -56z" />
    <glyph glyph-name="amacron" unicode="&#x101;" horiz-adv-x="386" 
d="M310 681v-91h-238v91h238zM369 83c4 0 8 0 12 1v-90c-8 -3 -16 -4 -26 -4c-70 0 -98 24 -108 91h-3c-11 -54 -53 -91 -104 -91c-80 0 -120 46 -120 140v21c0 64 26 97 120 153c62 36 82 58 82 90v11c0 31 -12 44 -40 44c-33 0 -43 -15 -43 -63v-24h-109v21
c0 108 43 148 161 148c97 0 149 -43 149 -121v-295c0 -22 9 -32 29 -32zM173 79c31 0 48 27 48 74v115c-6 -7 -16 -14 -31 -24c-42 -28 -54 -47 -54 -81v-28c0 -36 13 -56 37 -56z" />
    <glyph glyph-name="aogonek" unicode="&#x105;" horiz-adv-x="386" 
d="M370 -74h14v-85h-49c-55 0 -88 24 -88 70v6c0 36 19 64 41 86c-23 14 -35 38 -41 78h-3c-11 -54 -53 -91 -104 -91c-80 0 -120 46 -120 140v21c0 64 26 97 120 153c62 36 82 58 82 90v11c0 31 -12 44 -40 44c-33 0 -43 -15 -43 -63v-24h-109v21c0 108 43 148 161 148
c97 0 149 -43 149 -121v-295c0 -22 9 -32 29 -32c4 0 8 0 12 1v-90c-7 -3 -14 -4 -23 -4c-10 -14 -16 -26 -16 -37v-5c0 -16 9 -22 28 -22zM173 79c31 0 48 27 48 74v115c-6 -7 -16 -14 -31 -24c-42 -28 -54 -47 -54 -81v-28c0 -36 13 -56 37 -56z" />
    <glyph glyph-name="aring" unicode="&#xe5;" horiz-adv-x="386" 
d="M191 551c-53 0 -92 40 -92 93c0 51 39 91 92 91c52 0 91 -40 91 -91c0 -53 -39 -93 -91 -93zM191 696c-29 0 -51 -22 -51 -52c0 -31 22 -53 51 -53c28 0 50 22 50 53c0 30 -22 52 -50 52zM369 83c4 0 8 0 12 1v-90c-8 -3 -16 -4 -26 -4c-70 0 -98 24 -108 91h-3
c-11 -54 -53 -91 -104 -91c-80 0 -120 46 -120 140v21c0 64 26 97 120 153c62 36 82 58 82 90v11c0 31 -12 44 -40 44c-33 0 -43 -15 -43 -63v-24h-109v21c0 108 43 148 161 148c97 0 149 -43 149 -121v-295c0 -22 9 -32 29 -32zM173 79c31 0 48 27 48 74v115
c-6 -7 -16 -14 -31 -24c-42 -28 -54 -47 -54 -81v-28c0 -36 13 -56 37 -56z" />
    <glyph glyph-name="aringacute" unicode="&#x1fb;" horiz-adv-x="386" 
d="M191 551c-53 0 -92 40 -92 93c0 17 8 39 16 55l63 127h138l-79 -103c28 -16 45 -45 45 -79c0 -53 -39 -93 -91 -93zM191 696c-29 0 -51 -22 -51 -52c0 -31 22 -53 51 -53c28 0 50 22 50 53c0 30 -22 52 -50 52zM369 83c4 0 8 0 12 1v-90c-8 -3 -16 -4 -26 -4
c-70 0 -98 24 -108 91h-3c-11 -54 -53 -91 -104 -91c-80 0 -120 46 -120 140v21c0 64 26 97 120 153c62 36 82 58 82 90v11c0 31 -12 44 -40 44c-33 0 -43 -15 -43 -63v-24h-109v21c0 108 43 148 161 148c97 0 149 -43 149 -121v-295c0 -22 9 -32 29 -32zM173 79
c31 0 48 27 48 74v115c-6 -7 -16 -14 -31 -24c-42 -28 -54 -47 -54 -81v-28c0 -36 13 -56 37 -56z" />
    <glyph glyph-name="atilde" unicode="&#xe3;" horiz-adv-x="386" 
d="M127 615c-24 0 -29 -25 -32 -42h-64c0 72 18 127 85 127c28 0 57 -11 82 -22c23 -9 44 -19 59 -19c26 0 31 24 34 41h60c0 -75 -29 -127 -85 -127c-20 0 -50 12 -79 23c-25 10 -48 19 -60 19zM369 83c4 0 8 0 12 1v-90c-8 -3 -16 -4 -26 -4c-70 0 -98 24 -108 91h-3
c-11 -54 -53 -91 -104 -91c-80 0 -120 46 -120 140v21c0 64 26 97 120 153c62 36 82 58 82 90v11c0 31 -12 44 -40 44c-33 0 -43 -15 -43 -63v-24h-109v21c0 108 43 148 161 148c97 0 149 -43 149 -121v-295c0 -22 9 -32 29 -32zM173 79c31 0 48 27 48 74v115
c-6 -7 -16 -14 -31 -24c-42 -28 -54 -47 -54 -81v-28c0 -36 13 -56 37 -56z" />
    <glyph glyph-name="ae" unicode="&#xe6;" horiz-adv-x="574" 
d="M542 231h-202v-91c0 -40 15 -60 47 -60c28 0 40 18 40 59v30h115v-30c0 -106 -40 -149 -139 -149c-86 0 -137 32 -151 91h-8c-11 -54 -53 -91 -104 -91c-80 0 -120 46 -120 140v21c0 64 27 99 120 153c62 36 82 58 82 90v11c0 31 -12 44 -40 44c-33 0 -43 -15 -43 -63
v-24h-109v21c0 113 36 148 149 148c51 0 88 -14 111 -41c23 29 59 41 113 41c99 0 139 -43 139 -149v-151zM387 450c-32 0 -47 -19 -47 -60v-76h87v77c0 42 -12 59 -40 59zM173 79c31 0 48 27 48 74v115c-6 -7 -16 -14 -31 -24c-42 -28 -54 -47 -54 -81v-28
c0 -36 13 -56 37 -56z" />
    <glyph glyph-name="aeacute" unicode="&#x1fd;" horiz-adv-x="574" 
d="M433 706l-99 -130h-102l63 130h138zM542 231h-202v-91c0 -40 15 -60 47 -60c28 0 40 18 40 59v30h115v-30c0 -106 -40 -149 -139 -149c-86 0 -137 32 -151 91h-8c-11 -54 -53 -91 -104 -91c-80 0 -120 46 -120 140v21c0 64 27 99 120 153c62 36 82 58 82 90v11
c0 31 -12 44 -40 44c-33 0 -43 -15 -43 -63v-24h-109v21c0 113 36 148 149 148c51 0 88 -14 111 -41c23 29 59 41 113 41c99 0 139 -43 139 -149v-151zM387 450c-32 0 -47 -19 -47 -60v-76h87v77c0 42 -12 59 -40 59zM173 79c31 0 48 27 48 74v115c-6 -7 -16 -14 -31 -24
c-42 -28 -54 -47 -54 -81v-28c0 -36 13 -56 37 -56z" />
    <glyph glyph-name="b" unicode="b" horiz-adv-x="418" 
d="M270 -10c-45 0 -84 25 -105 67h-2v-57h-119v706h119v-242h2c21 42 60 67 105 67c72 0 111 -51 111 -144v-253c0 -94 -39 -144 -111 -144zM212 74c33 0 50 22 50 65v243c0 43 -17 65 -50 65c-32 0 -49 -27 -49 -76v-221c0 -49 17 -76 49 -76z" />
    <glyph glyph-name="c" unicode="c" horiz-adv-x="383" 
d="M196 -10c-106 0 -159 51 -159 155v231c0 104 54 155 163 155c102 0 151 -48 151 -149v-81h-115v87c0 42 -11 59 -38 59c-30 0 -43 -19 -43 -60v-244c0 -41 14 -60 43 -60c28 0 38 16 38 59v83h115v-86c0 -100 -51 -149 -155 -149z" />
    <glyph glyph-name="cacute" unicode="&#x107;" horiz-adv-x="383" 
d="M135 576l63 130h138l-99 -130h-102zM196 -10c-106 0 -159 51 -159 155v231c0 104 54 155 163 155c102 0 151 -48 151 -149v-81h-115v87c0 42 -11 59 -38 59c-30 0 -43 -19 -43 -60v-244c0 -41 14 -60 43 -60c28 0 38 16 38 59v83h115v-86c0 -100 -51 -149 -155 -149z" />
    <glyph glyph-name="ccaron" unicode="&#x10d;" horiz-adv-x="383" 
d="M239 567h-87l-100 130h102l42 -48l41 48h102zM351 301h-115v87c0 42 -11 59 -38 59c-30 0 -43 -19 -43 -60v-244c0 -41 14 -60 43 -60c28 0 38 16 38 59v83h115v-86c0 -100 -51 -149 -155 -149c-106 0 -159 51 -159 155v231c0 104 54 155 163 155c102 0 151 -48 151 -149
v-81z" />
    <glyph glyph-name="ccedilla" unicode="&#xe7;" horiz-adv-x="383" 
d="M351 301h-115v87c0 42 -11 59 -38 59c-30 0 -43 -19 -43 -60v-244c0 -41 14 -60 43 -60c28 0 38 16 38 59v83h115v-86c0 -97 -48 -146 -146 -149v-17c49 -4 80 -28 80 -68c0 -43 -43 -64 -117 -64c-16 0 -32 1 -56 6v36c12 -1 23 0 32 0c28 0 40 9 40 27
c0 19 -11 27 -29 29v54c-79 12 -118 62 -118 152v231c0 104 54 155 163 155c102 0 151 -48 151 -149v-81z" />
    <glyph glyph-name="cdotaccent" unicode="&#x10b;" horiz-adv-x="383" 
d="M137 586v121h118v-121h-118zM196 -10c-106 0 -159 51 -159 155v231c0 104 54 155 163 155c102 0 151 -48 151 -149v-81h-115v87c0 42 -11 59 -38 59c-30 0 -43 -19 -43 -60v-244c0 -41 14 -60 43 -60c28 0 38 16 38 59v83h115v-86c0 -100 -51 -149 -155 -149z" />
    <glyph glyph-name="d" unicode="d" horiz-adv-x="418" 
d="M148 -10c-72 0 -111 50 -111 144v253c0 93 39 144 111 144c45 0 84 -25 105 -67h2v242h119v-706h-119v57h-2c-21 -42 -60 -67 -105 -67zM206 74c32 0 49 27 49 76v221c0 49 -17 76 -49 76c-33 0 -50 -22 -50 -65v-243c0 -43 17 -65 50 -65z" />
    <glyph glyph-name="eth" unicode="&#xf0;" horiz-adv-x="406" 
d="M369 636l-61 -26c37 -73 54 -159 54 -263v-208c0 -99 -53 -149 -160 -149c-110 0 -165 51 -165 155v223c0 84 44 134 119 134c29 0 55 -9 76 -28c-5 34 -15 63 -31 90l-68 -29l-26 50l59 26c-12 13 -25 25 -40 38l98 76c20 -20 38 -42 53 -64l64 29zM243 138v211
c0 44 -12 63 -41 63c-33 0 -46 -18 -46 -64v-209c0 -46 13 -64 46 -64c29 0 41 19 41 63z" />
    <glyph glyph-name="dcaron" unicode="&#x10f;" horiz-adv-x="461" 
d="M148 -10c-72 0 -111 50 -111 144v253c0 93 39 144 111 144c45 0 84 -25 105 -67h2v242h119v-706h-119v57h-2c-21 -42 -60 -67 -105 -67zM413 550v156h138l-36 -156h-102zM206 74c32 0 49 27 49 76v221c0 49 -17 76 -49 76c-33 0 -50 -22 -50 -65v-243
c0 -43 17 -65 50 -65z" />
    <glyph glyph-name="dcroat" unicode="&#x111;" horiz-adv-x="418" 
d="M418 647v-81h-44v-566h-119v57h-2c-21 -42 -60 -67 -105 -67c-72 0 -111 50 -111 144v232c0 93 39 144 111 144c45 0 84 -25 105 -67h2v123h-75v81h75v59h119v-59h44zM255 150v200c0 49 -17 76 -49 76c-33 0 -50 -22 -50 -65v-222c0 -43 17 -65 50 -65c32 0 49 27 49 76z
" />
    <glyph glyph-name="e" unicode="e" horiz-adv-x="389" 
d="M357 231h-202v-91c0 -40 15 -60 47 -60c28 0 40 18 40 59v30h115v-30c0 -100 -52 -149 -158 -149c-108 0 -162 51 -162 155v231c0 104 54 155 162 155c106 0 158 -49 158 -149v-151zM201 450c-32 0 -46 -19 -46 -60v-76h87v77c0 42 -13 59 -41 59z" />
    <glyph glyph-name="eacute" unicode="&#xe9;" horiz-adv-x="389" 
d="M341 706l-99 -130h-102l63 130h138zM357 231h-202v-91c0 -40 15 -60 47 -60c28 0 40 18 40 59v30h115v-30c0 -100 -52 -149 -158 -149c-108 0 -162 51 -162 155v231c0 104 54 155 162 155c106 0 158 -49 158 -149v-151zM201 450c-32 0 -46 -19 -46 -60v-76h87v77
c0 42 -13 59 -41 59z" />
    <glyph glyph-name="ecaron" unicode="&#x11b;" horiz-adv-x="389" 
d="M244 567h-87l-100 130h102l42 -48l41 48h102zM357 231h-202v-91c0 -40 15 -60 47 -60c28 0 40 18 40 59v30h115v-30c0 -100 -52 -149 -158 -149c-108 0 -162 51 -162 155v231c0 104 54 155 162 155c106 0 158 -49 158 -149v-151zM201 450c-32 0 -46 -19 -46 -60v-76h87
v77c0 42 -13 59 -41 59z" />
    <glyph glyph-name="ecircumflex" unicode="&#xea;" horiz-adv-x="389" 
d="M202 619l-42 -48h-102l100 130h87l100 -130h-102zM357 231h-202v-91c0 -40 15 -60 47 -60c28 0 40 18 40 59v30h115v-30c0 -100 -52 -149 -158 -149c-108 0 -162 51 -162 155v231c0 104 54 155 162 155c106 0 158 -49 158 -149v-151zM201 450c-32 0 -46 -19 -46 -60v-76
h87v77c0 42 -13 59 -41 59z" />
    <glyph glyph-name="edieresis" unicode="&#xeb;" horiz-adv-x="389" 
d="M169 699v-105h-103v105h103zM336 699v-105h-103v105h103zM357 231h-202v-91c0 -40 15 -60 47 -60c28 0 40 18 40 59v30h115v-30c0 -100 -52 -149 -158 -149c-108 0 -162 51 -162 155v231c0 104 54 155 162 155c106 0 158 -49 158 -149v-151zM201 450
c-32 0 -46 -19 -46 -60v-76h87v77c0 42 -13 59 -41 59z" />
    <glyph glyph-name="edotaccent" unicode="&#x117;" horiz-adv-x="389" 
d="M260 707v-121h-118v121h118zM357 231h-202v-91c0 -40 15 -60 47 -60c28 0 40 18 40 59v30h115v-30c0 -100 -52 -149 -158 -149c-108 0 -162 51 -162 155v231c0 104 54 155 162 155c106 0 158 -49 158 -149v-151zM201 450c-32 0 -46 -19 -46 -60v-76h87v77
c0 42 -13 59 -41 59z" />
    <glyph glyph-name="egrave" unicode="&#xe8;" horiz-adv-x="389" 
d="M269 576h-102l-99 130h138zM357 231h-202v-91c0 -40 15 -60 47 -60c28 0 40 18 40 59v30h115v-30c0 -100 -52 -149 -158 -149c-108 0 -162 51 -162 155v231c0 104 54 155 162 155c106 0 158 -49 158 -149v-151zM201 450c-32 0 -46 -19 -46 -60v-76h87v77
c0 42 -13 59 -41 59z" />
    <glyph glyph-name="emacron" unicode="&#x113;" horiz-adv-x="389" 
d="M320 681v-91h-238v91h238zM357 231h-202v-91c0 -40 15 -60 47 -60c28 0 40 18 40 59v30h115v-30c0 -100 -52 -149 -158 -149c-108 0 -162 51 -162 155v231c0 104 54 155 162 155c106 0 158 -49 158 -149v-151zM201 450c-32 0 -46 -19 -46 -60v-76h87v77
c0 42 -13 59 -41 59z" />
    <glyph glyph-name="eogonek" unicode="&#x119;" horiz-adv-x="389" 
d="M261 -159c-55 0 -88 24 -88 70v6c0 29 13 53 29 73h-3c-108 0 -162 51 -162 155v231c0 104 54 155 162 155c106 0 158 -49 158 -149v-151h-202v-91c0 -40 15 -60 47 -60c28 0 40 18 40 59v30h115v-30c0 -65 -24 -97 -47 -119c-25 -23 -42 -43 -42 -67v-5
c0 -16 9 -22 28 -22h14v-85h-49zM155 314h87v77c0 42 -13 59 -41 59c-32 0 -46 -19 -46 -60v-76z" />
    <glyph glyph-name="f" unicode="f" horiz-adv-x="271" 
d="M228 613c-28 0 -46 -10 -46 -58v-34h77v-85h-77v-436h-119v436h-58v85h58v50c0 100 52 144 150 144c16 0 41 -4 53 -7v-99c-12 2 -28 4 -38 4z" />
    <glyph glyph-name="g" unicode="g" horiz-adv-x="418" 
d="M207 -159c-106 0 -158 49 -158 149v7h113v-7c0 -39 16 -59 48 -59c30 0 45 19 45 55v121h-2c-21 -42 -60 -67 -105 -67c-72 0 -111 51 -111 144v203c0 94 39 144 111 144c45 0 84 -25 105 -67h2v57h119v-531c0 -96 -59 -149 -167 -149zM206 124c32 0 49 27 49 76v171
c0 49 -17 76 -49 76c-33 0 -50 -22 -50 -65v-193c0 -43 17 -65 50 -65z" />
    <glyph glyph-name="gbreve" unicode="&#x11f;" horiz-adv-x="418" 
d="M220 563c-88 0 -117 46 -129 129l75 11c7 -41 15 -65 54 -65s47 24 54 65l75 -11c-12 -83 -41 -129 -129 -129zM207 -159c-106 0 -158 49 -158 149v7h113v-7c0 -39 16 -59 48 -59c30 0 45 19 45 55v121h-2c-21 -42 -60 -67 -105 -67c-72 0 -111 51 -111 144v203
c0 94 39 144 111 144c45 0 84 -25 105 -67h2v57h119v-531c0 -96 -59 -149 -167 -149zM206 124c32 0 49 27 49 76v171c0 49 -17 76 -49 76c-33 0 -50 -22 -50 -65v-193c0 -43 17 -65 50 -65z" />
    <glyph glyph-name="gcommaaccent" unicode="&#x123;" horiz-adv-x="418" 
d="M161 569v72c0 77 19 112 51 144l42 -35c-20 -19 -30 -38 -30 -65v-13h55v-103h-118zM207 -159c-106 0 -158 49 -158 149v7h113v-7c0 -39 16 -59 48 -59c30 0 45 19 45 55v121h-2c-21 -42 -60 -67 -105 -67c-72 0 -111 51 -111 144v203c0 94 39 144 111 144
c45 0 84 -25 105 -67h2v57h119v-531c0 -96 -59 -149 -167 -149zM206 124c32 0 49 27 49 76v171c0 49 -17 76 -49 76c-33 0 -50 -22 -50 -65v-193c0 -43 17 -65 50 -65z" />
    <glyph glyph-name="gdotaccent" unicode="&#x121;" horiz-adv-x="418" 
d="M161 586v121h118v-121h-118zM207 -159c-106 0 -158 49 -158 149v7h113v-7c0 -39 16 -59 48 -59c30 0 45 19 45 55v121h-2c-21 -42 -60 -67 -105 -67c-72 0 -111 51 -111 144v203c0 94 39 144 111 144c45 0 84 -25 105 -67h2v57h119v-531c0 -96 -59 -149 -167 -149z
M206 124c32 0 49 27 49 76v171c0 49 -17 76 -49 76c-33 0 -50 -22 -50 -65v-193c0 -43 17 -65 50 -65z" />
    <glyph glyph-name="h" unicode="h" horiz-adv-x="414" 
d="M44 0v706h119v-242h2c20 42 57 67 101 67c67 0 108 -43 108 -114v-417h-119v400c0 30 -15 47 -41 47c-34 0 -51 -22 -51 -67v-380h-119z" />
    <glyph glyph-name="hbar" unicode="&#x127;" horiz-adv-x="414" 
d="M266 485c55 0 108 -31 108 -114v-371h-119v354c0 26 -12 47 -41 47c-28 0 -51 -14 -51 -67v-334h-119v566h-44v81h44v59h119v-59h75v-81h-75v-148h2c23 48 63 67 101 67z" />
    <glyph glyph-name="hcircumflex" unicode="&#x125;" horiz-adv-x="414" 
d="M101 794l-47 -47h-102l107 115h83l107 -115h-102zM266 531c67 0 108 -43 108 -114v-417h-119v400c0 30 -15 47 -41 47c-34 0 -51 -22 -51 -67v-380h-119v706h119v-242h2c20 42 57 67 101 67z" />
    <glyph glyph-name="i" unicode="i" horiz-adv-x="207" 
d="M44 586v121h118v-121h-118zM44 0v521h119v-521h-119z" />
    <glyph glyph-name="dotlessi" unicode="&#x131;" horiz-adv-x="207" 
d="M44 0v521h119v-521h-119z" />
    <glyph glyph-name="iacute" unicode="&#xed;" horiz-adv-x="207" 
d="M42 576l63 130h138l-99 -130h-102zM44 0v521h119v-521h-119z" />
    <glyph glyph-name="icircumflex" unicode="&#xee;" horiz-adv-x="207" 
d="M104 619l-42 -48h-102l100 130h87l100 -130h-102zM44 0v521h119v-521h-119z" />
    <glyph glyph-name="idieresis" unicode="&#xef;" horiz-adv-x="207" 
d="M-32 594v105h103v-105h-103zM135 594v105h103v-105h-103zM44 0v521h119v-521h-119z" />
    <glyph glyph-name="i.loclTRK" horiz-adv-x="207" 
d="M44 586v121h118v-121h-118zM44 0v521h119v-521h-119z" />
    <glyph glyph-name="igrave" unicode="&#xec;" horiz-adv-x="207" 
d="M171 576h-102l-99 130h138zM44 0v521h119v-521h-119z" />
    <glyph glyph-name="imacron" unicode="&#x12b;" horiz-adv-x="207" 
d="M9 590v91h188v-91h-188zM44 0v521h119v-521h-119z" />
    <glyph glyph-name="iogonek" unicode="&#x12f;" horiz-adv-x="207" 
d="M162 707v-121h-118v121h118zM156 -74h14v-85h-49c-55 0 -88 24 -88 70v6c0 34 17 61 38 83h-27v521h119v-521h-11c-16 -19 -24 -34 -24 -47v-5c0 -16 9 -22 28 -22z" />
    <glyph glyph-name="j" unicode="j" horiz-adv-x="208" 
d="M46 586v121h118v-121h-118zM41 -159c-17 0 -33 1 -49 5v97h7c38 0 46 10 46 61v517h119v-552c0 -93 -33 -128 -123 -128z" />
    <glyph glyph-name="uni0237" unicode="&#x237;" horiz-adv-x="208" 
d="M41 -159c-17 0 -33 1 -49 5v97h7c38 0 46 10 46 61v517h119v-552c0 -93 -33 -128 -123 -128z" />
    <glyph glyph-name="jcircumflex" unicode="&#x135;" horiz-adv-x="208" 
d="M106 619l-42 -48h-102l100 130h87l100 -130h-102zM45 4v517h119v-552c0 -93 -33 -128 -123 -128c-17 0 -33 1 -49 5v97h7c38 0 46 10 46 61z" />
    <glyph glyph-name="k" unicode="k" horiz-adv-x="413" 
d="M280 0l-84 241l-38 -56v-185h-114v706h114v-391l112 206h128l-124 -187l134 -334h-128z" />
    <glyph glyph-name="kcommaaccent" unicode="&#x137;" horiz-adv-x="413" 
d="M274 334l134 -334h-128l-84 241l-38 -56v-185h-114v706h114v-391l112 206h128zM138 -121v80h142v-61c0 -38 -20 -66 -54 -89l-45 34c9 11 14 22 14 32v4h-57z" />
    <glyph glyph-name="l" unicode="l" horiz-adv-x="207" 
d="M44 0v706h119v-706h-119z" />
    <glyph glyph-name="lacute" unicode="&#x13a;" horiz-adv-x="207" 
d="M30 751l65 109h133l-96 -109h-102zM44 0v706h119v-706h-119z" />
    <glyph glyph-name="lcaron" unicode="&#x13e;" horiz-adv-x="244" 
d="M44 0v706h119v-706h-119zM196 550v156h138l-36 -156h-102z" />
    <glyph glyph-name="lcommaaccent" unicode="&#x13c;" horiz-adv-x="207" 
d="M44 0v706h119v-706h-119zM119 -191l-45 34c9 11 14 22 14 32v4h-57v80h142v-61c0 -38 -20 -66 -54 -89z" />
    <glyph glyph-name="lslash" unicode="&#x142;" horiz-adv-x="207" 
d="M205 460v-101l-42 -28v-331h-119v258l-42 -28v101l42 29v346h119v-274z" />
    <glyph glyph-name="m" unicode="m" horiz-adv-x="615" 
d="M470 531c65 0 105 -44 105 -114v-417h-119v399c0 32 -14 48 -41 48c-30 0 -46 -24 -46 -67v-380h-119v399c0 32 -14 48 -41 48c-30 0 -46 -24 -46 -67v-380h-119v521h119v-57h2c20 43 56 67 99 67c52 0 88 -28 100 -75h3c20 48 57 75 103 75z" />
    <glyph glyph-name="n" unicode="n" horiz-adv-x="414" 
d="M44 0v521h119v-57h2c20 42 57 67 101 67c67 0 108 -43 108 -114v-417h-119v399c0 32 -15 48 -43 48c-32 0 -49 -23 -49 -67v-380h-119z" />
    <glyph glyph-name="nacute" unicode="&#x144;" horiz-adv-x="414" 
d="M147 576l63 130h138l-99 -130h-102zM44 0v521h119v-57h2c20 42 57 67 101 67c67 0 108 -43 108 -114v-417h-119v399c0 32 -15 48 -43 48c-32 0 -49 -23 -49 -67v-380h-119z" />
    <glyph glyph-name="ncaron" unicode="&#x148;" horiz-adv-x="414" 
d="M251 567h-87l-100 130h102l42 -48l41 48h102zM266 531c67 0 108 -43 108 -114v-417h-119v399c0 32 -15 48 -43 48c-32 0 -49 -23 -49 -67v-380h-119v521h119v-57h2c20 42 57 67 101 67z" />
    <glyph glyph-name="ncommaaccent" unicode="&#x146;" horiz-adv-x="414" 
d="M44 0v521h119v-57h2c20 42 57 67 101 67c67 0 108 -43 108 -114v-417h-119v399c0 32 -15 48 -43 48c-32 0 -49 -23 -49 -67v-380h-119zM224 -191l-45 34c9 11 14 22 14 32v4h-57v80h142v-61c0 -38 -20 -66 -54 -89z" />
    <glyph glyph-name="eng" unicode="&#x14b;" horiz-adv-x="414" 
d="M251 -159c-17 0 -33 1 -49 5v97h7c42 0 46 15 46 61v395c0 30 -13 48 -43 48c-25 0 -49 -14 -49 -67v-380h-119v521h119v-57h2c23 48 63 67 101 67c55 0 108 -31 108 -114v-448c0 -95 -35 -128 -123 -128z" />
    <glyph glyph-name="ntilde" unicode="&#xf1;" horiz-adv-x="414" 
d="M48 573c0 72 18 127 85 127c28 0 57 -11 82 -22c23 -9 44 -19 59 -19c26 0 31 24 34 41h60c0 -75 -29 -127 -85 -127c-20 0 -50 12 -79 23c-25 10 -48 19 -60 19c-24 0 -29 -25 -32 -42h-64zM44 0v521h119v-57h2c20 42 57 67 101 67c67 0 108 -43 108 -114v-417h-119v399
c0 32 -15 48 -43 48c-32 0 -49 -23 -49 -67v-380h-119z" />
    <glyph glyph-name="o" unicode="o" horiz-adv-x="399" 
d="M202 -10c-110 0 -165 51 -165 155v231c0 104 55 155 165 155c107 0 160 -50 160 -149v-243c0 -99 -53 -149 -160 -149zM202 75c29 0 41 19 41 63v246c0 44 -12 63 -41 63c-33 0 -46 -18 -46 -64v-244c0 -46 13 -64 46 -64z" />
    <glyph glyph-name="oacute" unicode="&#xf3;" horiz-adv-x="399" 
d="M141 576l63 130h138l-99 -130h-102zM202 -10c-110 0 -165 51 -165 155v231c0 104 55 155 165 155c107 0 160 -50 160 -149v-243c0 -99 -53 -149 -160 -149zM202 75c29 0 41 19 41 63v246c0 44 -12 63 -41 63c-33 0 -46 -18 -46 -64v-244c0 -46 13 -64 46 -64z" />
    <glyph glyph-name="ocircumflex" unicode="&#xf4;" horiz-adv-x="399" 
d="M203 619l-42 -48h-102l100 130h87l100 -130h-102zM202 531c107 0 160 -50 160 -149v-243c0 -99 -53 -149 -160 -149c-110 0 -165 51 -165 155v231c0 104 55 155 165 155zM243 138v246c0 44 -12 63 -41 63c-33 0 -46 -18 -46 -64v-244c0 -46 13 -64 46 -64
c29 0 41 19 41 63z" />
    <glyph glyph-name="odieresis" unicode="&#xf6;" horiz-adv-x="399" 
d="M67 594v105h103v-105h-103zM234 594v105h103v-105h-103zM202 -10c-110 0 -165 51 -165 155v231c0 104 55 155 165 155c107 0 160 -50 160 -149v-243c0 -99 -53 -149 -160 -149zM202 75c29 0 41 19 41 63v246c0 44 -12 63 -41 63c-33 0 -46 -18 -46 -64v-244
c0 -46 13 -64 46 -64z" />
    <glyph glyph-name="ograve" unicode="&#xf2;" horiz-adv-x="399" 
d="M270 576h-102l-99 130h138zM202 -10c-110 0 -165 51 -165 155v231c0 104 55 155 165 155c107 0 160 -50 160 -149v-243c0 -99 -53 -149 -160 -149zM202 75c29 0 41 19 41 63v246c0 44 -12 63 -41 63c-33 0 -46 -18 -46 -64v-244c0 -46 13 -64 46 -64z" />
    <glyph glyph-name="ohungarumlaut" unicode="&#x151;" horiz-adv-x="399" 
d="M68 576l63 130h138l-99 -130h-102zM227 576l63 130h138l-99 -130h-102zM202 -10c-110 0 -165 51 -165 155v231c0 104 55 155 165 155c107 0 160 -50 160 -149v-243c0 -99 -53 -149 -160 -149zM202 75c29 0 41 19 41 63v246c0 44 -12 63 -41 63c-33 0 -46 -18 -46 -64
v-244c0 -46 13 -64 46 -64z" />
    <glyph glyph-name="omacron" unicode="&#x14d;" horiz-adv-x="399" 
d="M83 590v91h238v-91h-238zM202 -10c-110 0 -165 51 -165 155v231c0 104 55 155 165 155c107 0 160 -50 160 -149v-243c0 -99 -53 -149 -160 -149zM202 75c29 0 41 19 41 63v246c0 44 -12 63 -41 63c-33 0 -46 -18 -46 -64v-244c0 -46 13 -64 46 -64z" />
    <glyph glyph-name="oslash" unicode="&#xf8;" horiz-adv-x="399" 
d="M300 510c41 -24 62 -66 62 -128v-243c0 -99 -53 -149 -160 -149c-19 0 -37 2 -53 5l-26 -77l-43 14l26 77c-46 24 -69 69 -69 136v231c0 104 55 155 165 155c21 0 40 -2 56 -6l24 73l42 -12zM202 447c-38 0 -53 -18 -53 -64v-237l76 297c-6 3 -14 4 -23 4zM202 75
c34 0 48 19 48 63v226l-72 -285c6 -3 14 -4 24 -4z" />
    <glyph glyph-name="oslashacute" unicode="&#x1ff;" horiz-adv-x="399" 
d="M340 706l-99 -130h-102l63 130h138zM300 510c41 -24 62 -66 62 -128v-243c0 -99 -53 -149 -160 -149c-19 0 -37 2 -53 5l-26 -77l-43 14l26 77c-46 24 -69 69 -69 136v231c0 104 55 155 165 155c21 0 40 -2 56 -6l24 73l42 -12zM202 447c-38 0 -53 -18 -53 -64v-237
l76 297c-6 3 -14 4 -23 4zM202 75c34 0 48 19 48 63v226l-72 -285c6 -3 14 -4 24 -4z" />
    <glyph glyph-name="otilde" unicode="&#xf5;" horiz-adv-x="399" 
d="M42 573c0 72 18 127 85 127c28 0 57 -11 82 -22c23 -9 44 -19 59 -19c26 0 31 24 34 41h60c0 -75 -29 -127 -85 -127c-20 0 -50 12 -79 23c-25 10 -48 19 -60 19c-24 0 -29 -25 -32 -42h-64zM202 -10c-110 0 -165 51 -165 155v231c0 104 55 155 165 155
c107 0 160 -50 160 -149v-243c0 -99 -53 -149 -160 -149zM202 75c29 0 41 19 41 63v246c0 44 -12 63 -41 63c-33 0 -46 -18 -46 -64v-244c0 -46 13 -64 46 -64z" />
    <glyph glyph-name="oe" unicode="&#x153;" horiz-adv-x="596" 
d="M564 231h-202v-91c0 -40 15 -60 47 -60c28 0 40 18 40 59v30h115v-30c0 -108 -37 -149 -135 -149c-69 0 -108 20 -126 69c-20 -46 -61 -69 -124 -69c-95 0 -142 51 -142 155v231c0 104 47 155 142 155c63 0 104 -23 124 -69c18 49 57 69 126 69c98 0 135 -41 135 -149
v-151zM409 450c-32 0 -47 -19 -47 -60v-76h87v77c0 42 -12 59 -40 59zM243 138v246c0 44 -12 63 -41 63c-33 0 -46 -18 -46 -64v-244c0 -46 13 -64 46 -64c29 0 41 19 41 63z" />
    <glyph glyph-name="p" unicode="p" horiz-adv-x="418" 
d="M44 -147v668h119v-57h2c21 42 60 67 105 67c72 0 111 -50 111 -144v-253c0 -93 -39 -144 -111 -144c-45 0 -84 25 -105 67h-2v-204h-119zM212 74c33 0 50 22 50 65v243c0 43 -17 65 -50 65c-32 0 -49 -27 -49 -76v-221c0 -49 17 -76 49 -76z" />
    <glyph glyph-name="thorn" unicode="&#xfe;" horiz-adv-x="418" 
d="M44 -147v853h119v-242h2c21 42 60 67 105 67c72 0 111 -50 111 -144v-253c0 -93 -39 -144 -111 -144c-45 0 -84 25 -105 67h-2v-204h-119zM212 74c33 0 50 22 50 65v243c0 43 -17 65 -50 65c-32 0 -49 -27 -49 -76v-221c0 -49 17 -76 49 -76z" />
    <glyph glyph-name="q" unicode="q" horiz-adv-x="418" 
d="M374 -147h-119v204h-2c-21 -42 -60 -67 -105 -67c-72 0 -111 51 -111 144v253c0 94 39 144 111 144c45 0 84 -25 105 -67h2v57h119v-668zM206 74c32 0 49 27 49 76v221c0 49 -17 76 -49 76c-33 0 -50 -22 -50 -65v-243c0 -43 17 -65 50 -65z" />
    <glyph glyph-name="r" unicode="r" horiz-adv-x="294" 
d="M44 0v521h119v-95h2c11 63 55 102 120 102v-124c-95 0 -122 -14 -122 -99v-305h-119z" />
    <glyph glyph-name="racute" unicode="&#x155;" horiz-adv-x="294" 
d="M95 576l63 130h138l-99 -130h-102zM44 0v521h119v-95h2c11 63 55 102 120 102v-124c-95 0 -122 -14 -122 -99v-305h-119z" />
    <glyph glyph-name="rcaron" unicode="&#x159;" horiz-adv-x="294" 
d="M199 567h-87l-100 130h102l42 -48l41 48h102zM165 426c11 63 55 102 120 102v-124c-95 0 -122 -14 -122 -99v-305h-119v521h119v-95h2z" />
    <glyph glyph-name="rcommaaccent" unicode="&#x157;" horiz-adv-x="294" 
d="M44 0v521h119v-95h2c11 63 55 102 120 102v-124c-95 0 -122 -14 -122 -99v-305h-119zM155 -191l-45 34c9 11 14 22 14 32v4h-57v80h142v-61c0 -38 -20 -66 -54 -89z" />
    <glyph glyph-name="s" unicode="s" horiz-adv-x="372" 
d="M182 -10c-113 0 -155 49 -155 138v55h110v-43c0 -45 17 -64 49 -64s42 15 42 52c0 38 -12 53 -75 100c-92 68 -118 99 -118 163c0 100 59 140 156 140c107 0 144 -53 144 -130v-47h-102v23c0 44 -9 70 -43 70c-28 0 -43 -17 -43 -46c0 -34 14 -50 82 -101
c94 -70 111 -95 111 -167c0 -92 -53 -143 -158 -143z" />
    <glyph glyph-name="sacute" unicode="&#x15b;" horiz-adv-x="372" 
d="M131 576l63 130h138l-99 -130h-102zM182 -10c-113 0 -155 49 -155 138v55h110v-43c0 -45 17 -64 49 -64s42 15 42 52c0 38 -12 53 -75 100c-92 68 -118 99 -118 163c0 100 59 140 156 140c107 0 144 -53 144 -130v-47h-102v23c0 44 -9 70 -43 70c-28 0 -43 -17 -43 -46
c0 -34 14 -50 82 -101c94 -70 111 -95 111 -167c0 -92 -53 -143 -158 -143z" />
    <glyph glyph-name="scaron" unicode="&#x161;" horiz-adv-x="372" 
d="M235 567h-87l-100 130h102l42 -48l41 48h102zM229 300c94 -70 111 -95 111 -167c0 -92 -53 -143 -158 -143c-113 0 -155 49 -155 138v55h110v-43c0 -45 17 -64 49 -64s42 15 42 52c0 38 -12 53 -75 100c-92 68 -118 99 -118 163c0 100 59 140 156 140
c107 0 144 -53 144 -130v-47h-102v23c0 44 -9 70 -43 70c-28 0 -43 -17 -43 -46c0 -34 14 -50 82 -101z" />
    <glyph glyph-name="scedilla" unicode="&#x15f;" horiz-adv-x="372" 
d="M340 133c0 -85 -46 -135 -136 -142v-18c49 -4 80 -28 80 -68c0 -43 -43 -64 -117 -64c-16 0 -32 1 -56 6v36c12 -1 23 0 32 0c28 0 40 9 40 27c0 19 -11 27 -29 29v52c-92 8 -127 56 -127 137v55h110v-43c0 -45 17 -64 49 -64s42 15 42 52c0 38 -12 53 -75 100
c-92 68 -118 99 -118 163c0 100 59 140 156 140c107 0 144 -53 144 -130v-47h-102v23c0 44 -9 70 -43 70c-28 0 -43 -17 -43 -46c0 -34 14 -50 82 -101c94 -70 111 -95 111 -167z" />
    <glyph glyph-name="scommaaccent" unicode="&#x219;" horiz-adv-x="372" 
d="M182 -10c-113 0 -155 49 -155 138v55h110v-43c0 -45 17 -64 49 -64s42 15 42 52c0 38 -12 53 -75 100c-92 68 -118 99 -118 163c0 100 59 140 156 140c107 0 144 -53 144 -130v-47h-102v23c0 44 -9 70 -43 70c-28 0 -43 -17 -43 -46c0 -34 14 -50 82 -101
c94 -70 111 -95 111 -167c0 -92 -53 -143 -158 -143zM207 -191l-45 34c9 11 14 22 14 32v4h-57v80h142v-61c0 -38 -20 -66 -54 -89z" />
    <glyph glyph-name="germandbls" unicode="&#xdf;" horiz-adv-x="437" 
d="M291 -10c-62 0 -103 33 -103 82v32h68v-14c0 -12 7 -20 17 -20c12 0 18 7 18 20v149c0 70 -23 94 -94 99v96c56 2 76 23 76 79v27c0 52 -17 73 -58 73s-58 -21 -58 -73v-540h-119v532c0 122 59 183 177 183c109 0 171 -59 171 -164v-54c0 -60 -28 -95 -82 -104v-2
c72 -12 105 -57 105 -144v-123c0 -94 -36 -134 -118 -134z" />
    <glyph glyph-name="t" unicode="t" horiz-adv-x="284" 
d="M228 92c10 0 29 2 48 5v-100c-19 -4 -48 -7 -73 -7c-94 0 -140 41 -140 125l1 321h-59v85h59v169h119v-169h86v-85h-86l-1 -286c0 -42 13 -58 46 -58z" />
    <glyph glyph-name="tbar" unicode="&#x167;" horiz-adv-x="295" 
d="M235 92c10 0 29 2 48 5v-100c-19 -4 -48 -7 -73 -7c-94 0 -140 41 -140 125v130h-57v91h57l1 100h-59v85h59v169h119v-169h86v-85h-86l-1 -100h86v-91h-86v-95c0 -42 13 -58 46 -58z" />
    <glyph glyph-name="tcaron" unicode="&#x165;" horiz-adv-x="311" 
d="M228 716h138l-36 -156h-102v156zM182 150c0 -42 13 -58 46 -58c10 0 29 2 48 5v-100c-19 -4 -48 -7 -73 -7c-94 0 -140 41 -140 125l1 321h-59v85h59v169h119v-169h86v-85h-86z" />
    <glyph glyph-name="uni0163" unicode="&#x163;" horiz-adv-x="284" 
d="M203 -10h-16v-17c49 -4 80 -28 80 -68c0 -43 -43 -64 -117 -64c-16 0 -32 1 -56 6v36c12 -1 23 0 32 0c28 0 40 9 40 27c0 19 -11 27 -29 29v60c-50 16 -74 55 -74 116l1 321h-59v85h59v169h119v-169h86v-85h-86l-1 -286c0 -42 13 -58 46 -58c10 0 29 2 48 5v-100
c-19 -4 -48 -7 -73 -7z" />
    <glyph glyph-name="uni021B" unicode="&#x21b;" horiz-adv-x="284" 
d="M228 92c10 0 29 2 48 5v-100c-19 -4 -48 -7 -73 -7c-94 0 -140 41 -140 125l1 321h-59v85h59v169h119v-169h86v-85h-86l-1 -286c0 -42 13 -58 46 -58zM100 -121v80h142v-61c0 -38 -20 -66 -54 -89l-45 34c9 11 14 22 14 32v4h-57z" />
    <glyph glyph-name="u" unicode="u" horiz-adv-x="408" 
d="M145 -10c-65 0 -105 43 -105 114v417h117v-399c0 -33 14 -49 41 -49c31 0 47 24 47 68v380h119v-521h-119v57h-2c-21 -43 -56 -67 -98 -67z" />
    <glyph glyph-name="uacute" unicode="&#xfa;" horiz-adv-x="408" 
d="M139 576l63 130h138l-99 -130h-102zM145 -10c-65 0 -105 43 -105 114v417h117v-399c0 -33 14 -49 41 -49c31 0 47 24 47 68v380h119v-521h-119v57h-2c-21 -43 -56 -67 -98 -67z" />
    <glyph glyph-name="ucircumflex" unicode="&#xfb;" horiz-adv-x="408" 
d="M201 619l-42 -48h-102l100 130h87l100 -130h-102zM245 521h119v-521h-119v57h-2c-21 -43 -56 -67 -98 -67c-65 0 -105 43 -105 114v417h117v-399c0 -33 14 -49 41 -49c31 0 47 24 47 68v380z" />
    <glyph glyph-name="udieresis" unicode="&#xfc;" horiz-adv-x="408" 
d="M65 594v105h103v-105h-103zM232 594v105h103v-105h-103zM145 -10c-65 0 -105 43 -105 114v417h117v-399c0 -33 14 -49 41 -49c31 0 47 24 47 68v380h119v-521h-119v57h-2c-21 -43 -56 -67 -98 -67z" />
    <glyph glyph-name="ugrave" unicode="&#xf9;" horiz-adv-x="408" 
d="M268 576h-102l-99 130h138zM145 -10c-65 0 -105 43 -105 114v417h117v-399c0 -33 14 -49 41 -49c31 0 47 24 47 68v380h119v-521h-119v57h-2c-21 -43 -56 -67 -98 -67z" />
    <glyph glyph-name="uhungarumlaut" unicode="&#x171;" horiz-adv-x="408" 
d="M66 576l63 130h138l-99 -130h-102zM225 576l63 130h138l-99 -130h-102zM145 -10c-65 0 -105 43 -105 114v417h117v-399c0 -33 14 -49 41 -49c31 0 47 24 47 68v380h119v-521h-119v57h-2c-21 -43 -56 -67 -98 -67z" />
    <glyph glyph-name="umacron" unicode="&#x16b;" horiz-adv-x="408" 
d="M81 590v91h238v-91h-238zM145 -10c-65 0 -105 43 -105 114v417h117v-399c0 -33 14 -49 41 -49c31 0 47 24 47 68v380h119v-521h-119v57h-2c-21 -43 -56 -67 -98 -67z" />
    <glyph glyph-name="uogonek" unicode="&#x173;" horiz-adv-x="408" 
d="M354 -74h14v-85h-49c-55 0 -88 24 -88 70v6c0 34 17 61 38 83h-24v57h-2c-21 -43 -56 -67 -98 -67c-65 0 -105 43 -105 114v417h117v-399c0 -33 14 -49 41 -49c31 0 47 24 47 68v380h119v-521h-14c-16 -19 -24 -34 -24 -47v-5c0 -16 9 -22 28 -22z" />
    <glyph glyph-name="uring" unicode="&#x16f;" horiz-adv-x="408" 
d="M200 551c-53 0 -92 40 -92 93c0 51 39 91 92 91c52 0 91 -40 91 -91c0 -53 -39 -93 -91 -93zM200 591c28 0 50 22 50 53c0 30 -22 52 -50 52c-29 0 -51 -22 -51 -52c0 -31 22 -53 51 -53zM145 -10c-65 0 -105 43 -105 114v417h117v-399c0 -33 14 -49 41 -49
c31 0 47 24 47 68v380h119v-521h-119v57h-2c-21 -43 -56 -67 -98 -67z" />
    <glyph glyph-name="v" unicode="v" horiz-adv-x="370" 
d="M235 521h130l-106 -521h-150l-104 521h134l27 -223l20 -232l21 230z" />
    <glyph glyph-name="w" unicode="w" horiz-adv-x="579" 
d="M458 521h116l-116 -521h-117l-51 325l-63 -325h-118l-104 521h116l59 -385l64 385h97l55 -372z" />
    <glyph glyph-name="wacute" unicode="&#x1e83;" horiz-adv-x="579" 
d="M433 706l-99 -130h-102l63 130h138zM458 521h116l-116 -521h-117l-51 325l-63 -325h-118l-104 521h116l59 -385l64 385h97l55 -372z" />
    <glyph glyph-name="wcircumflex" unicode="&#x175;" horiz-adv-x="579" 
d="M294 619l-42 -48h-102l100 130h87l100 -130h-102zM458 521h116l-116 -521h-117l-51 325l-63 -325h-118l-104 521h116l59 -385l64 385h97l55 -372z" />
    <glyph glyph-name="wdieresis" unicode="&#x1e85;" horiz-adv-x="579" 
d="M261 699v-105h-103v105h103zM428 699v-105h-103v105h103zM458 521h116l-116 -521h-117l-51 325l-63 -325h-118l-104 521h116l59 -385l64 385h97l55 -372z" />
    <glyph glyph-name="wgrave" unicode="&#x1e81;" horiz-adv-x="579" 
d="M361 576h-102l-99 130h138zM458 521h116l-116 -521h-117l-51 325l-63 -325h-118l-104 521h116l59 -385l64 385h97l55 -372z" />
    <glyph glyph-name="x" unicode="x" horiz-adv-x="390" 
d="M370 0h-128l-51 159l-51 -159h-120l100 262l-94 259h129l44 -163l44 163h121l-94 -253z" />
    <glyph glyph-name="y" unicode="y" horiz-adv-x="371" 
d="M248 521h118l-117 -537c-24 -112 -56 -143 -147 -143c-24 0 -60 4 -81 9l17 95c15 -4 36 -7 49 -7c29 0 48 22 54 64l-140 519h125l51 -249l17 -90l15 89z" />
    <glyph glyph-name="yacute" unicode="&#xfd;" horiz-adv-x="371" 
d="M327 706l-99 -130h-102l63 130h138zM248 521h118l-117 -537c-24 -112 -56 -143 -147 -143c-24 0 -60 4 -81 9l17 95c15 -4 36 -7 49 -7c29 0 48 22 54 64l-140 519h125l51 -249l17 -90l15 89z" />
    <glyph glyph-name="ycircumflex" unicode="&#x177;" horiz-adv-x="371" 
d="M188 619l-42 -48h-102l100 130h87l100 -130h-102zM248 521h118l-117 -537c-24 -112 -56 -143 -147 -143c-24 0 -60 4 -81 9l17 95c15 -4 36 -7 49 -7c29 0 48 22 54 64l-140 519h125l51 -249l17 -90l15 89z" />
    <glyph glyph-name="ydieresis" unicode="&#xff;" horiz-adv-x="371" 
d="M155 699v-105h-103v105h103zM322 699v-105h-103v105h103zM248 521h118l-117 -537c-24 -112 -56 -143 -147 -143c-24 0 -60 4 -81 9l17 95c15 -4 36 -7 49 -7c29 0 48 22 54 64l-140 519h125l51 -249l17 -90l15 89z" />
    <glyph glyph-name="ygrave" unicode="&#x1ef3;" horiz-adv-x="371" 
d="M255 576h-102l-99 130h138zM248 521h118l-117 -537c-24 -112 -56 -143 -147 -143c-24 0 -60 4 -81 9l17 95c15 -4 36 -7 49 -7c29 0 48 22 54 64l-140 519h125l51 -249l17 -90l15 89z" />
    <glyph glyph-name="z" unicode="z" horiz-adv-x="348" 
d="M323 521v-99l-178 -322h178v-100h-302v102l175 320h-169v99h296z" />
    <glyph glyph-name="zacute" unicode="&#x17a;" horiz-adv-x="348" 
d="M323 706l-99 -130h-102l63 130h138zM27 422v99h296v-99l-178 -322h178v-100h-302v102l175 320h-169z" />
    <glyph glyph-name="zcaron" unicode="&#x17e;" horiz-adv-x="348" 
d="M226 567h-87l-100 130h102l42 -48l41 48h102zM27 422v99h296v-99l-178 -322h178v-100h-302v102l175 320h-169z" />
    <glyph glyph-name="zdotaccent" unicode="&#x17c;" horiz-adv-x="348" 
d="M242 707v-121h-118v121h118zM323 521v-99l-178 -322h178v-100h-302v102l175 320h-169v99h296z" />
    <glyph glyph-name="g.alt" horiz-adv-x="391" 
d="M380 462c-27 0 -44 -8 -59 -28c3 -15 4 -30 4 -48v-74c0 -102 -44 -145 -149 -145c-17 0 -32 1 -46 3c-2 -5 -4 -11 -4 -18c0 -16 12 -27 29 -27l99 -1c75 -1 123 -49 123 -125c0 -89 -72 -158 -191 -158c-128 0 -174 36 -174 100c0 49 20 76 77 85c-28 16 -44 44 -44 84
c0 32 11 59 32 78c-38 23 -55 65 -55 129v64c0 106 46 150 154 150c51 0 88 -10 112 -33c15 42 54 74 93 74h7l1 -110h-9zM210 290v118c-1 33 -11 46 -35 46c-28 0 -38 -13 -39 -47v-116c1 -34 11 -47 39 -47c24 0 34 13 35 46zM250 10h-85c-61 0 -66 -14 -66 -36
c0 -27 25 -40 87 -40c72 0 102 13 102 44c0 17 -16 32 -38 32z" />
    <glyph glyph-name="gbreve.alt" horiz-adv-x="391" 
d="M182 563c-88 0 -117 46 -129 129l75 11c7 -41 15 -65 54 -65s47 24 54 65l75 -11c-12 -83 -41 -129 -129 -129zM380 462c-27 0 -44 -8 -59 -28c3 -15 4 -30 4 -48v-74c0 -102 -44 -145 -149 -145c-17 0 -32 1 -46 3c-2 -5 -4 -11 -4 -18c0 -16 12 -27 29 -27l99 -1
c75 -1 123 -49 123 -125c0 -89 -72 -158 -191 -158c-128 0 -174 36 -174 100c0 49 20 76 77 85c-28 16 -44 44 -44 84c0 32 11 59 32 78c-38 23 -55 65 -55 129v64c0 106 46 150 154 150c51 0 88 -10 112 -33c15 42 54 74 93 74h7l1 -110h-9zM210 290v118
c-1 33 -11 46 -35 46c-28 0 -38 -13 -39 -47v-116c1 -34 11 -47 39 -47c24 0 34 13 35 46zM250 10h-85c-61 0 -66 -14 -66 -36c0 -27 25 -40 87 -40c72 0 102 13 102 44c0 17 -16 32 -38 32z" />
    <glyph glyph-name="gcommaaccent.alt" horiz-adv-x="391" 
d="M241 672v-103h-118v72c0 77 19 112 51 144l42 -35c-20 -19 -30 -38 -30 -65v-13h55zM380 462c-27 0 -44 -8 -59 -28c3 -15 4 -30 4 -48v-74c0 -102 -44 -145 -149 -145c-17 0 -32 1 -46 3c-2 -5 -4 -11 -4 -18c0 -16 12 -27 29 -27l99 -1c75 -1 123 -49 123 -125
c0 -89 -72 -158 -191 -158c-128 0 -174 36 -174 100c0 49 20 76 77 85c-28 16 -44 44 -44 84c0 32 11 59 32 78c-38 23 -55 65 -55 129v64c0 106 46 150 154 150c51 0 88 -10 112 -33c15 42 54 74 93 74h7l1 -110h-9zM210 290v118c-1 33 -11 46 -35 46
c-28 0 -38 -13 -39 -47v-116c1 -34 11 -47 39 -47c24 0 34 13 35 46zM250 10h-85c-61 0 -66 -14 -66 -36c0 -27 25 -40 87 -40c72 0 102 13 102 44c0 17 -16 32 -38 32z" />
    <glyph glyph-name="gdotaccent.alt" horiz-adv-x="391" 
d="M241 707v-121h-118v121h118zM380 462c-27 0 -44 -8 -59 -28c3 -15 4 -30 4 -48v-74c0 -102 -44 -145 -149 -145c-17 0 -32 1 -46 3c-2 -5 -4 -11 -4 -18c0 -16 12 -27 29 -27l99 -1c75 -1 123 -49 123 -125c0 -89 -72 -158 -191 -158c-128 0 -174 36 -174 100
c0 49 20 76 77 85c-28 16 -44 44 -44 84c0 32 11 59 32 78c-38 23 -55 65 -55 129v64c0 106 46 150 154 150c51 0 88 -10 112 -33c15 42 54 74 93 74h7l1 -110h-9zM210 290v118c-1 33 -11 46 -35 46c-28 0 -38 -13 -39 -47v-116c1 -34 11 -47 39 -47c24 0 34 13 35 46z
M250 10h-85c-61 0 -66 -14 -66 -36c0 -27 25 -40 87 -40c72 0 102 13 102 44c0 17 -16 32 -38 32z" />
    <glyph glyph-name="f_f_t" horiz-adv-x="780" 
d="M724 92c10 0 29 2 48 5v-100c-19 -4 -48 -7 -73 -7c-94 0 -140 41 -140 125l1 321h-129v-436h-119v436h-53v-6h-77v-430h-119v430h-58v91h58v29c0 100 52 144 150 144c20 0 41 -3 53 -6v-99c-12 2 -28 3 -38 3c-28 0 -46 -10 -46 -58v-13h130v50c0 100 52 144 150 144
c16 0 41 -4 53 -7v-99c-12 2 -28 4 -38 4c-28 0 -46 -10 -46 -58v-34h129v169h119v-169h86v-85h-86l-1 -286c0 -42 13 -58 46 -58z" />
    <glyph glyph-name="f_t" horiz-adv-x="533" 
d="M477 92c10 0 29 2 48 5v-100c-19 -4 -48 -7 -73 -7c-94 0 -140 41 -140 125l1 321h-131v-436h-119v436h-58v85h58v50c0 100 52 144 150 144c16 0 41 -4 53 -7v-99c-12 2 -28 4 -38 4c-28 0 -46 -10 -46 -58v-34h131v169h119v-169h86v-85h-86l-1 -286c0 -42 13 -58 46 -58
z" />
    <glyph glyph-name="ordfeminine" unicode="&#xaa;" horiz-adv-x="250" 
d="M223 484c4 0 5 0 7 1v-55c-7 -2 -15 -4 -19 -4c-41 0 -59 13 -64 49h-2c-7 -30 -31 -49 -61 -49c-47 0 -74 26 -74 70v11c0 38 17 58 74 87c37 18 49 30 49 48v6c0 16 -7 23 -23 23c-20 0 -26 -8 -26 -33v-13h-69v9c0 58 28 81 99 81c60 0 92 -22 92 -72v-141
c0 -12 5 -18 17 -18zM103 473c19 0 30 15 30 40v62c-4 -3 -9 -8 -19 -14c-25 -15 -32 -24 -32 -43v-15c0 -18 8 -30 21 -30z" />
    <glyph glyph-name="ordmasculine" unicode="&#xba;" horiz-adv-x="222" 
d="M112 426c-65 0 -97 27 -97 83v123c0 56 32 83 97 83c64 0 95 -26 95 -80v-129c0 -54 -31 -80 -95 -80zM112 474c15 0 22 10 22 32v129c0 22 -7 32 -22 32c-17 0 -24 -9 -24 -32v-128c0 -24 7 -33 24 -33z" />
    <glyph glyph-name="uni0394" unicode="&#x394;" horiz-adv-x="560" 
d="M339 706l211 -706h-540l214 706h115zM280 560l-124 -451h247z" />
    <glyph glyph-name="uni03A9" unicode="&#x3a9;" horiz-adv-x="474" 
d="M34 0v109h108c-72 43 -100 118 -100 267v75c0 197 53 270 197 270c143 0 193 -70 193 -270v-75c0 -149 -28 -224 -100 -267h108v-109h-186v76c34 37 48 111 48 257v116c0 132 -14 168 -63 168c-52 0 -67 -40 -67 -173v-111c0 -146 14 -220 48 -257v-76h-186z" />
    <glyph glyph-name="pi" unicode="&#x3c0;" horiz-adv-x="483" 
d="M76 0v437h-46v84h423v-85h-49v-436h-119v436h-90v-436h-119z" />
    <glyph glyph-name="zero" unicode="0" horiz-adv-x="474" 
d="M241 -15c-134 0 -198 57 -198 177v363c0 131 61 190 197 190c134 0 193 -58 193 -190v-363c0 -123 -59 -177 -192 -177zM239 92c47 0 64 22 64 83v348c0 65 -17 88 -63 88c-48 0 -67 -26 -67 -93v-340c0 -64 17 -86 66 -86z" />
    <glyph glyph-name="one" unicode="1" horiz-adv-x="328" 
d="M148 0v532c-30 -25 -69 -35 -110 -42l-10 117c64 7 134 48 156 99h94v-706h-130z" />
    <glyph glyph-name="two" unicode="2" horiz-adv-x="417" 
d="M164 120h235v-120h-378v76c0 76 32 138 88 200l84 92c43 48 57 72 57 125v62c0 38 -18 59 -48 59c-33 0 -52 -23 -52 -65v-81h-127v57c0 125 63 190 182 190c116 0 175 -54 175 -163v-66c0 -68 -28 -125 -79 -180l-96 -104c-25 -27 -38 -51 -41 -82z" />
    <glyph glyph-name="three" unicode="3" horiz-adv-x="432" 
d="M213 -15c-115 0 -185 55 -185 146v89h128v-73c0 -45 19 -67 60 -67c33 0 51 21 51 58v70c0 77 -29 102 -116 102h-17v101h37c63 0 96 34 96 101v44c0 42 -19 63 -55 63c-37 0 -58 -24 -58 -64v-70h-123v83c0 92 71 147 191 147c109 0 172 -55 172 -150v-65
c0 -75 -40 -122 -107 -134v-2c74 -8 110 -52 110 -137v-80c0 -104 -66 -162 -184 -162z" />
    <glyph glyph-name="four" unicode="4" horiz-adv-x="426" 
d="M372 223h44v-104h-44v-119h-130v119h-232v100c73 205 102 312 102 487h143c0 -153 -43 -294 -131 -483h125v232h123v-232z" />
    <glyph glyph-name="five" unicode="5" horiz-adv-x="454" 
d="M235 -15c-134 0 -192 50 -192 166v65h128v-59c0 -46 19 -69 59 -69c39 0 60 22 60 65v164c0 45 -19 68 -55 68c-40 0 -62 -20 -66 -60l-1 -10h-115l7 391h349v-120h-229l-6 -172h4c22 51 61 76 120 76c77 0 122 -48 122 -131v-198c0 -114 -66 -176 -185 -176z" />
    <glyph glyph-name="six" unicode="6" horiz-adv-x="469" 
d="M238 -15c-134 0 -195 58 -195 186v354c0 128 66 190 201 190c134 0 187 -56 187 -199v-18h-131v41c0 49 -22 75 -61 75c-44 0 -66 -25 -66 -75v-159h4c33 50 74 76 126 76c83 0 128 -46 128 -136v-150c0 -129 -59 -185 -193 -185zM242 88c43 0 62 23 62 74v118
c0 50 -21 73 -65 73s-66 -30 -66 -90v-85c0 -61 22 -90 69 -90z" />
    <glyph glyph-name="seven" unicode="7" horiz-adv-x="410" 
d="M20 706h372v-105c-105 -185 -157 -382 -157 -588v-13h-139v11c0 152 79 413 174 580h-250v115z" />
    <glyph glyph-name="eight" unicode="8" horiz-adv-x="459" 
d="M230 -15c-127 0 -195 58 -195 167v70c0 88 39 138 114 145v2c-71 12 -109 59 -109 134v50c0 104 72 162 190 162c117 0 189 -58 189 -162v-50c0 -75 -38 -122 -109 -134v-2c75 -7 114 -57 114 -145v-70c0 -109 -68 -167 -194 -167zM230 401c39 0 61 29 61 81v61
c0 49 -22 76 -62 76c-41 0 -61 -25 -61 -76v-61c0 -53 21 -81 62 -81zM230 80c38 0 64 27 64 68v92c0 60 -20 87 -63 87c-45 0 -66 -27 -66 -87v-93c0 -42 25 -67 65 -67z" />
    <glyph glyph-name="nine" unicode="9" horiz-adv-x="469" 
d="M231 715c134 0 195 -58 195 -186v-354c0 -128 -66 -190 -201 -190c-134 0 -187 56 -187 199v18h131v-41c0 -49 22 -75 61 -75c44 0 66 25 66 75v159h-4c-33 -50 -74 -76 -126 -76c-83 0 -128 46 -128 136v150c0 129 59 185 193 185zM227 612c-43 0 -62 -23 -62 -74v-118
c0 -50 21 -73 65 -73s66 30 66 90v85c0 61 -22 90 -69 90z" />
    <glyph glyph-name="zero.tf" horiz-adv-x="475" 
d="M241 -15c-134 0 -198 57 -198 177v363c0 131 61 190 197 190c134 0 193 -58 193 -190v-363c0 -123 -59 -177 -192 -177zM239 92c47 0 64 22 64 83v348c0 65 -17 88 -63 88c-48 0 -67 -26 -67 -93v-340c0 -64 17 -86 66 -86z" />
    <glyph glyph-name="one.tf" horiz-adv-x="475" 
d="M313 115h129v-115h-397v115h138v423c-28 -23 -70 -37 -132 -43v112c74 11 149 55 168 99h94v-591z" />
    <glyph glyph-name="two.tf" horiz-adv-x="475" 
d="M197 120h238v-120h-382v76c0 77 34 137 91 200l83 92c47 53 64 77 64 125v62c0 38 -20 59 -52 59c-36 0 -56 -23 -56 -65v-81h-128v57c0 125 66 190 189 190c116 0 177 -54 177 -163v-66c0 -68 -29 -125 -89 -189l-88 -95c-28 -30 -43 -53 -47 -82z" />
    <glyph glyph-name="three.tf" horiz-adv-x="475" 
d="M231 -15c-122 0 -196 55 -196 146v89h128v-61c0 -55 22 -79 72 -79c40 0 61 25 61 73v55c0 75 -35 102 -131 102v101h4c84 0 126 34 126 101v38c0 47 -21 69 -65 69s-68 -25 -68 -72v-62h-124v69c0 105 71 161 203 161c114 0 182 -56 182 -150v-65
c0 -75 -42 -122 -113 -134v-2c78 -8 116 -52 116 -137v-80c0 -104 -70 -162 -195 -162z" />
    <glyph glyph-name="four.tf" horiz-adv-x="475" 
d="M400 223h42v-113h-42v-110h-130v110h-242v98c46 125 103 313 103 498h141c0 -165 -59 -346 -122 -483h120v222h130v-222z" />
    <glyph glyph-name="five.tf" horiz-adv-x="475" 
d="M245 -15c-134 0 -192 50 -192 166v65h128v-59c0 -46 19 -69 59 -69c39 0 60 22 60 65v164c0 45 -19 68 -55 68c-40 0 -62 -20 -66 -60l-1 -10h-115l7 391h349v-120h-229l-6 -172h4c22 51 61 76 120 76c77 0 122 -48 122 -131v-198c0 -114 -66 -176 -185 -176z" />
    <glyph glyph-name="six.tf" horiz-adv-x="475" 
d="M242 -15c-134 0 -195 58 -195 186v354c0 128 66 190 201 190c134 0 187 -56 187 -199v-18h-131v41c0 49 -22 75 -61 75c-44 0 -66 -25 -66 -75v-159h4c33 50 74 76 126 76c83 0 128 -46 128 -136v-150c0 -129 -59 -185 -193 -185zM246 88c43 0 62 23 62 74v118
c0 50 -21 73 -65 73s-66 -30 -66 -90v-85c0 -61 22 -90 69 -90z" />
    <glyph glyph-name="seven.tf" horiz-adv-x="475" 
d="M40 706h400v-105c-105 -185 -163 -382 -163 -588v-13h-139v11c0 152 84 413 180 580h-169v-117h-109v232z" />
    <glyph glyph-name="eight.tf" horiz-adv-x="475" 
d="M238 -15c-127 0 -195 58 -195 167v70c0 88 39 138 114 145v2c-71 12 -109 59 -109 134v50c0 104 72 162 190 162c117 0 189 -58 189 -162v-50c0 -75 -38 -122 -109 -134v-2c75 -7 114 -57 114 -145v-70c0 -109 -68 -167 -194 -167zM238 401c39 0 61 29 61 81v61
c0 49 -22 76 -62 76c-41 0 -61 -25 -61 -76v-61c0 -53 21 -81 62 -81zM238 80c38 0 64 27 64 68v92c0 60 -20 87 -63 87c-45 0 -66 -27 -66 -87v-93c0 -42 25 -67 65 -67z" />
    <glyph glyph-name="nine.tf" horiz-adv-x="475" 
d="M233 715c134 0 195 -58 195 -186v-354c0 -128 -66 -190 -201 -190c-134 0 -187 56 -187 199v18h131v-41c0 -49 22 -75 61 -75c44 0 66 25 66 75v159h-4c-33 -50 -74 -76 -126 -76c-83 0 -128 46 -128 136v150c0 129 59 185 193 185zM229 612c-43 0 -62 -23 -62 -74v-118
c0 -50 21 -73 65 -73s66 30 66 90v85c0 61 -22 90 -69 90z" />
    <glyph glyph-name="uni2080" unicode="&#x2080;" horiz-adv-x="304" 
d="M154 -164c-88 0 -129 35 -129 110v228c0 81 40 118 128 118s126 -36 126 -118v-228c0 -77 -38 -110 -125 -110zM153 -98c30 0 40 13 40 52v219c0 40 -10 54 -40 54c-31 0 -42 -16 -42 -57v-214c0 -40 11 -54 42 -54z" />
    <glyph glyph-name="uni2081" unicode="&#x2081;" horiz-adv-x="274" 
d="M118 -156v327c-11 -11 -35 -19 -78 -27v71c42 10 77 34 104 70h60v-441h-86z" />
    <glyph glyph-name="uni2082" unicode="&#x2082;" horiz-adv-x="293" 
d="M14 -155l1 56c1 45 18 77 66 123l77 73c19 17 25 30 25 54v32c0 25 -13 39 -38 39c-27 0 -40 -14 -40 -43v-45h-82v48c0 65 51 110 126 110c77 0 120 -39 120 -109v-39c0 -35 -17 -66 -55 -102l-76 -71c-21 -21 -26 -30 -26 -49v-3h162v-74h-260z" />
    <glyph glyph-name="uni2083" unicode="&#x2083;" horiz-adv-x="303" 
d="M148 -164c-75 0 -123 37 -123 97v53h82v-48c0 -24 14 -36 43 -36c25 0 37 14 37 43v50c0 39 -22 52 -86 52v66h9c58 0 75 13 75 55v25c0 22 -13 34 -38 34c-27 0 -39 -11 -39 -35v-41h-80v35c0 68 43 106 122 106c74 0 119 -36 119 -94v-36c0 -44 -24 -71 -67 -79v-1
c51 -10 71 -35 71 -85v-52c0 -69 -46 -109 -125 -109z" />
    <glyph glyph-name="uni2084" unicode="&#x2084;" horiz-adv-x="303" 
d="M253 -15h30v-74h-30v-67h-86v67h-157v70c36 83 70 178 70 303h100c0 -116 -44 -219 -90 -299h77v129h86v-129z" />
    <glyph glyph-name="uni2085" unicode="&#x2085;" horiz-adv-x="301" 
d="M153 -161c-90 0 -129 31 -129 103v40h85v-37c0 -28 14 -42 42 -42c29 0 43 15 43 47v88c0 27 -14 42 -39 42c-27 0 -40 -11 -45 -37l-1 -6h-78l5 248h237v-77h-156l-4 -110h3c15 33 42 48 84 48c50 0 80 -30 80 -82v-99c0 -86 -40 -126 -127 -126z" />
    <glyph glyph-name="uni2086" unicode="&#x2086;" horiz-adv-x="302" 
d="M154 -164c-88 0 -129 37 -129 116v224c0 80 41 116 132 116c87 0 122 -34 122 -119v-15h-86v23c0 30 -13 46 -39 46c-27 0 -43 -17 -43 -44v-101h3c19 32 47 49 84 49c51 1 81 -30 81 -84v-96c0 -80 -38 -115 -125 -115zM155 -98c27 0 38 13 38 44v76c0 30 -13 45 -39 45
c-29 0 -43 -18 -43 -53v-58c0 -37 14 -54 44 -54z" />
    <glyph glyph-name="uni2087" unicode="&#x2087;" horiz-adv-x="275" 
d="M15 286h245v-66c-74 -132 -110 -253 -110 -368v-8h-94v7c0 87 53 245 118 358h-159v77z" />
    <glyph glyph-name="uni2088" unicode="&#x2088;" horiz-adv-x="314" 
d="M157 -164c-77 0 -127 43 -127 109v48c0 49 19 74 64 85v1c-38 8 -60 37 -60 79v40c0 59 46 94 123 94s123 -35 123 -94v-40c0 -42 -22 -71 -60 -79v-1c45 -11 64 -36 64 -85v-48c0 -66 -50 -109 -127 -109zM157 101c27 0 39 15 39 48v37c0 27 -13 41 -39 41
s-39 -14 -39 -41v-37c0 -33 12 -48 39 -48zM157 -98c28 0 41 13 41 40v64c0 31 -14 47 -41 47s-41 -16 -41 -47v-64c0 -27 13 -40 41 -40z" />
    <glyph glyph-name="uni2089" unicode="&#x2089;" horiz-adv-x="302" 
d="M148 297c88 0 129 -37 129 -116v-224c0 -80 -41 -116 -132 -116c-87 0 -122 34 -122 119v15h86v-23c0 -30 13 -46 39 -46c27 0 43 17 43 44v101h-3c-19 -32 -47 -49 -84 -49c-51 -1 -81 30 -81 84v96c0 80 38 115 125 115zM147 231c-27 0 -38 -13 -38 -44v-76
c0 -30 13 -45 39 -45c29 0 43 18 43 53v58c0 37 -14 54 -44 54z" />
    <glyph glyph-name="zero.dnom" horiz-adv-x="304" 
d="M154 -14c-88 0 -129 35 -129 110v228c0 81 40 118 128 118s126 -36 126 -118v-228c0 -77 -38 -110 -125 -110zM153 52c30 0 40 13 40 52v219c0 40 -10 54 -40 54c-31 0 -42 -16 -42 -57v-214c0 -40 11 -54 42 -54z" />
    <glyph glyph-name="one.dnom" horiz-adv-x="274" 
d="M118 -4v327c-11 -11 -35 -19 -78 -27v71c42 10 77 34 104 70h60v-441h-86z" />
    <glyph glyph-name="two.dnom" horiz-adv-x="293" 
d="M14 -3l1 56c1 45 18 77 66 123l77 73c19 17 25 30 25 54v32c0 25 -13 39 -38 39c-27 0 -40 -14 -40 -43v-45h-82v48c0 65 51 110 126 110c77 0 120 -39 120 -109v-39c0 -35 -17 -66 -55 -102l-76 -71c-21 -21 -26 -30 -26 -49v-3h162v-74h-260z" />
    <glyph glyph-name="three.dnom" horiz-adv-x="303" 
d="M148 -12c-75 0 -123 37 -123 97v53h82v-48c0 -24 14 -36 43 -36c25 0 37 14 37 43v50c0 39 -22 52 -86 52v66h9c58 0 75 13 75 55v25c0 22 -13 34 -38 34c-27 0 -39 -11 -39 -35v-41h-80v35c0 68 43 106 122 106c74 0 119 -36 119 -94v-36c0 -44 -24 -71 -67 -79v-1
c51 -10 71 -35 71 -85v-52c0 -69 -46 -109 -125 -109z" />
    <glyph glyph-name="four.dnom" horiz-adv-x="303" 
d="M253 137h30v-74h-30v-67h-86v67h-157v70c36 83 70 178 70 303h100c0 -116 -44 -219 -90 -299h77v129h86v-129z" />
    <glyph glyph-name="five.dnom" horiz-adv-x="301" 
d="M153 -9c-90 0 -129 31 -129 103v40h85v-37c0 -28 14 -42 42 -42c29 0 43 15 43 47v88c0 27 -14 42 -39 42c-27 0 -40 -11 -45 -37l-1 -6h-78l5 248h237v-77h-156l-4 -110h3c15 33 42 48 84 48c50 0 80 -30 80 -82v-99c0 -86 -40 -126 -127 -126z" />
    <glyph glyph-name="six.dnom" horiz-adv-x="302" 
d="M154 -12c-88 0 -129 37 -129 116v224c0 80 41 116 132 116c87 0 122 -34 122 -119v-15h-86v23c0 30 -13 46 -39 46c-27 0 -43 -17 -43 -44v-101h3c19 32 47 49 84 49c51 1 81 -30 81 -84v-96c0 -80 -38 -115 -125 -115zM155 54c27 0 38 13 38 44v76c0 30 -13 45 -39 45
c-29 0 -43 -18 -43 -53v-58c0 -37 14 -54 44 -54z" />
    <glyph glyph-name="seven.dnom" horiz-adv-x="275" 
d="M15 438h245v-66c-74 -132 -110 -253 -110 -368v-8h-94v7c0 87 53 245 118 358h-159v77z" />
    <glyph glyph-name="eight.dnom" horiz-adv-x="314" 
d="M157 -12c-77 0 -127 43 -127 109v48c0 49 19 74 64 85v1c-38 8 -60 37 -60 79v40c0 59 46 94 123 94s123 -35 123 -94v-40c0 -42 -22 -71 -60 -79v-1c45 -11 64 -36 64 -85v-48c0 -66 -50 -109 -127 -109zM157 253c27 0 39 15 39 48v37c0 27 -13 41 -39 41
s-39 -14 -39 -41v-37c0 -33 12 -48 39 -48zM157 54c28 0 41 13 41 40v64c0 31 -14 47 -41 47s-41 -16 -41 -47v-64c0 -27 13 -40 41 -40z" />
    <glyph glyph-name="nine.dnom" horiz-adv-x="302" 
d="M148 449c88 0 129 -37 129 -116v-224c0 -80 -41 -116 -132 -116c-87 0 -122 34 -122 119v15h86v-23c0 -30 13 -46 39 -46c27 0 43 17 43 44v101h-3c-19 -32 -47 -49 -84 -49c-51 -1 -81 30 -81 84v96c0 80 38 115 125 115zM147 383c-27 0 -38 -13 -38 -44v-76
c0 -30 13 -45 39 -45c29 0 43 18 43 53v58c0 37 -14 54 -44 54z" />
    <glyph glyph-name="zero.numr" horiz-adv-x="304" 
d="M154 258c-88 0 -129 35 -129 110v228c0 81 40 118 128 118s126 -36 126 -118v-228c0 -77 -38 -110 -125 -110zM153 324c30 0 40 13 40 52v219c0 40 -10 54 -40 54c-31 0 -42 -16 -42 -57v-214c0 -40 11 -54 42 -54z" />
    <glyph glyph-name="one.numr" horiz-adv-x="274" 
d="M118 266v327c-11 -11 -35 -19 -78 -27v71c42 10 77 34 104 70h60v-441h-86z" />
    <glyph glyph-name="two.numr" horiz-adv-x="293" 
d="M14 267l1 56c1 45 18 77 66 123l77 73c19 17 25 30 25 54v32c0 25 -13 39 -38 39c-27 0 -40 -14 -40 -43v-45h-82v48c0 65 51 110 126 110c77 0 120 -39 120 -109v-39c0 -35 -17 -66 -55 -102l-76 -71c-21 -21 -26 -30 -26 -49v-3h162v-74h-260z" />
    <glyph glyph-name="three.numr" horiz-adv-x="303" 
d="M148 258c-75 0 -123 37 -123 97v53h82v-48c0 -24 14 -36 43 -36c25 0 37 14 37 43v50c0 39 -22 52 -86 52v66h9c58 0 75 13 75 55v25c0 22 -13 34 -38 34c-27 0 -39 -11 -39 -35v-41h-80v35c0 68 43 106 122 106c74 0 119 -36 119 -94v-36c0 -44 -24 -71 -67 -79v-1
c51 -10 71 -35 71 -85v-52c0 -69 -46 -109 -125 -109z" />
    <glyph glyph-name="four.numr" horiz-adv-x="303" 
d="M253 407h30v-74h-30v-67h-86v67h-157v70c36 83 70 178 70 303h100c0 -116 -44 -219 -90 -299h77v129h86v-129z" />
    <glyph glyph-name="five.numr" horiz-adv-x="301" 
d="M153 261c-90 0 -129 31 -129 103v40h85v-37c0 -28 14 -42 42 -42c29 0 43 15 43 47v88c0 27 -14 42 -39 42c-27 0 -40 -11 -45 -37l-1 -6h-78l5 248h237v-77h-156l-4 -110h3c15 33 42 48 84 48c50 0 80 -30 80 -82v-99c0 -86 -40 -126 -127 -126z" />
    <glyph glyph-name="six.numr" horiz-adv-x="302" 
d="M154 258c-88 0 -129 37 -129 116v224c0 80 41 116 132 116c87 0 122 -34 122 -119v-15h-86v23c0 30 -13 46 -39 46c-27 0 -43 -17 -43 -44v-101h3c19 32 47 49 84 49c51 1 81 -30 81 -84v-96c0 -80 -38 -115 -125 -115zM155 324c27 0 38 13 38 44v76c0 30 -13 45 -39 45
c-29 0 -43 -18 -43 -53v-58c0 -37 14 -54 44 -54z" />
    <glyph glyph-name="seven.numr" horiz-adv-x="275" 
d="M15 708h245v-66c-74 -132 -110 -253 -110 -368v-8h-94v7c0 87 53 245 118 358h-159v77z" />
    <glyph glyph-name="eight.numr" horiz-adv-x="314" 
d="M157 258c-77 0 -127 43 -127 109v48c0 49 19 74 64 85v1c-38 8 -60 37 -60 79v40c0 59 46 94 123 94s123 -35 123 -94v-40c0 -42 -22 -71 -60 -79v-1c45 -11 64 -36 64 -85v-48c0 -66 -50 -109 -127 -109zM157 523c27 0 39 15 39 48v37c0 27 -13 41 -39 41
s-39 -14 -39 -41v-37c0 -33 12 -48 39 -48zM157 324c28 0 41 13 41 40v64c0 31 -14 47 -41 47s-41 -16 -41 -47v-64c0 -27 13 -40 41 -40z" />
    <glyph glyph-name="nine.numr" horiz-adv-x="302" 
d="M148 719c88 0 129 -37 129 -116v-224c0 -80 -41 -116 -132 -116c-87 0 -122 34 -122 119v15h86v-23c0 -30 13 -46 39 -46c27 0 43 17 43 44v101h-3c-19 -32 -47 -49 -84 -49c-51 -1 -81 30 -81 84v96c0 80 38 115 125 115zM147 653c-27 0 -38 -13 -38 -44v-76
c0 -30 13 -45 39 -45c29 0 43 18 43 53v58c0 37 -14 54 -44 54z" />
    <glyph glyph-name="uni2070" unicode="&#x2070;" horiz-adv-x="304" 
d="M154 398c-88 0 -129 35 -129 110v228c0 81 40 118 128 118s126 -36 126 -118v-228c0 -77 -38 -110 -125 -110zM153 464c30 0 40 13 40 52v219c0 40 -10 54 -40 54c-31 0 -42 -16 -42 -57v-214c0 -40 11 -54 42 -54z" />
    <glyph glyph-name="uni00B9" unicode="&#xb9;" horiz-adv-x="274" 
d="M118 406v327c-11 -11 -35 -19 -78 -27v71c42 10 77 34 104 70h60v-441h-86z" />
    <glyph glyph-name="uni00B2" unicode="&#xb2;" horiz-adv-x="293" 
d="M14 407l1 56c1 45 18 77 66 123l77 73c19 17 25 30 25 54v32c0 25 -13 39 -38 39c-27 0 -40 -14 -40 -43v-45h-82v48c0 65 51 110 126 110c77 0 120 -39 120 -109v-39c0 -35 -17 -66 -55 -102l-76 -71c-21 -21 -26 -30 -26 -49v-3h162v-74h-260z" />
    <glyph glyph-name="uni00B3" unicode="&#xb3;" horiz-adv-x="303" 
d="M148 398c-75 0 -123 37 -123 97v53h82v-48c0 -24 14 -36 43 -36c25 0 37 14 37 43v50c0 39 -22 52 -86 52v66h9c58 0 75 13 75 55v25c0 22 -13 34 -38 34c-27 0 -39 -11 -39 -35v-41h-80v35c0 68 43 106 122 106c74 0 119 -36 119 -94v-36c0 -44 -24 -71 -67 -79v-1
c51 -10 71 -35 71 -85v-52c0 -69 -46 -109 -125 -109z" />
    <glyph glyph-name="uni2074" unicode="&#x2074;" horiz-adv-x="303" 
d="M253 547h30v-74h-30v-67h-86v67h-157v70c36 83 70 178 70 303h100c0 -116 -44 -219 -90 -299h77v129h86v-129z" />
    <glyph glyph-name="uni2075" unicode="&#x2075;" horiz-adv-x="301" 
d="M153 401c-90 0 -129 31 -129 103v40h85v-37c0 -28 14 -42 42 -42c29 0 43 15 43 47v88c0 27 -14 42 -39 42c-27 0 -40 -11 -45 -37l-1 -6h-78l5 248h237v-77h-156l-4 -110h3c15 33 42 48 84 48c50 0 80 -30 80 -82v-99c0 -86 -40 -126 -127 -126z" />
    <glyph glyph-name="uni2076" unicode="&#x2076;" horiz-adv-x="302" 
d="M154 398c-88 0 -129 37 -129 116v224c0 80 41 116 132 116c87 0 122 -34 122 -119v-15h-86v23c0 30 -13 46 -39 46c-27 0 -43 -17 -43 -44v-101h3c19 32 47 49 84 49c51 1 81 -30 81 -84v-96c0 -80 -38 -115 -125 -115zM155 464c27 0 38 13 38 44v76c0 30 -13 45 -39 45
c-29 0 -43 -18 -43 -53v-58c0 -37 14 -54 44 -54z" />
    <glyph glyph-name="uni2077" unicode="&#x2077;" horiz-adv-x="275" 
d="M15 848h245v-66c-74 -132 -110 -253 -110 -368v-8h-94v7c0 87 53 245 118 358h-159v77z" />
    <glyph glyph-name="uni2078" unicode="&#x2078;" horiz-adv-x="314" 
d="M157 398c-77 0 -127 43 -127 109v48c0 49 19 74 64 85v1c-38 8 -60 37 -60 79v40c0 59 46 94 123 94s123 -35 123 -94v-40c0 -42 -22 -71 -60 -79v-1c45 -11 64 -36 64 -85v-48c0 -66 -50 -109 -127 -109zM157 663c27 0 39 15 39 48v37c0 27 -13 41 -39 41
s-39 -14 -39 -41v-37c0 -33 12 -48 39 -48zM157 464c28 0 41 13 41 40v64c0 31 -14 47 -41 47s-41 -16 -41 -47v-64c0 -27 13 -40 41 -40z" />
    <glyph glyph-name="uni2079" unicode="&#x2079;" horiz-adv-x="302" 
d="M148 859c88 0 129 -37 129 -116v-224c0 -80 -41 -116 -132 -116c-87 0 -122 34 -122 119v15h86v-23c0 -30 13 -46 39 -46c27 0 43 17 43 44v101h-3c-19 -32 -47 -49 -84 -49c-51 -1 -81 30 -81 84v96c0 80 38 115 125 115zM147 793c-27 0 -38 -13 -38 -44v-76
c0 -30 13 -45 39 -45c29 0 43 18 43 53v58c0 37 -14 54 -44 54z" />
    <glyph glyph-name="fraction" unicode="&#x2044;" horiz-adv-x="125" 
d="M-134 -16l-45 28l434 709l49 -30z" />
    <glyph glyph-name="onehalf" unicode="&#xbd;" horiz-adv-x="692" 
d="M140 -16l-45 28l434 709l49 -30zM118 266v327c-11 -11 -35 -19 -78 -27v71c42 10 77 34 104 70h60v-441h-86zM413 -3l1 56c1 45 18 77 66 123l77 73c19 17 25 30 25 54v32c0 25 -13 39 -38 39c-27 0 -40 -14 -40 -43v-45h-82v48c0 65 51 110 126 110
c77 0 120 -39 120 -109v-39c0 -35 -17 -66 -55 -102l-76 -71c-21 -21 -26 -30 -26 -49v-3h162v-74h-260z" />
    <glyph glyph-name="onequarter" unicode="&#xbc;" horiz-adv-x="672" 
d="M529 721l49 -30l-438 -707l-45 28zM118 266v327c-11 -11 -35 -19 -78 -27v71c42 10 77 34 104 70h60v-441h-86zM622 137h30v-74h-30v-67h-86v67h-157v70c36 83 70 178 70 303h100c0 -116 -44 -219 -90 -299h77v129h86v-129z" />
    <glyph glyph-name="threequarters" unicode="&#xbe;" horiz-adv-x="701" 
d="M558 721l49 -30l-438 -707l-45 28zM273 367c0 -69 -46 -109 -125 -109c-75 0 -123 37 -123 97v53h82v-48c0 -24 14 -36 43 -36c25 0 37 14 37 43v50c0 39 -22 52 -86 52v66h9c58 0 75 13 75 55v25c0 22 -13 34 -38 34c-27 0 -39 -11 -39 -35v-41h-80v35
c0 68 43 106 122 106c74 0 119 -36 119 -94v-36c0 -44 -24 -71 -67 -79v-1c51 -10 71 -35 71 -85v-52zM651 137h30v-74h-30v-67h-86v67h-157v70c36 83 70 178 70 303h100c0 -116 -44 -219 -90 -299h77v129h86v-129z" />
    <glyph glyph-name="oneeighth" unicode="&#x215b;" horiz-adv-x="713" 
d="M140 -16l-45 28l434 709l49 -30zM118 266v327c-11 -11 -35 -19 -78 -27v71c42 10 77 34 104 70h60v-441h-86zM556 -12c-77 0 -127 43 -127 109v48c0 49 19 74 64 85v1c-38 8 -60 37 -60 79v40c0 59 46 94 123 94s123 -35 123 -94v-40c0 -42 -22 -71 -60 -79v-1
c45 -11 64 -36 64 -85v-48c0 -66 -50 -109 -127 -109zM556 253c27 0 39 15 39 48v37c0 27 -13 41 -39 41s-39 -14 -39 -41v-37c0 -33 12 -48 39 -48zM556 54c28 0 41 13 41 40v64c0 31 -14 47 -41 47s-41 -16 -41 -47v-64c0 -27 13 -40 41 -40z" />
    <glyph glyph-name="threeeighths" unicode="&#x215c;" horiz-adv-x="742" 
d="M169 -16l-45 28l434 709l49 -30zM148 258c-75 0 -123 37 -123 97v53h82v-48c0 -24 14 -36 43 -36c25 0 37 14 37 43v50c0 39 -22 52 -86 52v66h9c58 0 75 13 75 55v25c0 22 -13 34 -38 34c-27 0 -39 -11 -39 -35v-41h-80v35c0 68 43 106 122 106c74 0 119 -36 119 -94
v-36c0 -44 -24 -71 -67 -79v-1c51 -10 71 -35 71 -85v-52c0 -69 -46 -109 -125 -109zM585 -12c-77 0 -127 43 -127 109v48c0 49 19 74 64 85v1c-38 8 -60 37 -60 79v40c0 59 46 94 123 94s123 -35 123 -94v-40c0 -42 -22 -71 -60 -79v-1c45 -11 64 -36 64 -85v-48
c0 -66 -50 -109 -127 -109zM585 253c27 0 39 15 39 48v37c0 27 -13 41 -39 41s-39 -14 -39 -41v-37c0 -33 12 -48 39 -48zM585 54c28 0 41 13 41 40v64c0 31 -14 47 -41 47s-41 -16 -41 -47v-64c0 -27 13 -40 41 -40z" />
    <glyph glyph-name="fiveeighths" unicode="&#x215d;" horiz-adv-x="740" 
d="M167 -16l-45 28l434 709l49 -30zM153 261c-90 0 -129 31 -129 103v40h85v-37c0 -28 14 -42 42 -42c29 0 43 15 43 47v88c0 27 -14 42 -39 42c-27 0 -40 -11 -45 -37l-1 -6h-78l5 248h237v-77h-156l-4 -110h3c15 33 42 48 84 48c50 0 80 -30 80 -82v-99
c0 -86 -40 -126 -127 -126zM583 -12c-77 0 -127 43 -127 109v48c0 49 19 74 64 85v1c-38 8 -60 37 -60 79v40c0 59 46 94 123 94s123 -35 123 -94v-40c0 -42 -22 -71 -60 -79v-1c45 -11 64 -36 64 -85v-48c0 -66 -50 -109 -127 -109zM583 253c27 0 39 15 39 48v37
c0 27 -13 41 -39 41s-39 -14 -39 -41v-37c0 -33 12 -48 39 -48zM583 54c28 0 41 13 41 40v64c0 31 -14 47 -41 47s-41 -16 -41 -47v-64c0 -27 13 -40 41 -40z" />
    <glyph glyph-name="seveneighths" unicode="&#x215e;" horiz-adv-x="667" 
d="M483 721l49 -30l-438 -707l-45 28zM56 273c0 87 53 245 118 358h-159v77h245v-66c-74 -132 -110 -253 -110 -368v-8h-94v7zM573 230c45 -11 64 -36 64 -85v-48c0 -66 -50 -109 -127 -109s-127 43 -127 109v48c0 49 19 74 64 85v1c-38 8 -60 37 -60 79v40
c0 59 46 94 123 94s123 -35 123 -94v-40c0 -42 -22 -71 -60 -79v-1zM471 338v-37c0 -33 12 -48 39 -48s39 15 39 48v37c0 27 -13 41 -39 41s-39 -14 -39 -41zM551 94v64c0 31 -14 47 -41 47s-41 -16 -41 -47v-64c0 -27 13 -40 41 -40s41 13 41 40z" />
    <glyph glyph-name="asterisk" unicode="*" horiz-adv-x="318" 
d="M308 569l-103 -27l70 -82l-57 -43l-55 91l-58 -91l-57 38l70 88l-108 21l20 68l101 -37l-9 111h72l-9 -112l100 41z" />
    <glyph glyph-name="backslash" unicode="\" horiz-adv-x="303" 
d="M293 -147h-81l-202 853h81z" />
    <glyph glyph-name="periodcentered" unicode="&#xb7;" horiz-adv-x="175" 
d="M29 268v124h118v-124h-118z" />
    <glyph glyph-name="bullet" unicode="&#x2022;" horiz-adv-x="350" 
d="M175 185c-81 0 -144 63 -144 144s63 144 144 144s144 -63 144 -144s-63 -144 -144 -144z" />
    <glyph glyph-name="colon" unicode=":" horiz-adv-x="175" 
d="M29 371v124h118v-124h-118zM29 0v124h118v-124h-118z" />
    <glyph glyph-name="comma" unicode="," horiz-adv-x="175" 
d="M86 -145l-41 38c29 26 43 53 43 85v22h-59v124h118v-105c0 -75 -17 -120 -61 -164z" />
    <glyph glyph-name="ellipsis" unicode="&#x2026;" horiz-adv-x="488" 
d="M20 0v124h118v-124h-118zM185 0v124h118v-124h-118zM350 0v124h118v-124h-118z" />
    <glyph glyph-name="exclam" unicode="!" horiz-adv-x="245" 
d="M98 186l-53 520h155l-53 -520h-49zM63 0v121h118v-121h-118z" />
    <glyph glyph-name="exclamdown" unicode="&#xa1;" horiz-adv-x="245" 
d="M63 559h118v-121h-118v121zM98 373h49l53 -520h-155z" />
    <glyph glyph-name="numbersign" unicode="#" horiz-adv-x="549" 
d="M90 0l33 230h-113v77h124l15 107h-115v77h126l31 215h80l-30 -215h105l31 215h78l-30 -215h114v-77h-125l-15 -107h116v-77h-127l-32 -230h-80l33 230h-105l-33 -230h-81zM214 307h106l15 107h-105z" />
    <glyph glyph-name="period" unicode="." horiz-adv-x="175" 
d="M29 0v124h118v-124h-118z" />
    <glyph glyph-name="question" unicode="?" horiz-adv-x="410" 
d="M149 188v46c0 43 7 75 23 104l56 99c15 27 22 56 22 94v39c0 38 -12 52 -45 52c-32 0 -46 -17 -46 -54v-105h-124v84c0 116 55 168 177 168c109 0 168 -49 168 -139v-39c0 -49 -9 -83 -32 -121l-68 -112c-17 -27 -24 -53 -24 -87v-29h-107zM144 0v121h118v-121h-118z" />
    <glyph glyph-name="questiondown" unicode="&#xbf;" horiz-adv-x="410" 
d="M266 556v-121h-118v121h118zM261 368v-46c0 -43 -7 -75 -23 -104l-56 -99c-15 -27 -22 -56 -22 -94v-39c0 -38 12 -52 45 -52c32 0 46 17 46 54v105h124v-84c0 -116 -55 -168 -177 -168c-109 0 -168 49 -168 139v39c0 49 9 83 32 121l68 112c17 27 24 53 24 87v29h107z
" />
    <glyph glyph-name="quotedbl" unicode="&#x22;" horiz-adv-x="319" 
d="M57 489l-27 217h115l-27 -217h-61zM201 489l-27 217h115l-27 -217h-61z" />
    <glyph glyph-name="quotesingle" unicode="'" horiz-adv-x="175" 
d="M57 489l-27 217h115l-27 -217h-61z" />
    <glyph glyph-name="semicolon" unicode=";" horiz-adv-x="175" 
d="M29 371v124h118v-124h-118zM86 -145l-41 38c29 26 43 53 43 85v22h-59v124h118v-105c0 -75 -17 -120 -61 -164z" />
    <glyph glyph-name="slash" unicode="/" horiz-adv-x="303" 
d="M10 -147l202 853h81l-202 -853h-81z" />
    <glyph glyph-name="underscore" unicode="_" horiz-adv-x="350" 
d="M0 -96v66h350v-66h-350z" />
    <glyph glyph-name="backslash.case" horiz-adv-x="303" 
d="M293 -76h-81l-202 853h81z" />
    <glyph glyph-name="periodcentered.case" horiz-adv-x="175" 
d="M29 310v124h118v-124h-118z" />
    <glyph glyph-name="bullet.case" horiz-adv-x="350" 
d="M175 235c-81 0 -144 63 -144 144s63 144 144 144s144 -63 144 -144s-63 -144 -144 -144z" />
    <glyph glyph-name="exclamdown.case" horiz-adv-x="245" 
d="M63 706h118v-121h-118v121zM98 520h49l53 -520h-155z" />
    <glyph glyph-name="questiondown.case" horiz-adv-x="410" 
d="M266 706v-121h-118v121h118zM261 518v-46c0 -43 -7 -75 -23 -104l-56 -99c-15 -27 -22 -56 -22 -94v-39c0 -38 12 -52 45 -52c32 0 46 17 46 54v105h124v-84c0 -116 -55 -168 -177 -168c-109 0 -168 49 -168 139v39c0 49 9 83 32 121l68 112c17 27 24 53 24 87v29h107z
" />
    <glyph glyph-name="slash.case" horiz-adv-x="303" 
d="M10 -77l202 853h81l-202 -853h-81z" />
    <glyph glyph-name="braceleft" unicode="{" horiz-adv-x="297" 
d="M264 -133c-116 0 -178 46 -178 131v160c0 50 -23 75 -71 78v80c48 3 71 28 71 78v160c0 85 62 131 178 131h23v-75l-21 -2c-46 -4 -69 -28 -69 -73l-1 -156c0 -66 -28 -95 -97 -102v-2c69 -7 97 -36 97 -102l1 -156c0 -45 23 -69 69 -73l21 -2v-75h-23z" />
    <glyph glyph-name="braceright" unicode="}" horiz-adv-x="297" 
d="M33 -133h-23v75l21 2c46 4 69 28 69 73l1 156c0 66 28 95 97 102v2c-69 7 -97 36 -97 102l-1 156c0 45 -23 69 -69 73l-21 2v75h23c116 0 178 -46 178 -131v-160c0 -50 23 -75 71 -78v-80c-48 -3 -71 -28 -71 -78v-160c0 -85 -62 -131 -178 -131z" />
    <glyph glyph-name="bracketleft" unicode="[" horiz-adv-x="289" 
d="M269 589h-99v-626h99v-97h-219v820h219v-97z" />
    <glyph glyph-name="bracketright" unicode="]" horiz-adv-x="289" 
d="M239 686v-820h-219v97h99v626h-99v97h219z" />
    <glyph glyph-name="parenleft" unicode="(" horiz-adv-x="238" 
d="M147 -133c-76 124 -112 256 -112 410c0 153 37 287 112 409h83c-44 -133 -66 -270 -66 -410s22 -276 66 -410z" />
    <glyph glyph-name="parenright" unicode=")" horiz-adv-x="238" 
d="M91 -133l-83 -1c44 134 66 270 66 410s-22 277 -66 410h83c75 -122 112 -256 112 -409c0 -154 -36 -286 -112 -410z" />
    <glyph glyph-name="braceleft.case" horiz-adv-x="297" 
d="M264 -88c-116 0 -178 46 -178 131v160c0 50 -23 75 -71 78v80c48 3 71 28 71 78v160c0 85 62 131 178 131h23v-75l-21 -2c-46 -4 -69 -28 -69 -73l-1 -156c0 -66 -28 -95 -97 -102v-2c69 -7 97 -36 97 -102l1 -156c0 -45 23 -69 69 -73l21 -2v-75h-23z" />
    <glyph glyph-name="braceright.case" horiz-adv-x="297" 
d="M33 -88h-23v75l21 2c46 4 69 28 69 73l1 156c0 66 28 95 97 102v2c-69 7 -97 36 -97 102l-1 156c0 45 -23 69 -69 73l-21 2v75h23c116 0 178 -46 178 -131v-160c0 -50 23 -75 71 -78v-80c-48 -3 -71 -28 -71 -78v-160c0 -85 -62 -131 -178 -131z" />
    <glyph glyph-name="bracketleft.case" horiz-adv-x="289" 
d="M269 634h-99v-626h99v-97h-219v820h219v-97z" />
    <glyph glyph-name="bracketright.case" horiz-adv-x="289" 
d="M239 731v-820h-219v97h99v626h-99v97h219z" />
    <glyph glyph-name="parenleft.case" horiz-adv-x="238" 
d="M147 -88c-76 124 -112 256 -112 410c0 153 37 287 112 409h83c-44 -133 -66 -270 -66 -410s22 -276 66 -410z" />
    <glyph glyph-name="parenright.case" horiz-adv-x="238" 
d="M91 -88l-83 -1c44 134 66 270 66 410s-22 277 -66 410h83c75 -122 112 -256 112 -409c0 -154 -36 -286 -112 -410z" />
    <glyph glyph-name="emdash" unicode="&#x2014;" horiz-adv-x="525" 
d="M0 219v66h525v-66h-525z" />
    <glyph glyph-name="endash" unicode="&#x2013;" horiz-adv-x="350" 
d="M0 219v66h350v-66h-350z" />
    <glyph glyph-name="hyphen" unicode="-" horiz-adv-x="300" 
d="M20 246v111h260v-111h-260z" />
    <glyph glyph-name="emdash.case" horiz-adv-x="525" 
d="M0 289v66h525v-66h-525z" />
    <glyph glyph-name="endash.case" horiz-adv-x="350" 
d="M0 289v66h350v-66h-350z" />
    <glyph glyph-name="hyphen.case" horiz-adv-x="300" 
d="M20 306v111h260v-111h-260z" />
    <glyph glyph-name="guillemotleft" unicode="&#xab;" horiz-adv-x="385" 
d="M120 90l-100 195v8l100 195h102l-100 -199l100 -199h-102zM263 90l-100 195v8l100 195h102l-100 -199l100 -199h-102z" />
    <glyph glyph-name="guillemotright" unicode="&#xbb;" horiz-adv-x="385" 
d="M122 90h-102l100 199l-100 199h102l100 -195v-8zM265 90h-102l100 199l-100 199h102l100 -195v-8z" />
    <glyph glyph-name="guilsinglleft" unicode="&#x2039;" horiz-adv-x="242" 
d="M120 90l-100 195v8l100 195h102l-100 -199l100 -199h-102z" />
    <glyph glyph-name="guilsinglright" unicode="&#x203a;" horiz-adv-x="242" 
d="M122 90h-102l100 199l-100 199h102l100 -195v-8z" />
    <glyph glyph-name="quotedblbase" unicode="&#x201e;" horiz-adv-x="332" 
d="M86 -145l-41 38c29 26 43 53 43 85v22h-59v124h118v-105c0 -75 -17 -120 -61 -164zM243 -145l-41 38c29 26 43 53 43 85v22h-59v124h118v-105c0 -75 -17 -120 -61 -164z" />
    <glyph glyph-name="quotedblleft" unicode="&#x201c;" horiz-adv-x="332" 
d="M89 715l41 -38c-29 -26 -43 -53 -43 -85v-22h59v-124h-118v105c0 75 17 120 61 164zM246 715l41 -38c-29 -26 -43 -53 -43 -85v-22h59v-124h-118v105c0 75 17 120 61 164z" />
    <glyph glyph-name="quotedblright" unicode="&#x201d;" horiz-adv-x="332" 
d="M86 437l-41 38c29 26 43 53 43 85v22h-59v124h118v-105c0 -75 -17 -120 -61 -164zM243 437l-41 38c29 26 43 53 43 85v22h-59v124h118v-105c0 -75 -17 -120 -61 -164z" />
    <glyph glyph-name="quoteleft" unicode="&#x2018;" horiz-adv-x="175" 
d="M89 715l41 -38c-29 -26 -43 -53 -43 -85v-22h59v-124h-118v105c0 75 17 120 61 164z" />
    <glyph glyph-name="quoteright" unicode="&#x2019;" horiz-adv-x="175" 
d="M86 437l-41 38c29 26 43 53 43 85v22h-59v124h118v-105c0 -75 -17 -120 -61 -164z" />
    <glyph glyph-name="quotesinglbase" unicode="&#x201a;" horiz-adv-x="175" 
d="M86 -145l-41 38c29 26 43 53 43 85v22h-59v124h118v-105c0 -75 -17 -120 -61 -164z" />
    <glyph glyph-name="guillemotleft.case" horiz-adv-x="385" 
d="M120 140l-100 195v8l100 195h102l-100 -199l100 -199h-102zM263 140l-100 195v8l100 195h102l-100 -199l100 -199h-102z" />
    <glyph glyph-name="guillemotright.case" horiz-adv-x="385" 
d="M122 140h-102l100 199l-100 199h102l100 -195v-8zM265 140h-102l100 199l-100 199h102l100 -195v-8z" />
    <glyph glyph-name="guilsinglleft.case" horiz-adv-x="242" 
d="M120 140l-100 195v8l100 195h102l-100 -199l100 -199h-102z" />
    <glyph glyph-name="guilsinglright.case" horiz-adv-x="242" 
d="M122 140h-102l100 199l-100 199h102l100 -195v-8z" />
    <glyph glyph-name="space" unicode=" " horiz-adv-x="175" 
 />
    <glyph glyph-name="cent" unicode="&#xa2;" horiz-adv-x="383" 
d="M351 401h-115v87c0 42 -11 59 -38 59c-30 0 -43 -19 -43 -60v-244c0 -41 14 -60 43 -60c28 0 38 16 38 59v83h115v-86c0 -90 -42 -139 -126 -148v-91h-61v92c-85 9 -127 60 -127 153v231c0 92 42 142 127 153v77h61v-76c85 -8 126 -56 126 -148v-81z" />
    <glyph glyph-name="currency" unicode="&#xa4;" horiz-adv-x="497" 
d="M446 291c0 -43 -14 -84 -38 -116l53 -54l-43 -44l-55 54c-32 -23 -71 -36 -113 -36c-43 0 -83 14 -115 37l-57 -55l-43 44l56 56c-23 32 -37 72 -37 114c0 43 14 82 37 114l-55 56l43 44l57 -55c32 23 71 37 114 37c42 0 81 -13 113 -36l56 54l43 -44l-54 -55
c24 -32 38 -72 38 -115zM111 291c0 -77 62 -139 139 -139s139 62 139 139s-62 139 -139 139s-139 -62 -139 -139z" />
    <glyph glyph-name="dollar" unicode="$" horiz-adv-x="438" 
d="M403 196c0 -118 -47 -174 -152 -182v-96h-61v96c-100 9 -152 60 -152 148v95h122v-76c0 -56 15 -73 62 -73c45 0 59 18 59 78c0 64 -14 83 -109 147c-106 70 -129 103 -129 186c0 105 50 163 150 173v97h61v-97c89 -10 140 -63 140 -148v-56h-121v47c0 43 -18 64 -53 64
c-37 0 -54 -19 -54 -63c0 -53 8 -63 101 -125c112 -75 136 -113 136 -215z" />
    <glyph glyph-name="Euro" unicode="&#x20ac;" horiz-adv-x="504" 
d="M468 504l-130 -31v50c0 64 -18 88 -66 88c-51 0 -71 -26 -71 -93v-87h144l-30 -71h-114v-50h92l-30 -71h-62v-61c0 -63 19 -86 70 -86c47 0 67 25 67 83v100h130v-113c0 -123 -60 -177 -195 -177c-137 0 -202 57 -202 177v77h-62l30 71h32v50h-62l30 71h32v94
c0 131 63 190 201 190c136 0 196 -58 196 -190v-21z" />
    <glyph glyph-name="florin" unicode="&#x192;" horiz-adv-x="371" 
d="M351 400l-26 -71h-90l-49 -365c-12 -89 -53 -123 -149 -123c-11 0 -15 0 -42 2l11 98c11 -1 19 -2 26 -2c22 0 32 12 37 44l46 346h-80l26 71h64l24 183c13 96 53 132 150 132c14 0 24 -1 42 -3l-11 -98c-9 2 -17 3 -26 3c-24 0 -31 -11 -37 -54l-22 -163h106z" />
    <glyph glyph-name="sterling" unicode="&#xa3;" horiz-adv-x="434" 
d="M127 120h282v-120h-385v120h26c17 0 27 13 27 35v134h-53v71h53v202c0 100 60 153 172 153c99 0 154 -53 154 -148v-113h-127v114c0 31 -11 46 -34 46s-35 -14 -35 -43v-211h148v-71h-148v-45c0 -66 -25 -104 -80 -121v-3z" />
    <glyph glyph-name="yen" unicode="&#xa5;" horiz-adv-x="450" 
d="M432 706l-106 -354h85v-71h-106l-14 -45v-15h120v-71h-120v-150h-132v150h-119v71h119v22l-11 38h-108v71h86l-108 354h140l35 -175l36 -184l35 184l34 175h134z" />
    <glyph glyph-name="plus" unicode="+" horiz-adv-x="525" 
d="M447 412v-66h-151v-153h-66v153h-152v66h152v154h66v-154h151z" />
    <glyph glyph-name="minus" unicode="&#x2212;" horiz-adv-x="525" 
d="M78 346v66h369v-66h-369z" />
    <glyph glyph-name="multiply" unicode="&#xd7;" horiz-adv-x="525" 
d="M142 211l-47 47l122 122l-123 123l46 46l123 -123l121 121l47 -47l-121 -121l122 -122l-46 -46l-122 122z" />
    <glyph glyph-name="divide" unicode="&#xf7;" horiz-adv-x="525" 
d="M204 465v124h118v-124h-118zM78 346v66h369v-66h-369zM204 169v124h118v-124h-118z" />
    <glyph glyph-name="equal" unicode="=" horiz-adv-x="525" 
d="M78 446v66h369v-66h-369zM78 246v66h369v-66h-369z" />
    <glyph glyph-name="notequal" unicode="&#x2260;" horiz-adv-x="525" 
d="M447 446h-125l-53 -134h178v-66h-206l-47 -115h-67l48 115h-97v66h124l55 134h-179v66h205l49 116h66l-47 -116h96v-66z" />
    <glyph glyph-name="greater" unicode="&#x3e;" horiz-adv-x="525" 
d="M78 566l368 -153v-66l-368 -154v71l286 116l-286 114v72z" />
    <glyph glyph-name="less" unicode="&#x3c;" horiz-adv-x="525" 
d="M447 566v-72l-286 -114l286 -116v-71l-368 154v66z" />
    <glyph glyph-name="greaterequal" unicode="&#x2265;" horiz-adv-x="525" 
d="M445 431v-66l-367 -136v68l276 101l-276 99v69zM78 214h368v-66h-368v66z" />
    <glyph glyph-name="lessequal" unicode="&#x2264;" horiz-adv-x="525" 
d="M447 566v-69l-276 -99l276 -101v-68l-367 136v66zM79 148v66h368v-66h-368z" />
    <glyph glyph-name="plusminus" unicode="&#xb1;" horiz-adv-x="525" 
d="M447 379h-151v-117h151v-66h-369v66h152v117h-152v66h152v154h66v-154h151v-66z" />
    <glyph glyph-name="approxequal" unicode="&#x2248;" horiz-adv-x="525" 
d="M67 392l-46 36c54 67 86 84 143 84c34 0 62 -8 114 -33c58 -28 81 -36 104 -36c24 0 47 13 75 46l47 -37c-49 -58 -76 -71 -124 -71c-34 0 -62 8 -114 33c-58 28 -81 36 -104 36c-30 0 -63 -20 -95 -58zM67 230l-46 36c54 67 86 84 143 84c34 0 62 -8 114 -33
c58 -28 81 -36 104 -36c24 0 47 13 75 46l47 -37c-49 -58 -76 -71 -124 -71c-34 0 -62 8 -114 33c-58 28 -81 36 -104 36c-30 0 -63 -20 -95 -58z" />
    <glyph glyph-name="asciitilde" unicode="~" horiz-adv-x="525" 
d="M67 311l-46 36c54 67 86 84 143 84c34 0 62 -8 114 -33c58 -28 81 -36 104 -36c24 0 47 13 75 46l47 -37c-49 -58 -76 -71 -124 -71c-34 0 -62 8 -114 33c-58 28 -81 36 -104 36c-30 0 -63 -20 -95 -58z" />
    <glyph glyph-name="logicalnot" unicode="&#xac;" horiz-adv-x="525" 
d="M384 238v153h-324v66h390v-219h-66z" />
    <glyph glyph-name="infinity" unicode="&#x221e;" horiz-adv-x="668" 
d="M167 189c-97 0 -162 63 -162 157c0 91 68 157 162 157c71 0 116 -23 168 -84c54 62 97 84 166 84c94 0 162 -66 162 -157c0 -94 -65 -157 -162 -157c-69 0 -112 22 -166 84c-52 -61 -97 -84 -168 -84zM168 277c36 0 68 21 108 69c-40 48 -72 69 -108 69
c-38 0 -65 -28 -65 -69s27 -69 65 -69zM502 277c38 0 65 28 65 69s-27 69 -65 69c-36 0 -68 -21 -107 -69c39 -48 71 -69 107 -69z" />
    <glyph glyph-name="integral" unicode="&#x222b;" horiz-adv-x="258" 
d="M32 -159c-13 0 -30 3 -47 7v98c14 -3 24 -3 32 -3c24 0 40 10 40 58v570c0 100 52 144 144 144c13 0 30 -3 47 -7v-98c-14 3 -24 3 -32 3c-24 0 -40 -10 -40 -58v-570c0 -100 -52 -144 -144 -144z" />
    <glyph glyph-name="product" unicode="&#x220f;" horiz-adv-x="484" 
d="M50 -87v793h384v-793h-130v673h-124v-673h-130z" />
    <glyph glyph-name="summation" unicode="&#x2211;" horiz-adv-x="402" 
d="M172 -10h218v-112h-365v81l133 347l-133 321v79h356v-112h-207l119 -287v-3z" />
    <glyph glyph-name="radical" unicode="&#x221a;" horiz-adv-x="543" 
d="M451 706h72l-214 -791h-62l-143 330h-84v77h133l118 -291z" />
    <glyph glyph-name="partialdiff" unicode="&#x2202;" horiz-adv-x="399" 
d="M224 725c96 -98 138 -214 138 -378v-208c0 -99 -53 -149 -160 -149c-110 0 -165 51 -165 155v223c0 84 44 134 119 134c29 0 55 -9 76 -28c-11 70 -40 119 -106 175zM243 138v211c0 44 -12 63 -41 63c-33 0 -46 -18 -46 -64v-209c0 -46 13 -64 46 -64c29 0 41 19 41 63z
" />
    <glyph glyph-name="percent" unicode="%" horiz-adv-x="733" 
d="M170 -16l-45 28l434 709l49 -30zM154 258c-88 0 -129 35 -129 110v228c0 81 40 118 128 118s126 -36 126 -118v-228c0 -77 -38 -110 -125 -110zM153 324c30 0 40 13 40 52v219c0 40 -10 54 -40 54c-31 0 -42 -16 -42 -57v-214c0 -40 11 -54 42 -54zM583 -14
c-88 0 -129 35 -129 110v228c0 81 40 118 128 118s126 -36 126 -118v-228c0 -77 -38 -110 -125 -110zM582 52c30 0 40 13 40 52v219c0 40 -10 54 -40 54c-31 0 -42 -16 -42 -57v-214c0 -40 11 -54 42 -54z" />
    <glyph glyph-name="perthousand" unicode="&#x2030;" horiz-adv-x="1029" 
d="M170 -16l-45 28l434 709l49 -30zM154 258c-88 0 -129 35 -129 110v228c0 81 40 118 128 118s126 -36 126 -118v-228c0 -77 -38 -110 -125 -110zM153 324c30 0 40 13 40 52v219c0 40 -10 54 -40 54c-31 0 -42 -16 -42 -57v-214c0 -40 11 -54 42 -54zM583 -14
c-88 0 -129 35 -129 110v228c0 81 40 118 128 118s126 -36 126 -118v-228c0 -77 -38 -110 -125 -110zM879 -14c-88 0 -129 35 -129 110v228c0 81 40 118 128 118s126 -36 126 -118v-228c0 -77 -38 -110 -125 -110zM582 52c30 0 40 13 40 52v219c0 40 -10 54 -40 54
c-31 0 -42 -16 -42 -57v-214c0 -40 11 -54 42 -54zM878 52c30 0 40 13 40 52v219c0 40 -10 54 -40 54c-31 0 -42 -16 -42 -57v-214c0 -40 11 -54 42 -54z" />
    <glyph glyph-name="lozenge" unicode="&#x25ca;" horiz-adv-x="414" 
d="M181 24l-151 339l153 329h44l157 -331l-159 -337h-44zM207 177l80 185l-81 178l-78 -180z" />
    <glyph glyph-name="at" unicode="@" horiz-adv-x="677" 
d="M361 -105c80 0 161 36 229 100l33 -33c-71 -77 -164 -119 -261 -119c-243 0 -329 112 -329 426c0 317 90 446 312 446c213 0 297 -106 297 -378c0 -205 -47 -316 -134 -316c-64 0 -92 21 -103 81h-4c-11 -54 -53 -91 -104 -91c-82 0 -123 45 -123 136v23
c0 64 29 100 123 155c60 35 80 57 80 90v11c0 31 -12 44 -38 44c-32 0 -41 -14 -41 -63v-24h-111v21c0 108 43 148 161 148c97 0 151 -43 151 -121v-297c0 -22 9 -32 28 -32c37 0 56 77 56 232c0 249 -58 329 -239 329c-191 0 -252 -96 -252 -394c0 -285 64 -374 269 -374z
M330 100c31 0 46 21 46 63v124c-6 -6 -16 -13 -29 -22c-42 -28 -54 -47 -54 -81v-28c0 -36 13 -56 37 -56z" />
    <glyph glyph-name="ampersand" unicode="&#x26;" horiz-adv-x="534" 
d="M494 82h15v-85c-14 -4 -33 -6 -57 -6c-35 0 -66 16 -93 41c-40 -28 -87 -44 -139 -44c-117 0 -200 73 -200 195c0 88 57 158 118 221c-29 62 -46 118 -46 167c0 86 58 150 150 150c86 0 138 -48 138 -131c0 -80 -47 -146 -105 -205c9 -18 19 -37 31 -58
c23 -42 45 -85 66 -124c15 35 24 75 24 117v65h105v-65c0 -79 -23 -153 -63 -212c18 -16 36 -26 56 -26zM239 629c-26 0 -38 -20 -38 -52c0 -22 6 -48 25 -93c28 36 47 72 47 105c0 30 -16 40 -34 40zM139 183c0 -53 41 -89 88 -89c25 0 48 7 69 20c-28 45 -52 95 -76 136
c-11 18 -21 36 -31 54c-29 -37 -50 -76 -50 -121z" />
    <glyph glyph-name="paragraph" unicode="&#xb6;" horiz-adv-x="529" 
d="M218 -147v440c-112 23 -173 93 -173 199c0 132 91 214 237 214h212v-73h-56v-780h-78v780h-65v-780h-77z" />
    <glyph glyph-name="section" unicode="&#xa7;" horiz-adv-x="399" 
d="M379 328c0 -66 -34 -116 -93 -140c39 -42 56 -86 56 -143c0 -92 -53 -141 -155 -141c-108 0 -162 45 -162 136v65h108v-54c0 -40 18 -61 52 -62c33 -1 46 15 46 55c0 39 -13 61 -58 98l-70 58c-52 44 -71 79 -71 131c0 65 37 111 100 128c-45 40 -61 74 -61 120
c0 92 51 137 153 137c94 0 141 -42 141 -128v-36h-100v13c0 49 -12 69 -42 69c-27 0 -42 -16 -42 -46c0 -25 5 -32 60 -77l70 -57c52 -44 68 -75 68 -126zM193 270l32 -27c30 14 45 36 45 65c0 27 -10 45 -39 68l-28 24c-43 -1 -62 -18 -62 -57c0 -23 10 -37 52 -73z" />
    <glyph glyph-name="copyright" unicode="&#xa9;" horiz-adv-x="660" 
d="M330 -13c-211 0 -280 91 -280 367c0 277 70 369 280 369c211 0 280 -90 280 -369c0 -277 -69 -367 -280 -367zM330 18c186 0 244 80 244 337s-58 337 -244 337s-244 -80 -244 -337s58 -337 244 -337zM332 97c-102 0 -152 49 -152 148v221c0 99 50 148 152 148
c99 0 148 -47 148 -142v-78h-110v83c0 40 -11 57 -36 57c-29 0 -41 -18 -41 -58v-233c0 -39 13 -57 41 -57c26 0 36 16 36 56v79h110v-82c0 -95 -49 -142 -148 -142z" />
    <glyph glyph-name="registered" unicode="&#xae;" horiz-adv-x="660" 
d="M330 723c211 0 280 -90 280 -369c0 -277 -69 -367 -280 -367s-280 91 -280 367c0 277 70 369 280 369zM330 18c186 0 244 80 244 337s-58 337 -244 337s-244 -80 -244 -337s58 -337 244 -337zM477 470c0 -79 -19 -125 -61 -146l75 -218h-104l-62 206h-17v-206h-98v509
h125c109 0 142 -33 142 -145zM308 539v-152h26c39 0 50 18 50 83c0 53 -11 69 -50 69h-26z" />
    <glyph glyph-name="trademark" unicode="&#x2122;" horiz-adv-x="712" 
d="M10 624v82h246v-82h-79v-370h-88v370h-79zM533 706h139v-452h-83v100l4 317l-78 -417h-71l-78 416l9 -315v-101h-83v452h142l48 -294z" />
    <glyph glyph-name="degree" unicode="&#xb0;" horiz-adv-x="441" 
d="M221 365c-98 0 -176 78 -176 175c0 98 78 176 176 176c97 0 175 -78 175 -176c0 -97 -78 -175 -175 -175zM221 425c63 0 115 52 115 115c0 65 -52 117 -115 117c-65 0 -117 -52 -117 -117c0 -63 52 -115 117 -115z" />
    <glyph glyph-name="bar" unicode="|" horiz-adv-x="275" 
d="M80 -147v933h115v-933h-115z" />
    <glyph glyph-name="brokenbar" unicode="&#xa6;" horiz-adv-x="275" 
d="M80 398v388h115v-388h-115zM80 -147v389h115v-389h-115z" />
    <glyph glyph-name="dagger" unicode="&#x2020;" horiz-adv-x="312" 
d="M297 603v-70l-116 13l11 -251h-72l11 251l-116 -13v70l115 -13l-10 116h72l-10 -116z" />
    <glyph glyph-name="daggerdbl" unicode="&#x2021;" horiz-adv-x="312" 
d="M120 221l10 116l-115 -13v70l117 -13v165l-117 -13v70l115 -13l-10 116h72l-10 -116l115 13v-70l-117 13v-165l117 13v-70l-115 13l10 -116h-72z" />
    <glyph glyph-name="asciicircum" unicode="^" horiz-adv-x="575" 
d="M495 337h-97l-109 259l-113 -259h-96l173 369h77z" />
    <glyph glyph-name="at.case" horiz-adv-x="677" 
d="M361 -25c80 0 161 36 229 100l33 -33c-71 -77 -164 -119 -261 -119c-243 0 -329 112 -329 426c0 317 90 446 312 446c213 0 297 -106 297 -378c0 -205 -47 -316 -134 -316c-64 0 -92 21 -103 81h-4c-11 -54 -53 -91 -104 -91c-82 0 -123 45 -123 136v23
c0 64 29 100 123 155c60 35 80 57 80 90v11c0 31 -12 44 -38 44c-32 0 -41 -14 -41 -63v-24h-111v21c0 108 43 148 161 148c97 0 151 -43 151 -121v-297c0 -22 9 -32 28 -32c37 0 56 77 56 232c0 249 -58 329 -239 329c-191 0 -252 -96 -252 -394c0 -285 64 -374 269 -374z
M330 180c31 0 46 21 46 63v124c-6 -6 -16 -13 -29 -22c-42 -28 -54 -47 -54 -81v-28c0 -36 13 -56 37 -56z" />
    <glyph glyph-name="uni0308" unicode="&#x308;" 
d="M-135 594v105h103v-105h-103zM32 594v105h103v-105h-103z" />
    <glyph glyph-name="uni0307" unicode="&#x307;" 
d="M-59 586v121h118v-121h-118z" />
    <glyph glyph-name="gravecomb" unicode="&#x300;" 
d="M100 576h-102l-99 130h138z" />
    <glyph glyph-name="acutecomb" unicode="&#x301;" 
d="M-100 576l63 130h138l-99 -130h-102z" />
    <glyph glyph-name="uni030B" unicode="&#x30b;" 
d="M-179 576l63 130h138l-99 -130h-102zM-20 576l63 130h138l-99 -130h-102z" />
    <glyph glyph-name="caroncomb.alt" 
d="M-69 550v156h138l-36 -156h-102z" />
    <glyph glyph-name="uni0302" unicode="&#x302;" 
d="M144 571h-102l-41 48l-42 -48h-102l100 130h87z" />
    <glyph glyph-name="uni030C" unicode="&#x30c;" 
d="M41 697h102l-100 -130h-87l-100 130h102l41 -48z" />
    <glyph glyph-name="uni0306" unicode="&#x306;" 
d="M0 563c-88 0 -117 46 -129 129l75 11c7 -41 15 -65 54 -65s47 24 54 65l75 -11c-12 -83 -41 -129 -129 -129z" />
    <glyph glyph-name="uni030A" unicode="&#x30a;" 
d="M0 551c-53 0 -92 40 -92 93c0 51 39 91 92 91c52 0 91 -40 91 -91c0 -53 -39 -93 -91 -93zM0 591c28 0 50 22 50 53c0 30 -22 52 -50 52c-29 0 -51 -22 -51 -52c0 -31 22 -53 51 -53z" />
    <glyph glyph-name="tildecomb" unicode="&#x303;" 
d="M-160 573c0 72 18 127 85 127c28 0 57 -11 82 -22c23 -9 44 -19 59 -19c26 0 31 24 34 41h60c0 -75 -29 -127 -85 -127c-20 0 -50 12 -79 23c-25 10 -48 19 -60 19c-24 0 -29 -25 -32 -42h-64z" />
    <glyph glyph-name="uni0304" unicode="&#x304;" 
d="M-119 590v91h238v-91h-238z" />
    <glyph glyph-name="uni0312" unicode="&#x312;" 
d="M-59 569v72c0 77 19 112 51 144l42 -35c-20 -19 -30 -38 -30 -65v-13h55v-103h-118z" />
    <glyph glyph-name="uni0326" unicode="&#x326;" 
d="M17 -191l-45 34c9 11 14 22 14 32v4h-57v80h142v-61c0 -38 -20 -66 -54 -89z" />
    <glyph glyph-name="uni0327" unicode="&#x327;" 
d="M-6 -27c49 -4 80 -28 80 -68c0 -43 -43 -64 -117 -64c-16 0 -32 1 -56 6v36c12 -1 23 0 32 0c28 0 40 9 40 27c0 19 -11 27 -29 29v64h50v-30z" />
    <glyph glyph-name="uni0328" unicode="&#x328;" 
d="M19 -159c-55 0 -88 24 -88 70v6c0 37 20 65 43 88h80c-18 -21 -28 -38 -28 -52v-5c0 -16 9 -22 28 -22h14v-85h-49z" />
    <glyph glyph-name="uni0308.case" 
d="M-135 748v105h103v-105h-103zM32 748v105h103v-105h-103z" />
    <glyph glyph-name="uni0307.case" 
d="M-59 745v121h118v-121h-118z" />
    <glyph glyph-name="gravecomb.case" 
d="M99 751h-102l-96 109h133z" />
    <glyph glyph-name="acutecomb.case" 
d="M-99 751l65 109h133l-96 -109h-102z" />
    <glyph glyph-name="uni030B.case" 
d="M-186 751l65 109h133l-96 -109h-102zM-12 751l65 109h133l-96 -109h-102z" />
    <glyph glyph-name="uni0302.case" 
d="M149 747h-102l-46 47l-47 -47h-102l107 115h83z" />
    <glyph glyph-name="uni030C.case" 
d="M46 863h102l-107 -115h-83l-107 115h102l46 -47z" />
    <glyph glyph-name="uni0306.case" 
d="M0 739c-88 0 -117 43 -129 122l73 11c8 -38 17 -60 56 -60s48 22 56 60l73 -11c-12 -79 -41 -122 -129 -122z" />
    <glyph glyph-name="uni030A.case" 
d="M0 741c-53 0 -92 36 -92 83c0 45 39 80 92 80c52 0 91 -35 91 -80c0 -47 -39 -83 -91 -83zM0 780c26 0 46 18 46 44c0 24 -20 42 -46 42c-27 0 -47 -18 -47 -42c0 -26 20 -44 47 -44z" />
    <glyph glyph-name="tildecomb.case" 
d="M-160 742c0 72 18 127 85 127c28 0 57 -11 82 -22c23 -9 44 -19 59 -19c26 0 31 24 34 41h60c0 -75 -29 -127 -85 -127c-20 0 -50 12 -79 23c-25 10 -48 19 -60 19c-24 0 -29 -25 -32 -42h-64z" />
    <glyph glyph-name="uni0304.case" 
d="M-119 747v91h238v-91h-238z" />
    <glyph glyph-name="uni0326.case" 
d="M17 -191l-45 34c9 11 14 22 14 32v4h-57v80h142v-61c0 -38 -20 -66 -54 -89z" />
    <glyph glyph-name="uni0327.case" 
d="M-6 -27c49 -4 80 -28 80 -68c0 -43 -43 -64 -117 -64c-16 0 -32 1 -56 6v36c12 -1 23 0 32 0c28 0 40 9 40 27c0 19 -11 27 -29 29v64h50v-30z" />
    <glyph glyph-name="uni0328.case" 
d="M19 -159c-55 0 -88 24 -88 70v6c0 37 20 65 43 88h80c-18 -21 -28 -38 -28 -52v-5c0 -16 9 -22 28 -22h14v-85h-49z" />
    <glyph glyph-name="acute" unicode="&#xb4;" horiz-adv-x="350" 
d="M75 576l63 130h138l-99 -130h-102z" />
    <glyph glyph-name="breve" unicode="&#x2d8;" horiz-adv-x="350" 
d="M175 563c-88 0 -117 46 -129 129l75 11c7 -41 15 -65 54 -65s47 24 54 65l75 -11c-12 -83 -41 -129 -129 -129z" />
    <glyph glyph-name="caron" unicode="&#x2c7;" horiz-adv-x="350" 
d="M216 697h102l-100 -130h-87l-100 130h102l42 -48z" />
    <glyph glyph-name="cedilla" unicode="&#xb8;" horiz-adv-x="350" 
d="M183 -27c49 -4 80 -28 80 -68c0 -43 -43 -64 -117 -64c-16 0 -32 1 -56 6v36c12 -1 23 0 32 0c28 0 40 9 40 27c0 19 -11 27 -29 29v64h50v-30z" />
    <glyph glyph-name="circumflex" unicode="&#x2c6;" horiz-adv-x="350" 
d="M318 571h-102l-41 48l-42 -48h-102l100 130h87z" />
    <glyph glyph-name="dieresis" unicode="&#xa8;" horiz-adv-x="350" 
d="M40 594v105h103v-105h-103zM207 594v105h103v-105h-103z" />
    <glyph glyph-name="dotaccent" unicode="&#x2d9;" horiz-adv-x="350" 
d="M116 586v121h118v-121h-118z" />
    <glyph glyph-name="grave" unicode="`" horiz-adv-x="350" 
d="M275 576h-102l-99 130h138z" />
    <glyph glyph-name="hungarumlaut" unicode="&#x2dd;" horiz-adv-x="350" 
d="M-5 576l63 130h138l-99 -130h-102zM154 576l63 130h138l-99 -130h-102z" />
    <glyph glyph-name="macron" unicode="&#xaf;" horiz-adv-x="350" 
d="M56 590v91h238v-91h-238z" />
    <glyph glyph-name="ogonek" unicode="&#x2db;" horiz-adv-x="350" 
d="M195 -159c-55 0 -88 24 -88 70v6c0 37 20 65 43 88h80c-18 -21 -28 -38 -28 -52v-5c0 -16 9 -22 28 -22h14v-85h-49z" />
    <glyph glyph-name="ring" unicode="&#x2da;" horiz-adv-x="350" 
d="M175 551c-53 0 -92 40 -92 93c0 51 39 91 92 91c52 0 91 -40 91 -91c0 -53 -39 -93 -91 -93zM175 591c28 0 50 22 50 53c0 30 -22 52 -50 52c-29 0 -51 -22 -51 -52c0 -31 22 -53 51 -53z" />
    <glyph glyph-name="tilde" unicode="&#x2dc;" horiz-adv-x="350" 
d="M15 573c0 72 18 127 85 127c28 0 57 -11 82 -22c23 -9 44 -19 59 -19c26 0 31 24 34 41h60c0 -75 -29 -127 -85 -127c-20 0 -50 12 -79 23c-25 10 -48 19 -60 19c-24 0 -29 -25 -32 -42h-64z" />
    </font>
</defs>
</svg>
